<?xml version="1.0" encoding="utf-8"?>
<!-- Generator: Adobe Illustrator 24.3.0, SVG Export Plug-In . SVG Version: 6.00 Build 0)  -->
<svg version="1.1"
	 id="svg5340" xmlns:cc="http://creativecommons.org/ns#" xmlns:dc="http://purl.org/dc/elements/1.1/" xmlns:inkscape="http://www.inkscape.org/namespaces/inkscape" xmlns:rdf="http://www.w3.org/1999/02/22-rdf-syntax-ns#" xmlns:sodipodi="http://sodipodi.sourceforge.net/DTD/sodipodi-0.dtd" xmlns:svg="http://www.w3.org/2000/svg"
	 xmlns="http://www.w3.org/2000/svg" xmlns:xlink="http://www.w3.org/1999/xlink" x="0px" y="0px" viewBox="0 0 173.2 312.4"
	 style="enable-background:new 0 0 173.2 312.4;" xml:space="preserve">
<style type="text/css">
	.st0{fill:none;stroke:#FFFFFF;stroke-linecap:round;stroke-linejoin:round;stroke-miterlimit:10;}
	.st1{fill:none;stroke:#FFFFFF;stroke-width:0.9186;stroke-linecap:round;stroke-linejoin:round;stroke-miterlimit:9.1859;}
	.st2{fill:none;stroke:#FFFFFF;stroke-width:0.9778;stroke-linecap:round;stroke-linejoin:round;stroke-miterlimit:9.7784;}
</style>
<path id="path4400-7-6-7-02-9_2_" inkscape:connector-curvature="0" sodipodi:nodetypes="ccsc" class="st0" d="M162.1,128.7
	c1.1,0.3,2.5,1.2,2.5,3.4c0,1.8-0.7,2.6-1.6,3.1"/>
<path id="path4286_1_" inkscape:connector-curvature="0" class="st0" d="M157.3,126.7c2.6-0.4,5.2,1.4,5.7,4.1l0,0
	c0.4,2.4-1,4.7-3.1,5.5"/>
<path id="path4220_2_" inkscape:connector-curvature="0" class="st0" d="M37.1,160.7L31,179"/>
<path id="path4252" inkscape:connector-curvature="0" class="st0" d="M62.1,71.1c-12.2-28.6-31.2-48.2-50-70.6l0.1,1.6
	c18.6,22,36.7,42,48.5,69.7L62.1,71.1L62.1,71.1z"/>
<sodipodi:namedview  bordercolor="#666666" borderopacity="1.0" fit-margin-bottom="0" fit-margin-left="0.2" fit-margin-right="0" fit-margin-top="0" id="base" inkscape:current-layer="layer1" inkscape:cx="141.0762" inkscape:cy="160.69374" inkscape:document-units="px" inkscape:pageopacity="0.0" inkscape:pageshadow="2" inkscape:window-height="697" inkscape:window-maximized="1" inkscape:window-width="1280" inkscape:window-x="-8" inkscape:window-y="-8" inkscape:zoom="4" pagecolor="#ffffff" showgrid="false" showguides="false">
	</sodipodi:namedview>
<g id="g4174" transform="translate(-90.859083,52.184348)">
	<path id="path4176_2_" inkscape:connector-curvature="0" sodipodi:nodetypes="scccsccccccccs" class="st0" d="M219.6,12.2
		c-2.3-1.3-5-2-7.7-2c-8.4,0-15.4,6.8-17.4,15.9V26l-0.1,0.8c-0.3,1.5-0.4,3-0.4,4.5v0.2l0.6,38.8"/>
	<path id="path4178_5_" inkscape:connector-curvature="0" sodipodi:nodetypes="ccccscccccccc" class="st0" d="M236.5,56.6
		c-2-2.4-4.5-4.3-7.3-5.4c5-3.7,8.4-10.3,8.4-17.9c-0.5-10.6-7.5-20.9-17.8-21.1c-8.4,0-15.4,6.8-17.4,15.9c0,0,0-0.1-0.1-0.1
		l-0.1,0.8c-0.3,1.5-0.4,3-0.4,4.5v0.3l-2.9,32.3"/>
	<path id="path4178_3_" inkscape:connector-curvature="0" sodipodi:nodetypes="ccccscccccccc" class="st0" d="M240.7,74
		c0.3-1.3,0.4-2.7,0.4-4.2l-0.3-3.4c-0.1-0.4-0.2-0.9-0.2-1.3"/>
	<path id="path4178_1_" inkscape:connector-curvature="0" sodipodi:nodetypes="ccccscccccccc" class="st0" d="M205.1,93.6
		c5.9-1.3,13.4-3,18.1-4c5.6-1,10.6-3.8,14-8.1"/>
</g>
<path id="path4400-7-6-1_5_" inkscape:connector-curvature="0" sodipodi:nodetypes="cccccccccccccc" class="st0" d="M150,172
	l-2.9-7.3l0.4-4.1"/>
<path id="path4400-7-6-1_6_" inkscape:connector-curvature="0" sodipodi:nodetypes="cccccccccccccc" class="st0" d="M150.2,183.9
	l2.1-1.7l1-12.2l-1.3-1.3l-1.7,1.2"/>
<path id="path4400-7-6-1_2_" inkscape:connector-curvature="0" sodipodi:nodetypes="cccccccccccccc" class="st0" d="M145.4,161
	l-0.5,4.8l5,8.5"/>
<path id="path4400-7-6-1_4_" inkscape:connector-curvature="0" sodipodi:nodetypes="cccccccccccccc" class="st0" d="M145.4,161"/>
<path id="path4400-7-6-1_3_" inkscape:connector-curvature="0" sodipodi:nodetypes="cccccccccccccc" class="st0" d="M148.1,155
	l0.1-0.7l0.3-2.9l-2.3,0.7l-0.3,2.8"/>
<path id="path4400-7-6-7-0_2_" inkscape:connector-curvature="0" sodipodi:nodetypes="cccc" class="st0" d="M161.8,144.5l-5.6,10.9
	l-0.2,0.1l2.9-11.1"/>
<path id="path4400-7-6-7-0_1_" inkscape:connector-curvature="0" sodipodi:nodetypes="cccc" class="st0" d="M163,135.2l2.7,1.6
	l-1.5,2.8"/>
<path id="path4400-7-6-7-0" inkscape:connector-curvature="0" sodipodi:nodetypes="cccc" class="st0" d="M160.3,139.2l1-3.6"/>
<path id="path4400-7-6-7" inkscape:connector-curvature="0" sodipodi:nodetypes="ccccc" class="st0" d="M164.7,139.3l2.1,0.1v4.3
	l-2.2,1"/>
<path id="path4188_1_" inkscape:connector-curvature="0" class="st0" d="M155.9,155l-2.6-10.8"/>
<path id="path4400-7-6_2_" inkscape:connector-curvature="0" sodipodi:nodetypes="ccccccccccccccc" class="st0" d="M159.6,170.6
	l1.9-1.5l-0.2,3.3"/>
<path id="path4400-7-6_3_" inkscape:connector-curvature="0" sodipodi:nodetypes="ccccccccccccccc" class="st0" d="M163.3,144.7
	l6.1,4c3.3,0.5,4.2,3.8,2.5,6l-1.1,11.8l-9.6,12.2l-0.1,2.6l-1.1,1.5l-0.8,0.5"/>
<g id="g4190" transform="matrix(0.90478024,-0.15867388,0.15867388,0.90478024,-101.12999,127.81646)">
	<path id="path4192_2_" inkscape:connector-curvature="0" class="st1" d="M262.1,76l8.1,1.8"/>
	<path id="path4192_1_" inkscape:connector-curvature="0" class="st1" d="M259.7,75.5l2.4,0.5"/>
	<path id="path4192_5_" inkscape:connector-curvature="0" class="st1" d="M270,71.1l-9.5,1.6l-0.8,2.8"/>
	<path id="path4192_4_" inkscape:connector-curvature="0" class="st1" d="M261,94.6l0.5-2.3l1,1.6l-3.6,13.5l-1.2-1.9l1-3.6l-6-16.2
		l2.7-12.5c-0.2-3.8,1.7-5.1,4.7-4.6l9.5-3.1"/>
	<path id="path4192_3_" inkscape:connector-curvature="0" class="st1" d="M260.4,96.9l0.6-2.3"/>
	<path id="path4192" inkscape:connector-curvature="0" class="st1" d="M269.5,81.7l-11.3,0.2l-1.4,4.9l3.6,10.1"/>
	<path id="path4194_1_" inkscape:connector-curvature="0" class="st1" d="M269.6,81.7l9.9,5.5l-1.1,5l-8,7.2l1.2-4.6l-1.7,0.9
		l-3.1,13.4"/>
	<path id="path4194_2_" inkscape:connector-curvature="0" class="st1" d="M274.8,72.5l6.7,5.2l-1.3,2.3l-9.1-2.1"/>
	<path id="path4194" inkscape:connector-curvature="0" class="st1" d="M266.8,109.1v0.2l1.9-1.1l0.8-3.7L282.3,93l3.5-12.3
		c2-3.2,0.9-5.3-2-6.3l-5.9-6.1"/>
</g>
<path id="path4400-7-6-7-02-4_2_" inkscape:connector-curvature="0" sodipodi:nodetypes="ccccc" class="st0" d="M135.3,110.1
	l13.9-1.7"/>
<line id="rect4198_2_" class="st0" x1="151.9" y1="116.9" x2="139.4" y2="118.4"/>
<line id="rect4198" class="st0" x1="138.2" y1="111.3" x2="149" y2="110"/>
<g id="g4200" transform="translate(-93.659083,44.598348)">
	<path id="path4202_5_" inkscape:connector-curvature="0" sodipodi:nodetypes="cccccc" class="st0" d="M171.4,130.2l-5.8-6
		l-17.4-13.9"/>
	<path id="path4204_3_" inkscape:connector-curvature="0" class="st0" d="M162,100.7l5.3,4.2"/>
	<path id="path4204_1_" inkscape:connector-curvature="0" class="st0" d="M170,126.9l-3.7-4l-16.9-13.3"/>
</g>
<path id="path4214_1_" inkscape:connector-curvature="0" sodipodi:nodetypes="czcc" class="st0" d="M28.3,195.1
	c-0.8,0.8-2.1,1.3-3.9,1.3c-6,0-8.2-3.1-8.5-6.6"/>
<path id="path4220_1_" inkscape:connector-curvature="0" class="st0" d="M16.5,185.3l6.4-19.5"/>
<path id="path4220" inkscape:connector-curvature="0" class="st0" d="M35.5,161.4l-7,20.8"/>
<path id="path4222_3_" inkscape:connector-curvature="0" class="st0" d="M88.4,186.1c0.5-0.8,1-1.5,1.5-2.3"/>
<path id="path4222_1_" inkscape:connector-curvature="0" class="st0" d="M116.1,172.1c14.5,1.7,25.7,14.6,25.8,30.4l0,0
	c0,0.8,0,1.7-0.1,2.5"/>
<path id="path4224_2_" inkscape:connector-curvature="0" class="st0" d="M111.5,171.9c-1.3,1.5-2.8,2.8-4.5,4.1
	c-9.7,7.1-22.3,7.3-28.1,0.5l0,0c-4-4.7-3.8-11.6,0-17.8"/>
<path id="path4224_5_" inkscape:connector-curvature="0" class="st0" d="M111.5,171.9"/>
<path id="path4224_4_" inkscape:connector-curvature="0" class="st0" d="M115.1,152.3c1.2,2,1.8,4.3,1.8,6.7"/>
<path id="path4224_1_" inkscape:connector-curvature="0" class="st0" d="M88.9,149.3c0.7-0.4,1.4-0.8,2.1-1.1"/>
<path id="path4226_3_" inkscape:connector-curvature="0" class="st0" d="M109.4,168c-1.3,1.9-3,3.7-5.1,5.2
	c-8,5.9-18.4,6.1-23.2,0.4c-3-3.6-3.1-8.6-0.8-13.3"/>
<path id="path4244_1_" inkscape:connector-curvature="0" sodipodi:nodetypes="cccccccc" class="st0" d="M65.6,236.2l6.7,3.6"/>
<path id="path4244" inkscape:connector-curvature="0" sodipodi:nodetypes="cccccccc" class="st0" d="M120.5,256.4l8.5,1"/>
<path id="path4246_7_" inkscape:connector-curvature="0" class="st0" d="M72.4,247.9"/>
<path id="path4246_5_" inkscape:connector-curvature="0" class="st0" d="M72.6,260l-0.1-7.1"/>
<path id="path4246_3_" inkscape:connector-curvature="0" class="st0" d="M72.8,271.5l-0.1-7"/>
<path id="path4246_1_" inkscape:connector-curvature="0" class="st0" d="M72.9,283.6l-0.1-7.3"/>
<path id="path4246_6_" inkscape:connector-curvature="0" class="st0" d="M73.1,295l-0.1-6.9"/>
<path id="path4246_2_" inkscape:connector-curvature="0" class="st0" d="M84.3,299l-11,12.9l-0.2-12.4"/>
<path id="path4246_8_" inkscape:connector-curvature="0" class="st0" d="M84.3,299"/>
<path id="path4246_14_" inkscape:connector-curvature="0" class="st0" d="M94.5,287l-6.3,7.4"/>
<path id="path4246_12_" inkscape:connector-curvature="0" class="st0" d="M105,274.6l-6.4,7.5"/>
<path id="path4246_10_" inkscape:connector-curvature="0" class="st0" d="M115.5,262.3l-6.3,7.5"/>
<path id="path4246_4_" inkscape:connector-curvature="0" class="st0" d="M120.5,256.4l-1,1.2"/>
<path id="path4246" inkscape:connector-curvature="0" class="st0" d="M72.4,247.9l-0.1-10.7c18.8,3.3,30.4,7.4,49.8,17.3l-1.6,1.9"
	/>
<path id="path4248" inkscape:connector-curvature="0" sodipodi:nodetypes="cccccc" class="st0" d="M72.3,252.9l-5.8-3.3l0.5-1.5
	l37.8-1.7l9.5,4.3L72.3,252.9"/>
<path id="path4254_2_" inkscape:connector-curvature="0" sodipodi:nodetypes="ccccc" class="st0" d="M75.9,219.1"/>
<path id="path4254_1_" inkscape:connector-curvature="0" sodipodi:nodetypes="ccccc" class="st0" d="M77.5,202.1l4.2-12.1l5.2-4.2
	l-5.3,16.1"/>
<path id="path4254_4_" inkscape:connector-curvature="0" sodipodi:nodetypes="ccccc" class="st0" d="M77.5,202.1"/>
<path id="path4254" inkscape:connector-curvature="0" sodipodi:nodetypes="ccccc" class="st0" d="M75.9,219.1l-5.4,16.2l-4.9,0.9
	l5.9-17"/>
<path id="path4258_2_" inkscape:connector-curvature="0" sodipodi:nodetypes="ccccc" class="st0" d="M81.6,201.9l5.3-16.1l20.4,3.9
	l-5.3,15.8"/>
<path id="path4258_1_" inkscape:connector-curvature="0" sodipodi:nodetypes="ccccc" class="st0" d="M96.2,223l-5.8,17.2l-19.9-4.9
	l5.4-16.2"/>
<path id="path4260_3_" inkscape:connector-curvature="0" sodipodi:nodetypes="ccccc" class="st0" d="M129.8,215.7l5.3-15.9
	l-27.7-10.1l-5.3,15.8"/>
<path id="path4260_1_" inkscape:connector-curvature="0" sodipodi:nodetypes="ccccc" class="st0" d="M96.3,223l-5.8,17.3l27.7,10.5
	l5.6-17"/>
<path id="path4262_2_" inkscape:connector-curvature="0" sodipodi:nodetypes="ccccc" class="st0" d="M129.7,215.7"/>
<path id="path4262_1_" inkscape:connector-curvature="0" sodipodi:nodetypes="ccccc" class="st0" d="M134.6,240.9l-5.5,16.5l-11-6.7
	l5.6-17"/>
<path id="path4262_4_" inkscape:connector-curvature="0" sodipodi:nodetypes="ccccc" class="st0" d="M134.6,240.9"/>
<path id="path4262" inkscape:connector-curvature="0" sodipodi:nodetypes="ccccc" class="st0" d="M129.7,215.7l5.3-16l10.6,8.2
	l-5.7,17"/>
<path id="path4400-7-6-7-02" inkscape:connector-curvature="0" sodipodi:nodetypes="ccccc" class="st0" d="M165,116.3l-0.6,11
	l-1.2,1.7l0.7-11.7"/>
<path id="rect4278" class="st0" d="M153.2,125.3l0.5-7.1"/>
<polyline id="rect4280_1_" class="st0" points="156.2,139.4 164.6,139.7 164.6,144.6 153.3,144.3 "/>
<polyline id="rect4280" class="st0" points="153.3,144.3 148,144.1 148.1,139.2 149.3,139.2 "/>
<g id="g4282" transform="matrix(0.90478024,-0.15867388,0.15867388,0.90478024,-61.055079,113.78173)">
	<path id="path4284" inkscape:connector-curvature="0" class="st1" d="M232,55.3c1.5,1.8,1.6-0.6,2.5,1.5s-0.9,0.6-0.7,2.9
		c0.2,2.3,1.7,0.5,1.1,2.7c-0.5,2.2-1-0.1-2.2,1.9c-1.2,2,1.1,1.4-0.7,2.9s-0.8-0.7-2.9,0.2c-2.1,0.9,0,1.7-2.2,1.9
		c-2.3,0.2-0.3-1-2.5-1.6c-2.2-0.5-1,1.4-2.9,0.2c-2-1.2,0.4-1-1.1-2.7c-1.5-1.8-1.6,0.6-2.5-1.5c-0.9-2.1,0.9-0.6,0.7-2.9
		c-0.2-2.3-1.7-0.5-1.1-2.7c0.5-2.2,1,0.1,2.2-1.9c1.2-2-1.1-1.4,0.7-2.9s0.8,0.7,2.9-0.2c2.1-0.9,0-1.7,2.2-1.9
		c2.3-0.2,0.3,1,2.5,1.6c2.2,0.5,1-1.4,2.9-0.2C232.8,53.8,230.5,53.5,232,55.3L232,55.3z"/>
	<path id="path4286" inkscape:connector-curvature="0" class="st1" d="M230.4,60.3c0,2.4-1.9,4.3-4.3,4.3l0,0
		c-2.4,0-4.3-1.9-4.3-4.3l0,0c0-2.4,1.9-4.3,4.3-4.3l0,0C228.5,55.9,230.4,57.9,230.4,60.3L230.4,60.3z"/>
</g>
<g id="g4292" transform="matrix(0.96313857,-0.16890836,0.16890836,0.96313857,-155.31986,88.220911)">
	<path id="path4294" inkscape:connector-curvature="0" class="st2" d="M306,84.8c-2.1-1.7-3.5-4.3-3.5-7.3l0,0
		c0-5.2,4.2-9.4,9.4-9.4l0,0c5.2,0,9.4,4.2,9.4,9.4l0,0c0,5.2-4.2,9.4-9.4,9.4l0,0C309.6,86.9,307.6,86.1,306,84.8"/>
	<path id="path4296" inkscape:connector-curvature="0" class="st2" d="M316,77.6c0,2.4-1.9,4.3-4.3,4.3l0,0c-2.4,0-4.3-1.9-4.3-4.3
		l0,0c0-2.4,1.9-4.3,4.3-4.3l0,0C314.1,73.2,316,75.2,316,77.6L316,77.6z"/>
</g>
<path id="path4218-1" inkscape:connector-curvature="0" sodipodi:nodetypes="czccc" class="st0" d="M24.8,185.4
	c-2.8,0.2-5.7,0.2-8.5-0.1l0,0c-1,4-0.6,5.8,1.7,7.3c1.8,1.1,4.6,1,7.3,0.7"/>
<path id="path4304_1_" inkscape:connector-curvature="0" sodipodi:nodetypes="cccssccsccsccc" class="st0" d="M36,198.8
	c-0.5-0.3-0.2-1.1-2.2-1.3c-3.1-0.3-1.2,1.9-4,0.4c-2.8-1.4,0.1-1.1-2-3.5s-2.2,0.5-3.2-2.5s0.8-0.7,1.1-3.9c0.3-3.2-1.9-1.2-0.4-4
	c1.4-2.8,1.1,0.1,3.5-2s-0.5-2.2,2.5-3.2s0.8,0.8,3.9,1.1c0.3,0,0.5,0,0.8,0"/>
<path id="path4306" inkscape:connector-curvature="0" class="st0" d="M34.8,192.3c-0.3,0.1-0.6,0.1-0.8,0.1c-2.1,0.1-3.9-1.6-4-3.7
	c0-0.1,0-0.2,0-0.2c-0.1-2.1,1.6-3.9,3.7-4c0.5,0,1,0.1,1.5,0.2"/>
<path id="path4314_1_" inkscape:connector-curvature="0" sodipodi:nodetypes="cccccc" class="st0" d="M49.4,191.5l3-2.3h9.1
	l-0.1,2.7l-3.4,2.7"/>
<g id="g4316" transform="translate(32.786421,86.716148)">
	<path id="path4320_1_" inkscape:connector-curvature="0" sodipodi:nodetypes="cccccc" class="st0" d="M14.8,112.6l-1.6-9.5l1.6-8.2
		"/>
	<path id="path4322_2_" inkscape:connector-curvature="0" sodipodi:nodetypes="ccccc" class="st0" d="M13.8,120l5.3-2.8l6.1-8.9"/>
</g>
<polyline class="st0" points="35.1,192.9 37.2,206.7 42.1,206.7 44.8,206.7 46.5,206.7 46.6,206.7 55.2,194.7 58,194.7 58,194.6 "/>
<polyline class="st0" points="58,194.6 58,191.8 48.9,191.8 48.9,194.7 50.7,194.7 46.5,200.9 43.9,200.9 42.5,191.9 "/>
<path id="path4334" inkscape:connector-curvature="0" sodipodi:nodetypes="cccc" class="st0" d="M50.2,185.9h-1.6l1.3-0.9"/>
<path id="path4336_1_" inkscape:connector-curvature="0" sodipodi:nodetypes="cccccc" class="st0" d="M58.8,183.3h2.6v2.9l-3.5,2.6"
	/>
<path id="path4344" inkscape:connector-curvature="0" sodipodi:nodetypes="ccccc" class="st0" d="M40.6,171.2h9.7l-3.9,2.6l-9.5-0.1
	L40.6,171.2z"/>
<path id="path4346" inkscape:connector-curvature="0" class="st0" d="M46.2,173.8l4-2.5l8.6,12l-4,2.5L46.2,173.8z"/>
<path id="path4348_1_" inkscape:connector-curvature="0" class="st0" d="M42.3,187.8l1.3-8.2h2.6l4.2,6.2h-1.8v2.9h9v-2.9h-2.8
	l-8.6-12h-0.1h-1.7h-2.7c0.1,0-4.8,0-4.8,0l-2.1,13.5"/>
<g id="g4356" transform="matrix(0.86331,0,0,1,-44.439083,21.161648)">
	<path id="path4358" inkscape:connector-curvature="0" class="st0" d="M100.9,168.6c0,2.7-2.2,4.9-4.9,4.9l0,0
		c-2.7,0-4.9-2.2-4.9-4.9l0,0c0-2.7,2.2-4.9,4.9-4.9l0,0C98.7,163.7,100.9,165.9,100.9,168.6L100.9,168.6z"/>
	<path id="path4362" inkscape:connector-curvature="0" class="st0" d="M99.3,168.6c0,1.8-1.5,3.3-3.3,3.3l0,0
		c-1.8,0-3.3-1.5-3.3-3.3l0,0c0-1.8,1.5-3.3,3.3-3.3l0,0C97.8,165.4,99.3,166.8,99.3,168.6L99.3,168.6z"/>
</g>
<path id="path4372_2_" inkscape:connector-curvature="0" sodipodi:nodetypes="ccccc" class="st0" d="M79.8,159.7l-5.9-6.4"/>
<path id="path4372_3_" inkscape:connector-curvature="0" sodipodi:nodetypes="ccccc" class="st0" d="M83.3,163.5l-3.6-3.9"/>
<path id="path4372_1_" inkscape:connector-curvature="0" sodipodi:nodetypes="ccccc" class="st0" d="M85.4,145.2l7.1,8.3"/>
<path id="path4378_1_" inkscape:connector-curvature="0" sodipodi:nodetypes="cscsc" class="st0" d="M79.2,144
	c3.7-1.1,6.7,0.3,6.8,3.1l0,0c0.2,2.8-2.7,6-6.4,7.1c-3.7,1.1-6.2,0.1-6.3-2.7c-0.1-1.5,0.5-3.2,1.7-4.7"/>
<path id="path4382_3_" inkscape:connector-curvature="0" sodipodi:nodetypes="ccccc" class="st0" d="M79.3,177
	c8.5,6.4,23.8,3.2,31.4-6.6"/>
<path id="path4382_4_" inkscape:connector-curvature="0" sodipodi:nodetypes="ccccc" class="st0" d="M119,164.3
	c-1.6,13.9-21.2,24.1-33.4,18.1l-6.3-5.4"/>
<path id="path4382_1_" inkscape:connector-curvature="0" sodipodi:nodetypes="ccccc" class="st0" d="M116,154.2l2.7,5
	c0.3,1.3,0.4,2.5,0.4,3.8"/>
<path id="path4414_3_" inkscape:connector-curvature="0" sodipodi:nodetypes="ccccc" class="st0" d="M86.2,203.4
	c1.2,0.2,2.6,0.4,3.9,0.6"/>
<path id="path4414_1_" inkscape:connector-curvature="0" sodipodi:nodetypes="ccccc" class="st0" d="M133.6,240
	c-12.1-10-48.5-23.2-62-20.8"/>
<path id="path4414_4_" inkscape:connector-curvature="0" sodipodi:nodetypes="ccccc" class="st0" d="M137.5,222.3
	c1,0.9,1.8,1.8,2.4,2.6"/>
<path id="path4414_2_" inkscape:connector-curvature="0" sodipodi:nodetypes="ccccc" class="st0" d="M123.8,214.4
	c1.2,0.5,2.4,1.1,3.5,1.6"/>
<path id="path4414" inkscape:connector-curvature="0" sodipodi:nodetypes="ccccc" class="st0" d="M104.1,207.3
	c1.8,0.5,3.6,1.1,5.4,1.7"/>
<path id="path4426_1_" inkscape:connector-curvature="0" sodipodi:nodetypes="ccccccc" class="st0" d="M103.1,205.7l1,1.6l-5.6,16.2
	l-13.1-3.4l-0.5-1.5"/>
<path id="path4430" inkscape:connector-curvature="0" sodipodi:nodetypes="ccccc" class="st0" d="M85,218.6l5.5-15.6l12.6,2.7
	l-5.5,16L85,218.6"/>
<path id="path4432_2_" inkscape:connector-curvature="0" sodipodi:nodetypes="ccccccc" class="st0" d="M71.6,219.3l-0.7-1.5"/>
<path id="path4432_1_" inkscape:connector-curvature="0" sodipodi:nodetypes="ccccccc" class="st0" d="M75.9,219.1
	c-1.4,0-2.8,0-4.3,0.2"/>
<path id="path4432" inkscape:connector-curvature="0" sodipodi:nodetypes="ccccccc" class="st0" d="M85.4,201.9l1,1.6l-6.2,15.8
	c-1.5-0.1-2.9-0.2-4.3-0.2"/>
<path id="path4458" inkscape:connector-curvature="0" class="st0" d="M92.5,153.5c0.2-0.5,0.3-0.9,2-0.3c3.2,1.2-0.1,1.5,2.4,3.8
	l0,0c2.6,2.2,2.5-1.1,4.1,1.8c1.6,2.9-1.3,0.8-0.9,4s2.8,1.1,1.9,4c-0.8,2.9-1.6-0.4-3.6,1.9s1.4,2.6-1.4,3.8s-1-1.4-4.2-1.4
	s-0.7,2.6-3.9,1.4c-3.1-1.2,0.2-1.6-2.4-3.8s-2.5,1.1-4.1-1.8c-1.6-2.9,1.3-0.8,0.9-4s-2.8-1-1.9-4c0.8-3,1.6,0.4,3.6-1.9
	s-1.4-2.6,1.4-3.8s1,1.4,4.2,1.4C92.1,154.6,92.4,154,92.5,153.5"/>
<path id="path4460" inkscape:connector-curvature="0" class="st0" d="M96.9,162.5c0.6,2.8-1.2,5.2-3.9,5.4c-2.8,0.2-5.5-1.8-6-4.6
	l0,0c-0.6-2.8,1.2-5.2,3.9-5.4C93.6,157.7,96.3,159.7,96.9,162.5z"/>
<path id="path4426-1-3" inkscape:connector-curvature="0" sodipodi:nodetypes="ccccccc" class="st0" d="M111.3,208l-1.8,1.1l-6.1,16
	l13,5.2l1.8-0.8"/>
<path id="path4422-0" inkscape:connector-curvature="0" sodipodi:nodetypes="ccccc" class="st0" d="M111.2,208.1l12.9,5.4l-6,16
	l-12.8-5.2L111.2,208.1z"/>
<path id="path4426-1-3-7_1_" inkscape:connector-curvature="0" sodipodi:nodetypes="ccccccc" class="st0" d="M129.4,215.7l-2.1,0.4
	l-6.4,16.3l9.7,5.4l1.7-0.7"/>
<path id="path4418" inkscape:connector-curvature="0" sodipodi:nodetypes="ccccc" class="st0" d="M129.4,215.7l8.4,5.9l-5.5,15.6
	l-9.4-5.4L129.4,215.7z"/>
<path id="path4430-4" inkscape:connector-curvature="0" sodipodi:nodetypes="ccccc" class="st0" d="M76.8,202.1l8.6-0.2l-6.1,15.9
	l-8.4-0.2L76.8,202.1z"/>
<path id="path4426-9" inkscape:connector-curvature="0" sodipodi:nodetypes="ccccccc" class="st0" d="M139.6,224.5l1.7,0.1
	l-5.4,16.1c0,0.4-0.5,0.7-1.5,0.7l0.2-0.5l-1-0.9L139.6,224.5z"/>
<path id="path4248-0_1_" inkscape:connector-curvature="0" sodipodi:nodetypes="ccccccc" class="st0" d="M72.8,264.5l-5.8-2.8
	l0.7-1.5l4.9-0.2"/>
<path id="path4248-0" inkscape:connector-curvature="0" sodipodi:nodetypes="ccccccc" class="st0" d="M72.6,260l46.9-2.4l4.3,2.9
	l-0.7,1.4l-50.3,2.6"/>
<path id="path4248-0-1_1_" inkscape:connector-curvature="0" sodipodi:nodetypes="ccccccc" class="st0" d="M72.9,276.3l-5.9-3.2
	l0.7-1.4l5.1-0.2"/>
<path id="path4248-0-1" inkscape:connector-curvature="0" sodipodi:nodetypes="ccccccc" class="st0" d="M72.8,271.5l36.4-1.7l4.3,3
	l-0.6,1.4l-40,2.1"/>
<path id="path4248-0-1-3_1_" inkscape:connector-curvature="0" sodipodi:nodetypes="ccccccc" class="st0" d="M72.9,288.1l-5.3-2.8
	l0.6-1.5l4.7-0.2"/>
<path id="path4248-0-1-3" inkscape:connector-curvature="0" sodipodi:nodetypes="ccccccc" class="st0" d="M72.9,283.6l25.8-1.4l4,3
	l-0.6,1.4l-29.2,1.5"/>
<path id="path4248-0-1-3-2" inkscape:connector-curvature="0" sodipodi:nodetypes="ccccccc" class="st0" d="M88.1,294.3l4.1,3
	l-0.6,1.4l-18.5,0.8l-4.9-2.8l0.6-1.5L88.1,294.3z"/>
<path id="path4400" inkscape:connector-curvature="0" sodipodi:nodetypes="ccccc" class="st0" d="M119,122.8l-18.5,6l5-9.8l9.9-3.6"
	/>
<path id="path4392_1_" inkscape:connector-curvature="0" class="st0" d="M107.1,163.5h1.8l4.5,8.7h-1.8L107.1,163.5z"/>
<path class="st0" d="M110.7,125.9"/>
<path id="path4228_2_" inkscape:connector-curvature="0" class="st0" d="M102.3,150.8l3.2,4"/>
<path id="path4228" inkscape:connector-curvature="0" class="st0" d="M106,159.7l-6.3-7.9"/>
<g id="g4230" transform="translate(-229.64347,-16.351332)">
	<path id="path4232_1_" inkscape:connector-curvature="0" class="st0" d="M324.7,158c0.5-0.6-0.5-0.9,0.9-1.4
		c1.6-0.7,0.2,0.8,1.9,0.5c1.7-0.3,0.4-1.3,2-1.2s-0.3,0.9,1.1,1.4c1.2,0.4,1.1-0.7,1.7-0.4"/>
	<path id="path4232_3_" inkscape:connector-curvature="0" class="st0" d="M323.8,169.4c-0.1-0.1-0.2-0.2-0.5-0.3
		c-1.4-0.5-1,1.1-2.1,0.2c-1.1-0.9,0.7-0.8,0-2s-1.3,0.6-1.6-0.9c-0.3-1.5,0.9-0.4,1-2s-1.3-0.1-0.7-1.7c0.6-1.6,0.9,0,1.8-1.5
		c1-1.5-0.9-0.7,0.4-2.1"/>
	<path id="path4232" inkscape:connector-curvature="0" class="st0" d="M333.8,164.1c-0.5,0.8-0.8-0.3-1.6,1.1
		c-1,1.5,0.9,0.7-0.4,2.1c-1.3,1.3-0.6-0.5-2.1,0.6c-1.5,1,0.3,1.2-1.4,1.9c-1.6,0.7-0.2-0.8-1.9-0.5c-0.9,0.1-1,0.5-1,0.8"/>
	<path id="path4234_1_" inkscape:connector-curvature="0" class="st0" d="M326.7,160.7c0.2,0,0.4-0.1,0.6-0.1l0,0
		c1.3,0,2.1,1,1.7,2.3l0,0c-0.3,1.3-1.7,2.3-3,2.3l0,0c-1.3,0-2.1-1-1.7-2.3l0,0c0.1-0.2,0.2-0.5,0.3-0.7"/>
</g>
<path id="path4238_2_" inkscape:connector-curvature="0" sodipodi:nodetypes="ccccc" class="st0" d="M86.4,130.4l11.9,15.5
	c-0.1,1-0.8,1.6-2.1,1.6l-3.7-4.8"/>
<path id="path4238" inkscape:connector-curvature="0" sodipodi:nodetypes="ccccc" class="st0" d="M92.5,142.7l-8.1-10.5"/>
<path id="path4444" inkscape:connector-curvature="0" class="st0" d="M100.2,98.2c0.6,5.1,0.8,10-0.6,15.3
	c-1.1,8.6-16.8,20-37.3,36.7c-5.9,4.8-13.4,6.8-18.9,6.7"/>
<path id="path4446_1_" inkscape:connector-curvature="0" class="st0" d="M51.5,74.5c-12.6-4.8-16-2.5-28.4,10.4
	c-6.2,7.4-12.5,10.5-7.6,23.7"/>
<path id="path4448_3_" inkscape:connector-curvature="0" sodipodi:nodetypes="ccccc" class="st0" d="M60.2,70.7
	c-0.9,0.2-1.8,0.5-2.6,0.8c-25,10.4-58.9,50.6-57,76.9c0.8,9.7,3.4,16.7,13.1,17.9c27.8,2.8,62.9-36.8,80.7-56.2l0,0
	C110.6,92,90.5,71.7,70.1,70"/>
<path id="path4448_1_" inkscape:connector-curvature="0" sodipodi:nodetypes="ccccc" class="st0" d="M68.5,69.9
	c-2.3-0.1-4.5,0.1-6.7,0.5"/>
<path id="path4452" inkscape:connector-curvature="0" class="st0" d="M54.3,82.2c12.2-8.7,27.6-2.3,27.4,13c0.3,3.7-1.5,6.3-3.6,9.2
	c-6.1,8.3-15.9,16.3-25.8,18.3c-5.1,1.3-10-0.4-14.2-3.4c-2.7-2.3-3.6-5.5-2.6-11.1C38.6,98.6,45.4,88.7,54.3,82.2L54.3,82.2z"/>
<polygon class="st0" points="119.4,163.7 115.8,157 111.5,126.8 103,129.5 108.9,163.5 113.4,172.1 "/>
<polyline class="st0" points="120.1,124.1 103,129.5 108.9,163.5 107.1,163.5 100.6,128.8 119,122.8 "/>
<path id="path4456" inkscape:connector-curvature="0" class="st0" d="M71.4,73.6c-10.5-28.3-17-47.4-36.3-69.8l0.2,1.8
	c18.8,22.8,24,39.8,34.6,68.2C70.6,74.7,71,74.2,71.4,73.6L71.4,73.6z"/>
<path id="path4470" inkscape:connector-curvature="0" class="st0" d="M135.3,110.2c1.7,2,1.9-0.9,3.1,1.5c1.1,2.4-1.3,0.7-0.8,3.3
	s2.1,0.2,1.9,2.8c-0.2,2.6-1.5,0-2.4,2.4c-0.9,2.5,1.8,1.2,0.3,3.4c-1.5,2.2-1.2-0.8-3.3,0.9c-2,1.7,0.9,1.9-1.5,3s-0.7-1.3-3.3-0.8
	s-0.2,2.1-2.8,1.9c-2.6-0.2,0-1.5-2.5-2.3c-2.5-0.9-1.2,1.8-3.4,0.3c-2.2-1.5,0.8-1.2-1-3.2c-1.7-2-1.9,0.9-3.1-1.5
	c-1.1-2.4,1.3-0.7,0.8-3.3c-0.5-2.6-2.1-0.2-1.9-2.8c0.2-2.6,1.5,0,2.4-2.4c0.9-2.5-1.8-1.2-0.3-3.4c1.5-2.2,1.2,0.8,3.3-0.9
	c2-1.7-0.9-1.9,1.5-3c2.4-1.1,0.7,1.3,3.3,0.8s0.2-2.1,2.8-1.9s0,1.5,2.5,2.3c2.5,0.9,1.2-1.8,3.4-0.3S133.6,108.2,135.3,110.2
	L135.3,110.2z"/>
<path id="path4472" inkscape:connector-curvature="0" class="st0" d="M133.3,116.8c0,3.2-2.6,5.7-5.8,5.7l0,0
	c-3.2,0-5.8-2.6-5.8-5.7l0,0c0-3.2,2.6-5.7,5.8-5.7l0,0C130.7,111.1,133.3,113.6,133.3,116.8L133.3,116.8z"/>
<path id="path4380_1_" inkscape:connector-curvature="0" class="st0" d="M75.5,139.5l6.1,7.7c-0.2,1.8-1.5,2.9-3.8,3l-6-7.6"/>
<path id="path4418-5" inkscape:connector-curvature="0" sodipodi:nodetypes="ccccc" class="st0" d="M141.3,224.6l0.1,1.9l-5.5,14.3
	l-0.7-0.7L141.3,224.6z"/>
</svg>
