%TF.GenerationSoftware,KiCad,Pcbnew,9.0.0*%
%TF.CreationDate,2025-03-09T21:01:43-04:00*%
%TF.ProjectId,RobocupSwinderPCB,526f626f-6375-4705-9377-696e64657250,1*%
%TF.SameCoordinates,Original*%
%TF.FileFunction,Legend,Top*%
%TF.FilePolarity,Positive*%
%FSLAX46Y46*%
G04 Gerber Fmt 4.6, Leading zero omitted, Abs format (unit mm)*
G04 Created by KiCad (PCBNEW 9.0.0) date 2025-03-09 21:01:43*
%MOMM*%
%LPD*%
G01*
G04 APERTURE LIST*
%ADD10C,0.150000*%
%ADD11C,0.120000*%
%ADD12C,0.100000*%
%ADD13C,0.127000*%
%ADD14C,0.200000*%
%ADD15C,0.000000*%
G04 APERTURE END LIST*
D10*
X91787500Y-86800000D02*
X93437500Y-86800000D01*
X94037500Y-86800000D02*
X95687500Y-86800000D01*
X96287500Y-86800000D02*
X97937500Y-86800000D01*
X98537500Y-86800000D02*
X100187500Y-86800000D01*
X100787500Y-86800000D02*
X102437500Y-86800000D01*
X103037500Y-86800000D02*
X104687500Y-86800000D01*
X105287500Y-86800000D02*
X105387500Y-86800000D01*
X105387500Y-86800000D02*
X105387500Y-88450000D01*
X105387500Y-89050000D02*
X105387500Y-90700000D01*
X105387500Y-91300000D02*
X105387500Y-92950000D01*
X105387500Y-93550000D02*
X105387500Y-94800000D01*
X105387500Y-94800000D02*
X103737500Y-94800000D01*
X103137500Y-94800000D02*
X101487500Y-94800000D01*
X100887500Y-94800000D02*
X99237500Y-94800000D01*
X98637500Y-94800000D02*
X96987500Y-94800000D01*
X96387500Y-94800000D02*
X94737500Y-94800000D01*
X94137500Y-94800000D02*
X92487500Y-94800000D01*
X91887500Y-94800000D02*
X91787500Y-94800000D01*
X91787500Y-94800000D02*
X91787500Y-93150000D01*
X91787500Y-92550000D02*
X91787500Y-90900000D01*
X91787500Y-90300000D02*
X91787500Y-88650000D01*
X91787500Y-88050000D02*
X91787500Y-86800000D01*
X91658207Y-108119819D02*
X91324874Y-107643628D01*
X91086779Y-108119819D02*
X91086779Y-107119819D01*
X91086779Y-107119819D02*
X91467731Y-107119819D01*
X91467731Y-107119819D02*
X91562969Y-107167438D01*
X91562969Y-107167438D02*
X91610588Y-107215057D01*
X91610588Y-107215057D02*
X91658207Y-107310295D01*
X91658207Y-107310295D02*
X91658207Y-107453152D01*
X91658207Y-107453152D02*
X91610588Y-107548390D01*
X91610588Y-107548390D02*
X91562969Y-107596009D01*
X91562969Y-107596009D02*
X91467731Y-107643628D01*
X91467731Y-107643628D02*
X91086779Y-107643628D01*
X92229636Y-108119819D02*
X92134398Y-108072200D01*
X92134398Y-108072200D02*
X92086779Y-108024580D01*
X92086779Y-108024580D02*
X92039160Y-107929342D01*
X92039160Y-107929342D02*
X92039160Y-107643628D01*
X92039160Y-107643628D02*
X92086779Y-107548390D01*
X92086779Y-107548390D02*
X92134398Y-107500771D01*
X92134398Y-107500771D02*
X92229636Y-107453152D01*
X92229636Y-107453152D02*
X92372493Y-107453152D01*
X92372493Y-107453152D02*
X92467731Y-107500771D01*
X92467731Y-107500771D02*
X92515350Y-107548390D01*
X92515350Y-107548390D02*
X92562969Y-107643628D01*
X92562969Y-107643628D02*
X92562969Y-107929342D01*
X92562969Y-107929342D02*
X92515350Y-108024580D01*
X92515350Y-108024580D02*
X92467731Y-108072200D01*
X92467731Y-108072200D02*
X92372493Y-108119819D01*
X92372493Y-108119819D02*
X92229636Y-108119819D01*
X92991541Y-108119819D02*
X92991541Y-107119819D01*
X92991541Y-107500771D02*
X93086779Y-107453152D01*
X93086779Y-107453152D02*
X93277255Y-107453152D01*
X93277255Y-107453152D02*
X93372493Y-107500771D01*
X93372493Y-107500771D02*
X93420112Y-107548390D01*
X93420112Y-107548390D02*
X93467731Y-107643628D01*
X93467731Y-107643628D02*
X93467731Y-107929342D01*
X93467731Y-107929342D02*
X93420112Y-108024580D01*
X93420112Y-108024580D02*
X93372493Y-108072200D01*
X93372493Y-108072200D02*
X93277255Y-108119819D01*
X93277255Y-108119819D02*
X93086779Y-108119819D01*
X93086779Y-108119819D02*
X92991541Y-108072200D01*
X94039160Y-108119819D02*
X93943922Y-108072200D01*
X93943922Y-108072200D02*
X93896303Y-108024580D01*
X93896303Y-108024580D02*
X93848684Y-107929342D01*
X93848684Y-107929342D02*
X93848684Y-107643628D01*
X93848684Y-107643628D02*
X93896303Y-107548390D01*
X93896303Y-107548390D02*
X93943922Y-107500771D01*
X93943922Y-107500771D02*
X94039160Y-107453152D01*
X94039160Y-107453152D02*
X94182017Y-107453152D01*
X94182017Y-107453152D02*
X94277255Y-107500771D01*
X94277255Y-107500771D02*
X94324874Y-107548390D01*
X94324874Y-107548390D02*
X94372493Y-107643628D01*
X94372493Y-107643628D02*
X94372493Y-107929342D01*
X94372493Y-107929342D02*
X94324874Y-108024580D01*
X94324874Y-108024580D02*
X94277255Y-108072200D01*
X94277255Y-108072200D02*
X94182017Y-108119819D01*
X94182017Y-108119819D02*
X94039160Y-108119819D01*
X94801065Y-107453152D02*
X94801065Y-108310295D01*
X94801065Y-108310295D02*
X94753446Y-108405533D01*
X94753446Y-108405533D02*
X94658208Y-108453152D01*
X94658208Y-108453152D02*
X94610589Y-108453152D01*
X94801065Y-107119819D02*
X94753446Y-107167438D01*
X94753446Y-107167438D02*
X94801065Y-107215057D01*
X94801065Y-107215057D02*
X94848684Y-107167438D01*
X94848684Y-107167438D02*
X94801065Y-107119819D01*
X94801065Y-107119819D02*
X94801065Y-107215057D01*
X95705826Y-108119819D02*
X95705826Y-107596009D01*
X95705826Y-107596009D02*
X95658207Y-107500771D01*
X95658207Y-107500771D02*
X95562969Y-107453152D01*
X95562969Y-107453152D02*
X95372493Y-107453152D01*
X95372493Y-107453152D02*
X95277255Y-107500771D01*
X95705826Y-108072200D02*
X95610588Y-108119819D01*
X95610588Y-108119819D02*
X95372493Y-108119819D01*
X95372493Y-108119819D02*
X95277255Y-108072200D01*
X95277255Y-108072200D02*
X95229636Y-107976961D01*
X95229636Y-107976961D02*
X95229636Y-107881723D01*
X95229636Y-107881723D02*
X95277255Y-107786485D01*
X95277255Y-107786485D02*
X95372493Y-107738866D01*
X95372493Y-107738866D02*
X95610588Y-107738866D01*
X95610588Y-107738866D02*
X95705826Y-107691247D01*
X96610588Y-108072200D02*
X96515350Y-108119819D01*
X96515350Y-108119819D02*
X96324874Y-108119819D01*
X96324874Y-108119819D02*
X96229636Y-108072200D01*
X96229636Y-108072200D02*
X96182017Y-108024580D01*
X96182017Y-108024580D02*
X96134398Y-107929342D01*
X96134398Y-107929342D02*
X96134398Y-107643628D01*
X96134398Y-107643628D02*
X96182017Y-107548390D01*
X96182017Y-107548390D02*
X96229636Y-107500771D01*
X96229636Y-107500771D02*
X96324874Y-107453152D01*
X96324874Y-107453152D02*
X96515350Y-107453152D01*
X96515350Y-107453152D02*
X96610588Y-107500771D01*
X97039160Y-108119819D02*
X97039160Y-107119819D01*
X97134398Y-107738866D02*
X97420112Y-108119819D01*
X97420112Y-107453152D02*
X97039160Y-107834104D01*
X98229636Y-108072200D02*
X98134398Y-108119819D01*
X98134398Y-108119819D02*
X97943922Y-108119819D01*
X97943922Y-108119819D02*
X97848684Y-108072200D01*
X97848684Y-108072200D02*
X97801065Y-107976961D01*
X97801065Y-107976961D02*
X97801065Y-107596009D01*
X97801065Y-107596009D02*
X97848684Y-107500771D01*
X97848684Y-107500771D02*
X97943922Y-107453152D01*
X97943922Y-107453152D02*
X98134398Y-107453152D01*
X98134398Y-107453152D02*
X98229636Y-107500771D01*
X98229636Y-107500771D02*
X98277255Y-107596009D01*
X98277255Y-107596009D02*
X98277255Y-107691247D01*
X98277255Y-107691247D02*
X97801065Y-107786485D01*
X98562970Y-107453152D02*
X98943922Y-107453152D01*
X98705827Y-107119819D02*
X98705827Y-107976961D01*
X98705827Y-107976961D02*
X98753446Y-108072200D01*
X98753446Y-108072200D02*
X98848684Y-108119819D01*
X98848684Y-108119819D02*
X98943922Y-108119819D01*
X99229637Y-108072200D02*
X99324875Y-108119819D01*
X99324875Y-108119819D02*
X99515351Y-108119819D01*
X99515351Y-108119819D02*
X99610589Y-108072200D01*
X99610589Y-108072200D02*
X99658208Y-107976961D01*
X99658208Y-107976961D02*
X99658208Y-107929342D01*
X99658208Y-107929342D02*
X99610589Y-107834104D01*
X99610589Y-107834104D02*
X99515351Y-107786485D01*
X99515351Y-107786485D02*
X99372494Y-107786485D01*
X99372494Y-107786485D02*
X99277256Y-107738866D01*
X99277256Y-107738866D02*
X99229637Y-107643628D01*
X99229637Y-107643628D02*
X99229637Y-107596009D01*
X99229637Y-107596009D02*
X99277256Y-107500771D01*
X99277256Y-107500771D02*
X99372494Y-107453152D01*
X99372494Y-107453152D02*
X99515351Y-107453152D01*
X99515351Y-107453152D02*
X99610589Y-107500771D01*
X91001064Y-109318245D02*
X91115350Y-109356340D01*
X91115350Y-109356340D02*
X91305826Y-109356340D01*
X91305826Y-109356340D02*
X91382017Y-109318245D01*
X91382017Y-109318245D02*
X91420112Y-109280149D01*
X91420112Y-109280149D02*
X91458207Y-109203959D01*
X91458207Y-109203959D02*
X91458207Y-109127768D01*
X91458207Y-109127768D02*
X91420112Y-109051578D01*
X91420112Y-109051578D02*
X91382017Y-109013483D01*
X91382017Y-109013483D02*
X91305826Y-108975387D01*
X91305826Y-108975387D02*
X91153445Y-108937292D01*
X91153445Y-108937292D02*
X91077255Y-108899197D01*
X91077255Y-108899197D02*
X91039160Y-108861102D01*
X91039160Y-108861102D02*
X91001064Y-108784911D01*
X91001064Y-108784911D02*
X91001064Y-108708721D01*
X91001064Y-108708721D02*
X91039160Y-108632530D01*
X91039160Y-108632530D02*
X91077255Y-108594435D01*
X91077255Y-108594435D02*
X91153445Y-108556340D01*
X91153445Y-108556340D02*
X91343922Y-108556340D01*
X91343922Y-108556340D02*
X91458207Y-108594435D01*
X91724874Y-108823006D02*
X91877255Y-109356340D01*
X91877255Y-109356340D02*
X92029636Y-108975387D01*
X92029636Y-108975387D02*
X92182017Y-109356340D01*
X92182017Y-109356340D02*
X92334398Y-108823006D01*
X92639160Y-109356340D02*
X92639160Y-108823006D01*
X92639160Y-108556340D02*
X92601064Y-108594435D01*
X92601064Y-108594435D02*
X92639160Y-108632530D01*
X92639160Y-108632530D02*
X92677255Y-108594435D01*
X92677255Y-108594435D02*
X92639160Y-108556340D01*
X92639160Y-108556340D02*
X92639160Y-108632530D01*
X93020112Y-108823006D02*
X93020112Y-109356340D01*
X93020112Y-108899197D02*
X93058207Y-108861102D01*
X93058207Y-108861102D02*
X93134397Y-108823006D01*
X93134397Y-108823006D02*
X93248683Y-108823006D01*
X93248683Y-108823006D02*
X93324874Y-108861102D01*
X93324874Y-108861102D02*
X93362969Y-108937292D01*
X93362969Y-108937292D02*
X93362969Y-109356340D01*
X94086779Y-109356340D02*
X94086779Y-108556340D01*
X94086779Y-109318245D02*
X94010588Y-109356340D01*
X94010588Y-109356340D02*
X93858207Y-109356340D01*
X93858207Y-109356340D02*
X93782017Y-109318245D01*
X93782017Y-109318245D02*
X93743922Y-109280149D01*
X93743922Y-109280149D02*
X93705826Y-109203959D01*
X93705826Y-109203959D02*
X93705826Y-108975387D01*
X93705826Y-108975387D02*
X93743922Y-108899197D01*
X93743922Y-108899197D02*
X93782017Y-108861102D01*
X93782017Y-108861102D02*
X93858207Y-108823006D01*
X93858207Y-108823006D02*
X94010588Y-108823006D01*
X94010588Y-108823006D02*
X94086779Y-108861102D01*
X94772494Y-109318245D02*
X94696303Y-109356340D01*
X94696303Y-109356340D02*
X94543922Y-109356340D01*
X94543922Y-109356340D02*
X94467732Y-109318245D01*
X94467732Y-109318245D02*
X94429636Y-109242054D01*
X94429636Y-109242054D02*
X94429636Y-108937292D01*
X94429636Y-108937292D02*
X94467732Y-108861102D01*
X94467732Y-108861102D02*
X94543922Y-108823006D01*
X94543922Y-108823006D02*
X94696303Y-108823006D01*
X94696303Y-108823006D02*
X94772494Y-108861102D01*
X94772494Y-108861102D02*
X94810589Y-108937292D01*
X94810589Y-108937292D02*
X94810589Y-109013483D01*
X94810589Y-109013483D02*
X94429636Y-109089673D01*
X95153446Y-109356340D02*
X95153446Y-108823006D01*
X95153446Y-108975387D02*
X95191541Y-108899197D01*
X95191541Y-108899197D02*
X95229636Y-108861102D01*
X95229636Y-108861102D02*
X95305827Y-108823006D01*
X95305827Y-108823006D02*
X95382017Y-108823006D01*
X96143922Y-108556340D02*
X96601065Y-108556340D01*
X96372493Y-109356340D02*
X96372493Y-108556340D01*
X97172494Y-109318245D02*
X97096303Y-109356340D01*
X97096303Y-109356340D02*
X96943922Y-109356340D01*
X96943922Y-109356340D02*
X96867732Y-109318245D01*
X96867732Y-109318245D02*
X96829636Y-109242054D01*
X96829636Y-109242054D02*
X96829636Y-108937292D01*
X96829636Y-108937292D02*
X96867732Y-108861102D01*
X96867732Y-108861102D02*
X96943922Y-108823006D01*
X96943922Y-108823006D02*
X97096303Y-108823006D01*
X97096303Y-108823006D02*
X97172494Y-108861102D01*
X97172494Y-108861102D02*
X97210589Y-108937292D01*
X97210589Y-108937292D02*
X97210589Y-109013483D01*
X97210589Y-109013483D02*
X96829636Y-109089673D01*
X97896303Y-109356340D02*
X97896303Y-108937292D01*
X97896303Y-108937292D02*
X97858208Y-108861102D01*
X97858208Y-108861102D02*
X97782017Y-108823006D01*
X97782017Y-108823006D02*
X97629636Y-108823006D01*
X97629636Y-108823006D02*
X97553446Y-108861102D01*
X97896303Y-109318245D02*
X97820112Y-109356340D01*
X97820112Y-109356340D02*
X97629636Y-109356340D01*
X97629636Y-109356340D02*
X97553446Y-109318245D01*
X97553446Y-109318245D02*
X97515350Y-109242054D01*
X97515350Y-109242054D02*
X97515350Y-109165864D01*
X97515350Y-109165864D02*
X97553446Y-109089673D01*
X97553446Y-109089673D02*
X97629636Y-109051578D01*
X97629636Y-109051578D02*
X97820112Y-109051578D01*
X97820112Y-109051578D02*
X97896303Y-109013483D01*
X98277256Y-109356340D02*
X98277256Y-108823006D01*
X98277256Y-108899197D02*
X98315351Y-108861102D01*
X98315351Y-108861102D02*
X98391541Y-108823006D01*
X98391541Y-108823006D02*
X98505827Y-108823006D01*
X98505827Y-108823006D02*
X98582018Y-108861102D01*
X98582018Y-108861102D02*
X98620113Y-108937292D01*
X98620113Y-108937292D02*
X98620113Y-109356340D01*
X98620113Y-108937292D02*
X98658208Y-108861102D01*
X98658208Y-108861102D02*
X98734399Y-108823006D01*
X98734399Y-108823006D02*
X98848684Y-108823006D01*
X98848684Y-108823006D02*
X98924875Y-108861102D01*
X98924875Y-108861102D02*
X98962970Y-108937292D01*
X98962970Y-108937292D02*
X98962970Y-109356340D01*
X91001064Y-109920485D02*
X91039160Y-109882390D01*
X91039160Y-109882390D02*
X91115350Y-109844295D01*
X91115350Y-109844295D02*
X91305826Y-109844295D01*
X91305826Y-109844295D02*
X91382017Y-109882390D01*
X91382017Y-109882390D02*
X91420112Y-109920485D01*
X91420112Y-109920485D02*
X91458207Y-109996676D01*
X91458207Y-109996676D02*
X91458207Y-110072866D01*
X91458207Y-110072866D02*
X91420112Y-110187152D01*
X91420112Y-110187152D02*
X90962969Y-110644295D01*
X90962969Y-110644295D02*
X91458207Y-110644295D01*
X91953446Y-109844295D02*
X92029636Y-109844295D01*
X92029636Y-109844295D02*
X92105827Y-109882390D01*
X92105827Y-109882390D02*
X92143922Y-109920485D01*
X92143922Y-109920485D02*
X92182017Y-109996676D01*
X92182017Y-109996676D02*
X92220112Y-110149057D01*
X92220112Y-110149057D02*
X92220112Y-110339533D01*
X92220112Y-110339533D02*
X92182017Y-110491914D01*
X92182017Y-110491914D02*
X92143922Y-110568104D01*
X92143922Y-110568104D02*
X92105827Y-110606200D01*
X92105827Y-110606200D02*
X92029636Y-110644295D01*
X92029636Y-110644295D02*
X91953446Y-110644295D01*
X91953446Y-110644295D02*
X91877255Y-110606200D01*
X91877255Y-110606200D02*
X91839160Y-110568104D01*
X91839160Y-110568104D02*
X91801065Y-110491914D01*
X91801065Y-110491914D02*
X91762969Y-110339533D01*
X91762969Y-110339533D02*
X91762969Y-110149057D01*
X91762969Y-110149057D02*
X91801065Y-109996676D01*
X91801065Y-109996676D02*
X91839160Y-109920485D01*
X91839160Y-109920485D02*
X91877255Y-109882390D01*
X91877255Y-109882390D02*
X91953446Y-109844295D01*
X92524874Y-109920485D02*
X92562970Y-109882390D01*
X92562970Y-109882390D02*
X92639160Y-109844295D01*
X92639160Y-109844295D02*
X92829636Y-109844295D01*
X92829636Y-109844295D02*
X92905827Y-109882390D01*
X92905827Y-109882390D02*
X92943922Y-109920485D01*
X92943922Y-109920485D02*
X92982017Y-109996676D01*
X92982017Y-109996676D02*
X92982017Y-110072866D01*
X92982017Y-110072866D02*
X92943922Y-110187152D01*
X92943922Y-110187152D02*
X92486779Y-110644295D01*
X92486779Y-110644295D02*
X92982017Y-110644295D01*
X93667732Y-110110961D02*
X93667732Y-110644295D01*
X93477256Y-109806200D02*
X93286779Y-110377628D01*
X93286779Y-110377628D02*
X93782018Y-110377628D01*
X94086780Y-110339533D02*
X94696304Y-110339533D01*
X95039160Y-109920485D02*
X95077256Y-109882390D01*
X95077256Y-109882390D02*
X95153446Y-109844295D01*
X95153446Y-109844295D02*
X95343922Y-109844295D01*
X95343922Y-109844295D02*
X95420113Y-109882390D01*
X95420113Y-109882390D02*
X95458208Y-109920485D01*
X95458208Y-109920485D02*
X95496303Y-109996676D01*
X95496303Y-109996676D02*
X95496303Y-110072866D01*
X95496303Y-110072866D02*
X95458208Y-110187152D01*
X95458208Y-110187152D02*
X95001065Y-110644295D01*
X95001065Y-110644295D02*
X95496303Y-110644295D01*
X95991542Y-109844295D02*
X96067732Y-109844295D01*
X96067732Y-109844295D02*
X96143923Y-109882390D01*
X96143923Y-109882390D02*
X96182018Y-109920485D01*
X96182018Y-109920485D02*
X96220113Y-109996676D01*
X96220113Y-109996676D02*
X96258208Y-110149057D01*
X96258208Y-110149057D02*
X96258208Y-110339533D01*
X96258208Y-110339533D02*
X96220113Y-110491914D01*
X96220113Y-110491914D02*
X96182018Y-110568104D01*
X96182018Y-110568104D02*
X96143923Y-110606200D01*
X96143923Y-110606200D02*
X96067732Y-110644295D01*
X96067732Y-110644295D02*
X95991542Y-110644295D01*
X95991542Y-110644295D02*
X95915351Y-110606200D01*
X95915351Y-110606200D02*
X95877256Y-110568104D01*
X95877256Y-110568104D02*
X95839161Y-110491914D01*
X95839161Y-110491914D02*
X95801065Y-110339533D01*
X95801065Y-110339533D02*
X95801065Y-110149057D01*
X95801065Y-110149057D02*
X95839161Y-109996676D01*
X95839161Y-109996676D02*
X95877256Y-109920485D01*
X95877256Y-109920485D02*
X95915351Y-109882390D01*
X95915351Y-109882390D02*
X95991542Y-109844295D01*
X96562970Y-109920485D02*
X96601066Y-109882390D01*
X96601066Y-109882390D02*
X96677256Y-109844295D01*
X96677256Y-109844295D02*
X96867732Y-109844295D01*
X96867732Y-109844295D02*
X96943923Y-109882390D01*
X96943923Y-109882390D02*
X96982018Y-109920485D01*
X96982018Y-109920485D02*
X97020113Y-109996676D01*
X97020113Y-109996676D02*
X97020113Y-110072866D01*
X97020113Y-110072866D02*
X96982018Y-110187152D01*
X96982018Y-110187152D02*
X96524875Y-110644295D01*
X96524875Y-110644295D02*
X97020113Y-110644295D01*
X97743923Y-109844295D02*
X97362971Y-109844295D01*
X97362971Y-109844295D02*
X97324875Y-110225247D01*
X97324875Y-110225247D02*
X97362971Y-110187152D01*
X97362971Y-110187152D02*
X97439161Y-110149057D01*
X97439161Y-110149057D02*
X97629637Y-110149057D01*
X97629637Y-110149057D02*
X97705828Y-110187152D01*
X97705828Y-110187152D02*
X97743923Y-110225247D01*
X97743923Y-110225247D02*
X97782018Y-110301438D01*
X97782018Y-110301438D02*
X97782018Y-110491914D01*
X97782018Y-110491914D02*
X97743923Y-110568104D01*
X97743923Y-110568104D02*
X97705828Y-110606200D01*
X97705828Y-110606200D02*
X97629637Y-110644295D01*
X97629637Y-110644295D02*
X97439161Y-110644295D01*
X97439161Y-110644295D02*
X97362971Y-110606200D01*
X97362971Y-110606200D02*
X97324875Y-110568104D01*
X93912969Y-91769819D02*
X93436779Y-91769819D01*
X93436779Y-91769819D02*
X93389160Y-92246009D01*
X93389160Y-92246009D02*
X93436779Y-92198390D01*
X93436779Y-92198390D02*
X93532017Y-92150771D01*
X93532017Y-92150771D02*
X93770112Y-92150771D01*
X93770112Y-92150771D02*
X93865350Y-92198390D01*
X93865350Y-92198390D02*
X93912969Y-92246009D01*
X93912969Y-92246009D02*
X93960588Y-92341247D01*
X93960588Y-92341247D02*
X93960588Y-92579342D01*
X93960588Y-92579342D02*
X93912969Y-92674580D01*
X93912969Y-92674580D02*
X93865350Y-92722200D01*
X93865350Y-92722200D02*
X93770112Y-92769819D01*
X93770112Y-92769819D02*
X93532017Y-92769819D01*
X93532017Y-92769819D02*
X93436779Y-92722200D01*
X93436779Y-92722200D02*
X93389160Y-92674580D01*
X94246303Y-91769819D02*
X94579636Y-92769819D01*
X94579636Y-92769819D02*
X94912969Y-91769819D01*
X97536779Y-117569819D02*
X97536779Y-116569819D01*
X97536779Y-116569819D02*
X97774874Y-116569819D01*
X97774874Y-116569819D02*
X97917731Y-116617438D01*
X97917731Y-116617438D02*
X98012969Y-116712676D01*
X98012969Y-116712676D02*
X98060588Y-116807914D01*
X98060588Y-116807914D02*
X98108207Y-116998390D01*
X98108207Y-116998390D02*
X98108207Y-117141247D01*
X98108207Y-117141247D02*
X98060588Y-117331723D01*
X98060588Y-117331723D02*
X98012969Y-117426961D01*
X98012969Y-117426961D02*
X97917731Y-117522200D01*
X97917731Y-117522200D02*
X97774874Y-117569819D01*
X97774874Y-117569819D02*
X97536779Y-117569819D01*
X98917731Y-117522200D02*
X98822493Y-117569819D01*
X98822493Y-117569819D02*
X98632017Y-117569819D01*
X98632017Y-117569819D02*
X98536779Y-117522200D01*
X98536779Y-117522200D02*
X98489160Y-117426961D01*
X98489160Y-117426961D02*
X98489160Y-117046009D01*
X98489160Y-117046009D02*
X98536779Y-116950771D01*
X98536779Y-116950771D02*
X98632017Y-116903152D01*
X98632017Y-116903152D02*
X98822493Y-116903152D01*
X98822493Y-116903152D02*
X98917731Y-116950771D01*
X98917731Y-116950771D02*
X98965350Y-117046009D01*
X98965350Y-117046009D02*
X98965350Y-117141247D01*
X98965350Y-117141247D02*
X98489160Y-117236485D01*
X99346303Y-117522200D02*
X99441541Y-117569819D01*
X99441541Y-117569819D02*
X99632017Y-117569819D01*
X99632017Y-117569819D02*
X99727255Y-117522200D01*
X99727255Y-117522200D02*
X99774874Y-117426961D01*
X99774874Y-117426961D02*
X99774874Y-117379342D01*
X99774874Y-117379342D02*
X99727255Y-117284104D01*
X99727255Y-117284104D02*
X99632017Y-117236485D01*
X99632017Y-117236485D02*
X99489160Y-117236485D01*
X99489160Y-117236485D02*
X99393922Y-117188866D01*
X99393922Y-117188866D02*
X99346303Y-117093628D01*
X99346303Y-117093628D02*
X99346303Y-117046009D01*
X99346303Y-117046009D02*
X99393922Y-116950771D01*
X99393922Y-116950771D02*
X99489160Y-116903152D01*
X99489160Y-116903152D02*
X99632017Y-116903152D01*
X99632017Y-116903152D02*
X99727255Y-116950771D01*
X100203446Y-117569819D02*
X100203446Y-116903152D01*
X100203446Y-116569819D02*
X100155827Y-116617438D01*
X100155827Y-116617438D02*
X100203446Y-116665057D01*
X100203446Y-116665057D02*
X100251065Y-116617438D01*
X100251065Y-116617438D02*
X100203446Y-116569819D01*
X100203446Y-116569819D02*
X100203446Y-116665057D01*
X101108207Y-116903152D02*
X101108207Y-117712676D01*
X101108207Y-117712676D02*
X101060588Y-117807914D01*
X101060588Y-117807914D02*
X101012969Y-117855533D01*
X101012969Y-117855533D02*
X100917731Y-117903152D01*
X100917731Y-117903152D02*
X100774874Y-117903152D01*
X100774874Y-117903152D02*
X100679636Y-117855533D01*
X101108207Y-117522200D02*
X101012969Y-117569819D01*
X101012969Y-117569819D02*
X100822493Y-117569819D01*
X100822493Y-117569819D02*
X100727255Y-117522200D01*
X100727255Y-117522200D02*
X100679636Y-117474580D01*
X100679636Y-117474580D02*
X100632017Y-117379342D01*
X100632017Y-117379342D02*
X100632017Y-117093628D01*
X100632017Y-117093628D02*
X100679636Y-116998390D01*
X100679636Y-116998390D02*
X100727255Y-116950771D01*
X100727255Y-116950771D02*
X100822493Y-116903152D01*
X100822493Y-116903152D02*
X101012969Y-116903152D01*
X101012969Y-116903152D02*
X101108207Y-116950771D01*
X101584398Y-116903152D02*
X101584398Y-117569819D01*
X101584398Y-116998390D02*
X101632017Y-116950771D01*
X101632017Y-116950771D02*
X101727255Y-116903152D01*
X101727255Y-116903152D02*
X101870112Y-116903152D01*
X101870112Y-116903152D02*
X101965350Y-116950771D01*
X101965350Y-116950771D02*
X102012969Y-117046009D01*
X102012969Y-117046009D02*
X102012969Y-117569819D01*
X102870112Y-117522200D02*
X102774874Y-117569819D01*
X102774874Y-117569819D02*
X102584398Y-117569819D01*
X102584398Y-117569819D02*
X102489160Y-117522200D01*
X102489160Y-117522200D02*
X102441541Y-117426961D01*
X102441541Y-117426961D02*
X102441541Y-117046009D01*
X102441541Y-117046009D02*
X102489160Y-116950771D01*
X102489160Y-116950771D02*
X102584398Y-116903152D01*
X102584398Y-116903152D02*
X102774874Y-116903152D01*
X102774874Y-116903152D02*
X102870112Y-116950771D01*
X102870112Y-116950771D02*
X102917731Y-117046009D01*
X102917731Y-117046009D02*
X102917731Y-117141247D01*
X102917731Y-117141247D02*
X102441541Y-117236485D01*
X103774874Y-117569819D02*
X103774874Y-116569819D01*
X103774874Y-117522200D02*
X103679636Y-117569819D01*
X103679636Y-117569819D02*
X103489160Y-117569819D01*
X103489160Y-117569819D02*
X103393922Y-117522200D01*
X103393922Y-117522200D02*
X103346303Y-117474580D01*
X103346303Y-117474580D02*
X103298684Y-117379342D01*
X103298684Y-117379342D02*
X103298684Y-117093628D01*
X103298684Y-117093628D02*
X103346303Y-116998390D01*
X103346303Y-116998390D02*
X103393922Y-116950771D01*
X103393922Y-116950771D02*
X103489160Y-116903152D01*
X103489160Y-116903152D02*
X103679636Y-116903152D01*
X103679636Y-116903152D02*
X103774874Y-116950771D01*
X105346303Y-117046009D02*
X105489160Y-117093628D01*
X105489160Y-117093628D02*
X105536779Y-117141247D01*
X105536779Y-117141247D02*
X105584398Y-117236485D01*
X105584398Y-117236485D02*
X105584398Y-117379342D01*
X105584398Y-117379342D02*
X105536779Y-117474580D01*
X105536779Y-117474580D02*
X105489160Y-117522200D01*
X105489160Y-117522200D02*
X105393922Y-117569819D01*
X105393922Y-117569819D02*
X105012970Y-117569819D01*
X105012970Y-117569819D02*
X105012970Y-116569819D01*
X105012970Y-116569819D02*
X105346303Y-116569819D01*
X105346303Y-116569819D02*
X105441541Y-116617438D01*
X105441541Y-116617438D02*
X105489160Y-116665057D01*
X105489160Y-116665057D02*
X105536779Y-116760295D01*
X105536779Y-116760295D02*
X105536779Y-116855533D01*
X105536779Y-116855533D02*
X105489160Y-116950771D01*
X105489160Y-116950771D02*
X105441541Y-116998390D01*
X105441541Y-116998390D02*
X105346303Y-117046009D01*
X105346303Y-117046009D02*
X105012970Y-117046009D01*
X105917732Y-116903152D02*
X106155827Y-117569819D01*
X106393922Y-116903152D02*
X106155827Y-117569819D01*
X106155827Y-117569819D02*
X106060589Y-117807914D01*
X106060589Y-117807914D02*
X106012970Y-117855533D01*
X106012970Y-117855533D02*
X105917732Y-117903152D01*
X106774875Y-117474580D02*
X106822494Y-117522200D01*
X106822494Y-117522200D02*
X106774875Y-117569819D01*
X106774875Y-117569819D02*
X106727256Y-117522200D01*
X106727256Y-117522200D02*
X106774875Y-117474580D01*
X106774875Y-117474580D02*
X106774875Y-117569819D01*
X106774875Y-116950771D02*
X106822494Y-116998390D01*
X106822494Y-116998390D02*
X106774875Y-117046009D01*
X106774875Y-117046009D02*
X106727256Y-116998390D01*
X106727256Y-116998390D02*
X106774875Y-116950771D01*
X106774875Y-116950771D02*
X106774875Y-117046009D01*
X108298684Y-116569819D02*
X108298684Y-117284104D01*
X108298684Y-117284104D02*
X108251065Y-117426961D01*
X108251065Y-117426961D02*
X108155827Y-117522200D01*
X108155827Y-117522200D02*
X108012970Y-117569819D01*
X108012970Y-117569819D02*
X107917732Y-117569819D01*
X109203446Y-117569819D02*
X109203446Y-117046009D01*
X109203446Y-117046009D02*
X109155827Y-116950771D01*
X109155827Y-116950771D02*
X109060589Y-116903152D01*
X109060589Y-116903152D02*
X108870113Y-116903152D01*
X108870113Y-116903152D02*
X108774875Y-116950771D01*
X109203446Y-117522200D02*
X109108208Y-117569819D01*
X109108208Y-117569819D02*
X108870113Y-117569819D01*
X108870113Y-117569819D02*
X108774875Y-117522200D01*
X108774875Y-117522200D02*
X108727256Y-117426961D01*
X108727256Y-117426961D02*
X108727256Y-117331723D01*
X108727256Y-117331723D02*
X108774875Y-117236485D01*
X108774875Y-117236485D02*
X108870113Y-117188866D01*
X108870113Y-117188866D02*
X109108208Y-117188866D01*
X109108208Y-117188866D02*
X109203446Y-117141247D01*
X109584399Y-117569819D02*
X110108208Y-116903152D01*
X109584399Y-116903152D02*
X110108208Y-117569819D01*
X110632018Y-117569819D02*
X110536780Y-117522200D01*
X110536780Y-117522200D02*
X110489161Y-117474580D01*
X110489161Y-117474580D02*
X110441542Y-117379342D01*
X110441542Y-117379342D02*
X110441542Y-117093628D01*
X110441542Y-117093628D02*
X110489161Y-116998390D01*
X110489161Y-116998390D02*
X110536780Y-116950771D01*
X110536780Y-116950771D02*
X110632018Y-116903152D01*
X110632018Y-116903152D02*
X110774875Y-116903152D01*
X110774875Y-116903152D02*
X110870113Y-116950771D01*
X110870113Y-116950771D02*
X110917732Y-116998390D01*
X110917732Y-116998390D02*
X110965351Y-117093628D01*
X110965351Y-117093628D02*
X110965351Y-117379342D01*
X110965351Y-117379342D02*
X110917732Y-117474580D01*
X110917732Y-117474580D02*
X110870113Y-117522200D01*
X110870113Y-117522200D02*
X110774875Y-117569819D01*
X110774875Y-117569819D02*
X110632018Y-117569819D01*
X111393923Y-116903152D02*
X111393923Y-117569819D01*
X111393923Y-116998390D02*
X111441542Y-116950771D01*
X111441542Y-116950771D02*
X111536780Y-116903152D01*
X111536780Y-116903152D02*
X111679637Y-116903152D01*
X111679637Y-116903152D02*
X111774875Y-116950771D01*
X111774875Y-116950771D02*
X111822494Y-117046009D01*
X111822494Y-117046009D02*
X111822494Y-117569819D01*
X113060590Y-117569819D02*
X113060590Y-116569819D01*
X113060590Y-116569819D02*
X113441542Y-116569819D01*
X113441542Y-116569819D02*
X113536780Y-116617438D01*
X113536780Y-116617438D02*
X113584399Y-116665057D01*
X113584399Y-116665057D02*
X113632018Y-116760295D01*
X113632018Y-116760295D02*
X113632018Y-116903152D01*
X113632018Y-116903152D02*
X113584399Y-116998390D01*
X113584399Y-116998390D02*
X113536780Y-117046009D01*
X113536780Y-117046009D02*
X113441542Y-117093628D01*
X113441542Y-117093628D02*
X113060590Y-117093628D01*
X114489161Y-117569819D02*
X114489161Y-117046009D01*
X114489161Y-117046009D02*
X114441542Y-116950771D01*
X114441542Y-116950771D02*
X114346304Y-116903152D01*
X114346304Y-116903152D02*
X114155828Y-116903152D01*
X114155828Y-116903152D02*
X114060590Y-116950771D01*
X114489161Y-117522200D02*
X114393923Y-117569819D01*
X114393923Y-117569819D02*
X114155828Y-117569819D01*
X114155828Y-117569819D02*
X114060590Y-117522200D01*
X114060590Y-117522200D02*
X114012971Y-117426961D01*
X114012971Y-117426961D02*
X114012971Y-117331723D01*
X114012971Y-117331723D02*
X114060590Y-117236485D01*
X114060590Y-117236485D02*
X114155828Y-117188866D01*
X114155828Y-117188866D02*
X114393923Y-117188866D01*
X114393923Y-117188866D02*
X114489161Y-117141247D01*
X114965352Y-117569819D02*
X114965352Y-116903152D01*
X114965352Y-117093628D02*
X115012971Y-116998390D01*
X115012971Y-116998390D02*
X115060590Y-116950771D01*
X115060590Y-116950771D02*
X115155828Y-116903152D01*
X115155828Y-116903152D02*
X115251066Y-116903152D01*
X115584400Y-117569819D02*
X115584400Y-116903152D01*
X115584400Y-117093628D02*
X115632019Y-116998390D01*
X115632019Y-116998390D02*
X115679638Y-116950771D01*
X115679638Y-116950771D02*
X115774876Y-116903152D01*
X115774876Y-116903152D02*
X115870114Y-116903152D01*
X116203448Y-117569819D02*
X116203448Y-116903152D01*
X116203448Y-116569819D02*
X116155829Y-116617438D01*
X116155829Y-116617438D02*
X116203448Y-116665057D01*
X116203448Y-116665057D02*
X116251067Y-116617438D01*
X116251067Y-116617438D02*
X116203448Y-116569819D01*
X116203448Y-116569819D02*
X116203448Y-116665057D01*
X116822495Y-117569819D02*
X116727257Y-117522200D01*
X116727257Y-117522200D02*
X116679638Y-117474580D01*
X116679638Y-117474580D02*
X116632019Y-117379342D01*
X116632019Y-117379342D02*
X116632019Y-117093628D01*
X116632019Y-117093628D02*
X116679638Y-116998390D01*
X116679638Y-116998390D02*
X116727257Y-116950771D01*
X116727257Y-116950771D02*
X116822495Y-116903152D01*
X116822495Y-116903152D02*
X116965352Y-116903152D01*
X116965352Y-116903152D02*
X117060590Y-116950771D01*
X117060590Y-116950771D02*
X117108209Y-116998390D01*
X117108209Y-116998390D02*
X117155828Y-117093628D01*
X117155828Y-117093628D02*
X117155828Y-117379342D01*
X117155828Y-117379342D02*
X117108209Y-117474580D01*
X117108209Y-117474580D02*
X117060590Y-117522200D01*
X117060590Y-117522200D02*
X116965352Y-117569819D01*
X116965352Y-117569819D02*
X116822495Y-117569819D01*
X117441543Y-116903152D02*
X117822495Y-116903152D01*
X117584400Y-116569819D02*
X117584400Y-117426961D01*
X117584400Y-117426961D02*
X117632019Y-117522200D01*
X117632019Y-117522200D02*
X117727257Y-117569819D01*
X117727257Y-117569819D02*
X117822495Y-117569819D01*
X118012972Y-116903152D02*
X118393924Y-116903152D01*
X118155829Y-116569819D02*
X118155829Y-117426961D01*
X118155829Y-117426961D02*
X118203448Y-117522200D01*
X118203448Y-117522200D02*
X118298686Y-117569819D01*
X118298686Y-117569819D02*
X118393924Y-117569819D01*
X119917734Y-117569819D02*
X119917734Y-117046009D01*
X119917734Y-117046009D02*
X119870115Y-116950771D01*
X119870115Y-116950771D02*
X119774877Y-116903152D01*
X119774877Y-116903152D02*
X119584401Y-116903152D01*
X119584401Y-116903152D02*
X119489163Y-116950771D01*
X119917734Y-117522200D02*
X119822496Y-117569819D01*
X119822496Y-117569819D02*
X119584401Y-117569819D01*
X119584401Y-117569819D02*
X119489163Y-117522200D01*
X119489163Y-117522200D02*
X119441544Y-117426961D01*
X119441544Y-117426961D02*
X119441544Y-117331723D01*
X119441544Y-117331723D02*
X119489163Y-117236485D01*
X119489163Y-117236485D02*
X119584401Y-117188866D01*
X119584401Y-117188866D02*
X119822496Y-117188866D01*
X119822496Y-117188866D02*
X119917734Y-117141247D01*
X120393925Y-116903152D02*
X120393925Y-117569819D01*
X120393925Y-116998390D02*
X120441544Y-116950771D01*
X120441544Y-116950771D02*
X120536782Y-116903152D01*
X120536782Y-116903152D02*
X120679639Y-116903152D01*
X120679639Y-116903152D02*
X120774877Y-116950771D01*
X120774877Y-116950771D02*
X120822496Y-117046009D01*
X120822496Y-117046009D02*
X120822496Y-117569819D01*
X121727258Y-117569819D02*
X121727258Y-116569819D01*
X121727258Y-117522200D02*
X121632020Y-117569819D01*
X121632020Y-117569819D02*
X121441544Y-117569819D01*
X121441544Y-117569819D02*
X121346306Y-117522200D01*
X121346306Y-117522200D02*
X121298687Y-117474580D01*
X121298687Y-117474580D02*
X121251068Y-117379342D01*
X121251068Y-117379342D02*
X121251068Y-117093628D01*
X121251068Y-117093628D02*
X121298687Y-116998390D01*
X121298687Y-116998390D02*
X121346306Y-116950771D01*
X121346306Y-116950771D02*
X121441544Y-116903152D01*
X121441544Y-116903152D02*
X121632020Y-116903152D01*
X121632020Y-116903152D02*
X121727258Y-116950771D01*
X122917735Y-117522200D02*
X123060592Y-117569819D01*
X123060592Y-117569819D02*
X123298687Y-117569819D01*
X123298687Y-117569819D02*
X123393925Y-117522200D01*
X123393925Y-117522200D02*
X123441544Y-117474580D01*
X123441544Y-117474580D02*
X123489163Y-117379342D01*
X123489163Y-117379342D02*
X123489163Y-117284104D01*
X123489163Y-117284104D02*
X123441544Y-117188866D01*
X123441544Y-117188866D02*
X123393925Y-117141247D01*
X123393925Y-117141247D02*
X123298687Y-117093628D01*
X123298687Y-117093628D02*
X123108211Y-117046009D01*
X123108211Y-117046009D02*
X123012973Y-116998390D01*
X123012973Y-116998390D02*
X122965354Y-116950771D01*
X122965354Y-116950771D02*
X122917735Y-116855533D01*
X122917735Y-116855533D02*
X122917735Y-116760295D01*
X122917735Y-116760295D02*
X122965354Y-116665057D01*
X122965354Y-116665057D02*
X123012973Y-116617438D01*
X123012973Y-116617438D02*
X123108211Y-116569819D01*
X123108211Y-116569819D02*
X123346306Y-116569819D01*
X123346306Y-116569819D02*
X123489163Y-116617438D01*
X123822497Y-116903152D02*
X124012973Y-117569819D01*
X124012973Y-117569819D02*
X124203449Y-117093628D01*
X124203449Y-117093628D02*
X124393925Y-117569819D01*
X124393925Y-117569819D02*
X124584401Y-116903152D01*
X125393925Y-117569819D02*
X125393925Y-117046009D01*
X125393925Y-117046009D02*
X125346306Y-116950771D01*
X125346306Y-116950771D02*
X125251068Y-116903152D01*
X125251068Y-116903152D02*
X125060592Y-116903152D01*
X125060592Y-116903152D02*
X124965354Y-116950771D01*
X125393925Y-117522200D02*
X125298687Y-117569819D01*
X125298687Y-117569819D02*
X125060592Y-117569819D01*
X125060592Y-117569819D02*
X124965354Y-117522200D01*
X124965354Y-117522200D02*
X124917735Y-117426961D01*
X124917735Y-117426961D02*
X124917735Y-117331723D01*
X124917735Y-117331723D02*
X124965354Y-117236485D01*
X124965354Y-117236485D02*
X125060592Y-117188866D01*
X125060592Y-117188866D02*
X125298687Y-117188866D01*
X125298687Y-117188866D02*
X125393925Y-117141247D01*
X125727259Y-116903152D02*
X126108211Y-116903152D01*
X125870116Y-116569819D02*
X125870116Y-117426961D01*
X125870116Y-117426961D02*
X125917735Y-117522200D01*
X125917735Y-117522200D02*
X126012973Y-117569819D01*
X126012973Y-117569819D02*
X126108211Y-117569819D01*
X126441545Y-117569819D02*
X126441545Y-116569819D01*
X126870116Y-117569819D02*
X126870116Y-117046009D01*
X126870116Y-117046009D02*
X126822497Y-116950771D01*
X126822497Y-116950771D02*
X126727259Y-116903152D01*
X126727259Y-116903152D02*
X126584402Y-116903152D01*
X126584402Y-116903152D02*
X126489164Y-116950771D01*
X126489164Y-116950771D02*
X126441545Y-116998390D01*
X127346307Y-117569819D02*
X127346307Y-116903152D01*
X127346307Y-116569819D02*
X127298688Y-116617438D01*
X127298688Y-116617438D02*
X127346307Y-116665057D01*
X127346307Y-116665057D02*
X127393926Y-116617438D01*
X127393926Y-116617438D02*
X127346307Y-116569819D01*
X127346307Y-116569819D02*
X127346307Y-116665057D01*
X128584402Y-117569819D02*
X128584402Y-116569819D01*
X128584402Y-116569819D02*
X128965354Y-116569819D01*
X128965354Y-116569819D02*
X129060592Y-116617438D01*
X129060592Y-116617438D02*
X129108211Y-116665057D01*
X129108211Y-116665057D02*
X129155830Y-116760295D01*
X129155830Y-116760295D02*
X129155830Y-116903152D01*
X129155830Y-116903152D02*
X129108211Y-116998390D01*
X129108211Y-116998390D02*
X129060592Y-117046009D01*
X129060592Y-117046009D02*
X128965354Y-117093628D01*
X128965354Y-117093628D02*
X128584402Y-117093628D01*
X130012973Y-117569819D02*
X130012973Y-117046009D01*
X130012973Y-117046009D02*
X129965354Y-116950771D01*
X129965354Y-116950771D02*
X129870116Y-116903152D01*
X129870116Y-116903152D02*
X129679640Y-116903152D01*
X129679640Y-116903152D02*
X129584402Y-116950771D01*
X130012973Y-117522200D02*
X129917735Y-117569819D01*
X129917735Y-117569819D02*
X129679640Y-117569819D01*
X129679640Y-117569819D02*
X129584402Y-117522200D01*
X129584402Y-117522200D02*
X129536783Y-117426961D01*
X129536783Y-117426961D02*
X129536783Y-117331723D01*
X129536783Y-117331723D02*
X129584402Y-117236485D01*
X129584402Y-117236485D02*
X129679640Y-117188866D01*
X129679640Y-117188866D02*
X129917735Y-117188866D01*
X129917735Y-117188866D02*
X130012973Y-117141247D01*
X130917735Y-117569819D02*
X130917735Y-116569819D01*
X130917735Y-117522200D02*
X130822497Y-117569819D01*
X130822497Y-117569819D02*
X130632021Y-117569819D01*
X130632021Y-117569819D02*
X130536783Y-117522200D01*
X130536783Y-117522200D02*
X130489164Y-117474580D01*
X130489164Y-117474580D02*
X130441545Y-117379342D01*
X130441545Y-117379342D02*
X130441545Y-117093628D01*
X130441545Y-117093628D02*
X130489164Y-116998390D01*
X130489164Y-116998390D02*
X130536783Y-116950771D01*
X130536783Y-116950771D02*
X130632021Y-116903152D01*
X130632021Y-116903152D02*
X130822497Y-116903152D01*
X130822497Y-116903152D02*
X130917735Y-116950771D01*
X131393926Y-117569819D02*
X131393926Y-116903152D01*
X131393926Y-116998390D02*
X131441545Y-116950771D01*
X131441545Y-116950771D02*
X131536783Y-116903152D01*
X131536783Y-116903152D02*
X131679640Y-116903152D01*
X131679640Y-116903152D02*
X131774878Y-116950771D01*
X131774878Y-116950771D02*
X131822497Y-117046009D01*
X131822497Y-117046009D02*
X131822497Y-117569819D01*
X131822497Y-117046009D02*
X131870116Y-116950771D01*
X131870116Y-116950771D02*
X131965354Y-116903152D01*
X131965354Y-116903152D02*
X132108211Y-116903152D01*
X132108211Y-116903152D02*
X132203450Y-116950771D01*
X132203450Y-116950771D02*
X132251069Y-117046009D01*
X132251069Y-117046009D02*
X132251069Y-117569819D01*
X133155830Y-117569819D02*
X133155830Y-117046009D01*
X133155830Y-117046009D02*
X133108211Y-116950771D01*
X133108211Y-116950771D02*
X133012973Y-116903152D01*
X133012973Y-116903152D02*
X132822497Y-116903152D01*
X132822497Y-116903152D02*
X132727259Y-116950771D01*
X133155830Y-117522200D02*
X133060592Y-117569819D01*
X133060592Y-117569819D02*
X132822497Y-117569819D01*
X132822497Y-117569819D02*
X132727259Y-117522200D01*
X132727259Y-117522200D02*
X132679640Y-117426961D01*
X132679640Y-117426961D02*
X132679640Y-117331723D01*
X132679640Y-117331723D02*
X132727259Y-117236485D01*
X132727259Y-117236485D02*
X132822497Y-117188866D01*
X132822497Y-117188866D02*
X133060592Y-117188866D01*
X133060592Y-117188866D02*
X133155830Y-117141247D01*
X133632021Y-116903152D02*
X133632021Y-117569819D01*
X133632021Y-116998390D02*
X133679640Y-116950771D01*
X133679640Y-116950771D02*
X133774878Y-116903152D01*
X133774878Y-116903152D02*
X133917735Y-116903152D01*
X133917735Y-116903152D02*
X134012973Y-116950771D01*
X134012973Y-116950771D02*
X134060592Y-117046009D01*
X134060592Y-117046009D02*
X134060592Y-117569819D01*
X134965354Y-117569819D02*
X134965354Y-117046009D01*
X134965354Y-117046009D02*
X134917735Y-116950771D01*
X134917735Y-116950771D02*
X134822497Y-116903152D01*
X134822497Y-116903152D02*
X134632021Y-116903152D01*
X134632021Y-116903152D02*
X134536783Y-116950771D01*
X134965354Y-117522200D02*
X134870116Y-117569819D01*
X134870116Y-117569819D02*
X134632021Y-117569819D01*
X134632021Y-117569819D02*
X134536783Y-117522200D01*
X134536783Y-117522200D02*
X134489164Y-117426961D01*
X134489164Y-117426961D02*
X134489164Y-117331723D01*
X134489164Y-117331723D02*
X134536783Y-117236485D01*
X134536783Y-117236485D02*
X134632021Y-117188866D01*
X134632021Y-117188866D02*
X134870116Y-117188866D01*
X134870116Y-117188866D02*
X134965354Y-117141247D01*
X135441545Y-117569819D02*
X135441545Y-116569819D01*
X135441545Y-116950771D02*
X135536783Y-116903152D01*
X135536783Y-116903152D02*
X135727259Y-116903152D01*
X135727259Y-116903152D02*
X135822497Y-116950771D01*
X135822497Y-116950771D02*
X135870116Y-116998390D01*
X135870116Y-116998390D02*
X135917735Y-117093628D01*
X135917735Y-117093628D02*
X135917735Y-117379342D01*
X135917735Y-117379342D02*
X135870116Y-117474580D01*
X135870116Y-117474580D02*
X135822497Y-117522200D01*
X135822497Y-117522200D02*
X135727259Y-117569819D01*
X135727259Y-117569819D02*
X135536783Y-117569819D01*
X135536783Y-117569819D02*
X135441545Y-117522200D01*
X136346307Y-117569819D02*
X136346307Y-116569819D01*
X136774878Y-117569819D02*
X136774878Y-117046009D01*
X136774878Y-117046009D02*
X136727259Y-116950771D01*
X136727259Y-116950771D02*
X136632021Y-116903152D01*
X136632021Y-116903152D02*
X136489164Y-116903152D01*
X136489164Y-116903152D02*
X136393926Y-116950771D01*
X136393926Y-116950771D02*
X136346307Y-116998390D01*
X137679640Y-117569819D02*
X137679640Y-117046009D01*
X137679640Y-117046009D02*
X137632021Y-116950771D01*
X137632021Y-116950771D02*
X137536783Y-116903152D01*
X137536783Y-116903152D02*
X137346307Y-116903152D01*
X137346307Y-116903152D02*
X137251069Y-116950771D01*
X137679640Y-117522200D02*
X137584402Y-117569819D01*
X137584402Y-117569819D02*
X137346307Y-117569819D01*
X137346307Y-117569819D02*
X137251069Y-117522200D01*
X137251069Y-117522200D02*
X137203450Y-117426961D01*
X137203450Y-117426961D02*
X137203450Y-117331723D01*
X137203450Y-117331723D02*
X137251069Y-117236485D01*
X137251069Y-117236485D02*
X137346307Y-117188866D01*
X137346307Y-117188866D02*
X137584402Y-117188866D01*
X137584402Y-117188866D02*
X137679640Y-117141247D01*
X138155831Y-116903152D02*
X138155831Y-117569819D01*
X138155831Y-116998390D02*
X138203450Y-116950771D01*
X138203450Y-116950771D02*
X138298688Y-116903152D01*
X138298688Y-116903152D02*
X138441545Y-116903152D01*
X138441545Y-116903152D02*
X138536783Y-116950771D01*
X138536783Y-116950771D02*
X138584402Y-117046009D01*
X138584402Y-117046009D02*
X138584402Y-117569819D01*
X92336779Y-89669819D02*
X92336779Y-88669819D01*
X92336779Y-88669819D02*
X92717731Y-88669819D01*
X92717731Y-88669819D02*
X92812969Y-88717438D01*
X92812969Y-88717438D02*
X92860588Y-88765057D01*
X92860588Y-88765057D02*
X92908207Y-88860295D01*
X92908207Y-88860295D02*
X92908207Y-89003152D01*
X92908207Y-89003152D02*
X92860588Y-89098390D01*
X92860588Y-89098390D02*
X92812969Y-89146009D01*
X92812969Y-89146009D02*
X92717731Y-89193628D01*
X92717731Y-89193628D02*
X92336779Y-89193628D01*
X93241541Y-88669819D02*
X93479636Y-89669819D01*
X93479636Y-89669819D02*
X93670112Y-88955533D01*
X93670112Y-88955533D02*
X93860588Y-89669819D01*
X93860588Y-89669819D02*
X94098684Y-88669819D01*
X95051064Y-89669819D02*
X94717731Y-89193628D01*
X94479636Y-89669819D02*
X94479636Y-88669819D01*
X94479636Y-88669819D02*
X94860588Y-88669819D01*
X94860588Y-88669819D02*
X94955826Y-88717438D01*
X94955826Y-88717438D02*
X95003445Y-88765057D01*
X95003445Y-88765057D02*
X95051064Y-88860295D01*
X95051064Y-88860295D02*
X95051064Y-89003152D01*
X95051064Y-89003152D02*
X95003445Y-89098390D01*
X95003445Y-89098390D02*
X94955826Y-89146009D01*
X94955826Y-89146009D02*
X94860588Y-89193628D01*
X94860588Y-89193628D02*
X94479636Y-89193628D01*
X98108207Y-115669819D02*
X97774874Y-115193628D01*
X97536779Y-115669819D02*
X97536779Y-114669819D01*
X97536779Y-114669819D02*
X97917731Y-114669819D01*
X97917731Y-114669819D02*
X98012969Y-114717438D01*
X98012969Y-114717438D02*
X98060588Y-114765057D01*
X98060588Y-114765057D02*
X98108207Y-114860295D01*
X98108207Y-114860295D02*
X98108207Y-115003152D01*
X98108207Y-115003152D02*
X98060588Y-115098390D01*
X98060588Y-115098390D02*
X98012969Y-115146009D01*
X98012969Y-115146009D02*
X97917731Y-115193628D01*
X97917731Y-115193628D02*
X97536779Y-115193628D01*
X98917731Y-115622200D02*
X98822493Y-115669819D01*
X98822493Y-115669819D02*
X98632017Y-115669819D01*
X98632017Y-115669819D02*
X98536779Y-115622200D01*
X98536779Y-115622200D02*
X98489160Y-115526961D01*
X98489160Y-115526961D02*
X98489160Y-115146009D01*
X98489160Y-115146009D02*
X98536779Y-115050771D01*
X98536779Y-115050771D02*
X98632017Y-115003152D01*
X98632017Y-115003152D02*
X98822493Y-115003152D01*
X98822493Y-115003152D02*
X98917731Y-115050771D01*
X98917731Y-115050771D02*
X98965350Y-115146009D01*
X98965350Y-115146009D02*
X98965350Y-115241247D01*
X98965350Y-115241247D02*
X98489160Y-115336485D01*
X99298684Y-115003152D02*
X99536779Y-115669819D01*
X99536779Y-115669819D02*
X99774874Y-115003152D01*
X100155827Y-115574580D02*
X100203446Y-115622200D01*
X100203446Y-115622200D02*
X100155827Y-115669819D01*
X100155827Y-115669819D02*
X100108208Y-115622200D01*
X100108208Y-115622200D02*
X100155827Y-115574580D01*
X100155827Y-115574580D02*
X100155827Y-115669819D01*
X100155827Y-115050771D02*
X100203446Y-115098390D01*
X100203446Y-115098390D02*
X100155827Y-115146009D01*
X100155827Y-115146009D02*
X100108208Y-115098390D01*
X100108208Y-115098390D02*
X100155827Y-115050771D01*
X100155827Y-115050771D02*
X100155827Y-115146009D01*
X101917731Y-115669819D02*
X101346303Y-115669819D01*
X101632017Y-115669819D02*
X101632017Y-114669819D01*
X101632017Y-114669819D02*
X101536779Y-114812676D01*
X101536779Y-114812676D02*
X101441541Y-114907914D01*
X101441541Y-114907914D02*
X101346303Y-114955533D01*
X171466667Y-84107200D02*
X171609524Y-84154819D01*
X171609524Y-84154819D02*
X171847619Y-84154819D01*
X171847619Y-84154819D02*
X171942857Y-84107200D01*
X171942857Y-84107200D02*
X171990476Y-84059580D01*
X171990476Y-84059580D02*
X172038095Y-83964342D01*
X172038095Y-83964342D02*
X172038095Y-83869104D01*
X172038095Y-83869104D02*
X171990476Y-83773866D01*
X171990476Y-83773866D02*
X171942857Y-83726247D01*
X171942857Y-83726247D02*
X171847619Y-83678628D01*
X171847619Y-83678628D02*
X171657143Y-83631009D01*
X171657143Y-83631009D02*
X171561905Y-83583390D01*
X171561905Y-83583390D02*
X171514286Y-83535771D01*
X171514286Y-83535771D02*
X171466667Y-83440533D01*
X171466667Y-83440533D02*
X171466667Y-83345295D01*
X171466667Y-83345295D02*
X171514286Y-83250057D01*
X171514286Y-83250057D02*
X171561905Y-83202438D01*
X171561905Y-83202438D02*
X171657143Y-83154819D01*
X171657143Y-83154819D02*
X171895238Y-83154819D01*
X171895238Y-83154819D02*
X172038095Y-83202438D01*
X172371429Y-83154819D02*
X172609524Y-84154819D01*
X172609524Y-84154819D02*
X172800000Y-83440533D01*
X172800000Y-83440533D02*
X172990476Y-84154819D01*
X172990476Y-84154819D02*
X173228572Y-83154819D01*
X173561905Y-83250057D02*
X173609524Y-83202438D01*
X173609524Y-83202438D02*
X173704762Y-83154819D01*
X173704762Y-83154819D02*
X173942857Y-83154819D01*
X173942857Y-83154819D02*
X174038095Y-83202438D01*
X174038095Y-83202438D02*
X174085714Y-83250057D01*
X174085714Y-83250057D02*
X174133333Y-83345295D01*
X174133333Y-83345295D02*
X174133333Y-83440533D01*
X174133333Y-83440533D02*
X174085714Y-83583390D01*
X174085714Y-83583390D02*
X173514286Y-84154819D01*
X173514286Y-84154819D02*
X174133333Y-84154819D01*
X167709819Y-79266666D02*
X167233628Y-79599999D01*
X167709819Y-79838094D02*
X166709819Y-79838094D01*
X166709819Y-79838094D02*
X166709819Y-79457142D01*
X166709819Y-79457142D02*
X166757438Y-79361904D01*
X166757438Y-79361904D02*
X166805057Y-79314285D01*
X166805057Y-79314285D02*
X166900295Y-79266666D01*
X166900295Y-79266666D02*
X167043152Y-79266666D01*
X167043152Y-79266666D02*
X167138390Y-79314285D01*
X167138390Y-79314285D02*
X167186009Y-79361904D01*
X167186009Y-79361904D02*
X167233628Y-79457142D01*
X167233628Y-79457142D02*
X167233628Y-79838094D01*
X167709819Y-78314285D02*
X167709819Y-78885713D01*
X167709819Y-78599999D02*
X166709819Y-78599999D01*
X166709819Y-78599999D02*
X166852676Y-78695237D01*
X166852676Y-78695237D02*
X166947914Y-78790475D01*
X166947914Y-78790475D02*
X166995533Y-78885713D01*
X146083333Y-64109580D02*
X146035714Y-64157200D01*
X146035714Y-64157200D02*
X145892857Y-64204819D01*
X145892857Y-64204819D02*
X145797619Y-64204819D01*
X145797619Y-64204819D02*
X145654762Y-64157200D01*
X145654762Y-64157200D02*
X145559524Y-64061961D01*
X145559524Y-64061961D02*
X145511905Y-63966723D01*
X145511905Y-63966723D02*
X145464286Y-63776247D01*
X145464286Y-63776247D02*
X145464286Y-63633390D01*
X145464286Y-63633390D02*
X145511905Y-63442914D01*
X145511905Y-63442914D02*
X145559524Y-63347676D01*
X145559524Y-63347676D02*
X145654762Y-63252438D01*
X145654762Y-63252438D02*
X145797619Y-63204819D01*
X145797619Y-63204819D02*
X145892857Y-63204819D01*
X145892857Y-63204819D02*
X146035714Y-63252438D01*
X146035714Y-63252438D02*
X146083333Y-63300057D01*
X146464286Y-63300057D02*
X146511905Y-63252438D01*
X146511905Y-63252438D02*
X146607143Y-63204819D01*
X146607143Y-63204819D02*
X146845238Y-63204819D01*
X146845238Y-63204819D02*
X146940476Y-63252438D01*
X146940476Y-63252438D02*
X146988095Y-63300057D01*
X146988095Y-63300057D02*
X147035714Y-63395295D01*
X147035714Y-63395295D02*
X147035714Y-63490533D01*
X147035714Y-63490533D02*
X146988095Y-63633390D01*
X146988095Y-63633390D02*
X146416667Y-64204819D01*
X146416667Y-64204819D02*
X147035714Y-64204819D01*
X171366667Y-72007200D02*
X171509524Y-72054819D01*
X171509524Y-72054819D02*
X171747619Y-72054819D01*
X171747619Y-72054819D02*
X171842857Y-72007200D01*
X171842857Y-72007200D02*
X171890476Y-71959580D01*
X171890476Y-71959580D02*
X171938095Y-71864342D01*
X171938095Y-71864342D02*
X171938095Y-71769104D01*
X171938095Y-71769104D02*
X171890476Y-71673866D01*
X171890476Y-71673866D02*
X171842857Y-71626247D01*
X171842857Y-71626247D02*
X171747619Y-71578628D01*
X171747619Y-71578628D02*
X171557143Y-71531009D01*
X171557143Y-71531009D02*
X171461905Y-71483390D01*
X171461905Y-71483390D02*
X171414286Y-71435771D01*
X171414286Y-71435771D02*
X171366667Y-71340533D01*
X171366667Y-71340533D02*
X171366667Y-71245295D01*
X171366667Y-71245295D02*
X171414286Y-71150057D01*
X171414286Y-71150057D02*
X171461905Y-71102438D01*
X171461905Y-71102438D02*
X171557143Y-71054819D01*
X171557143Y-71054819D02*
X171795238Y-71054819D01*
X171795238Y-71054819D02*
X171938095Y-71102438D01*
X172271429Y-71054819D02*
X172509524Y-72054819D01*
X172509524Y-72054819D02*
X172700000Y-71340533D01*
X172700000Y-71340533D02*
X172890476Y-72054819D01*
X172890476Y-72054819D02*
X173128572Y-71054819D01*
X174033333Y-72054819D02*
X173461905Y-72054819D01*
X173747619Y-72054819D02*
X173747619Y-71054819D01*
X173747619Y-71054819D02*
X173652381Y-71197676D01*
X173652381Y-71197676D02*
X173557143Y-71292914D01*
X173557143Y-71292914D02*
X173461905Y-71340533D01*
X96061905Y-88254819D02*
X96061905Y-87254819D01*
X96061905Y-87254819D02*
X96300000Y-87254819D01*
X96300000Y-87254819D02*
X96442857Y-87302438D01*
X96442857Y-87302438D02*
X96538095Y-87397676D01*
X96538095Y-87397676D02*
X96585714Y-87492914D01*
X96585714Y-87492914D02*
X96633333Y-87683390D01*
X96633333Y-87683390D02*
X96633333Y-87826247D01*
X96633333Y-87826247D02*
X96585714Y-88016723D01*
X96585714Y-88016723D02*
X96538095Y-88111961D01*
X96538095Y-88111961D02*
X96442857Y-88207200D01*
X96442857Y-88207200D02*
X96300000Y-88254819D01*
X96300000Y-88254819D02*
X96061905Y-88254819D01*
X97585714Y-88254819D02*
X97014286Y-88254819D01*
X97300000Y-88254819D02*
X97300000Y-87254819D01*
X97300000Y-87254819D02*
X97204762Y-87397676D01*
X97204762Y-87397676D02*
X97109524Y-87492914D01*
X97109524Y-87492914D02*
X97014286Y-87540533D01*
X92738095Y-118454819D02*
X92738095Y-117454819D01*
X92738095Y-117931009D02*
X93309523Y-117931009D01*
X93309523Y-118454819D02*
X93309523Y-117454819D01*
X94214285Y-117788152D02*
X94214285Y-118454819D01*
X93976190Y-117407200D02*
X93738095Y-118121485D01*
X93738095Y-118121485D02*
X94357142Y-118121485D01*
X101808333Y-88254819D02*
X101475000Y-87778628D01*
X101236905Y-88254819D02*
X101236905Y-87254819D01*
X101236905Y-87254819D02*
X101617857Y-87254819D01*
X101617857Y-87254819D02*
X101713095Y-87302438D01*
X101713095Y-87302438D02*
X101760714Y-87350057D01*
X101760714Y-87350057D02*
X101808333Y-87445295D01*
X101808333Y-87445295D02*
X101808333Y-87588152D01*
X101808333Y-87588152D02*
X101760714Y-87683390D01*
X101760714Y-87683390D02*
X101713095Y-87731009D01*
X101713095Y-87731009D02*
X101617857Y-87778628D01*
X101617857Y-87778628D02*
X101236905Y-87778628D01*
X102141667Y-87254819D02*
X102760714Y-87254819D01*
X102760714Y-87254819D02*
X102427381Y-87635771D01*
X102427381Y-87635771D02*
X102570238Y-87635771D01*
X102570238Y-87635771D02*
X102665476Y-87683390D01*
X102665476Y-87683390D02*
X102713095Y-87731009D01*
X102713095Y-87731009D02*
X102760714Y-87826247D01*
X102760714Y-87826247D02*
X102760714Y-88064342D01*
X102760714Y-88064342D02*
X102713095Y-88159580D01*
X102713095Y-88159580D02*
X102665476Y-88207200D01*
X102665476Y-88207200D02*
X102570238Y-88254819D01*
X102570238Y-88254819D02*
X102284524Y-88254819D01*
X102284524Y-88254819D02*
X102189286Y-88207200D01*
X102189286Y-88207200D02*
X102141667Y-88159580D01*
X165154819Y-105366666D02*
X165154819Y-105842856D01*
X165154819Y-105842856D02*
X164154819Y-105842856D01*
X165059580Y-104461904D02*
X165107200Y-104509523D01*
X165107200Y-104509523D02*
X165154819Y-104652380D01*
X165154819Y-104652380D02*
X165154819Y-104747618D01*
X165154819Y-104747618D02*
X165107200Y-104890475D01*
X165107200Y-104890475D02*
X165011961Y-104985713D01*
X165011961Y-104985713D02*
X164916723Y-105033332D01*
X164916723Y-105033332D02*
X164726247Y-105080951D01*
X164726247Y-105080951D02*
X164583390Y-105080951D01*
X164583390Y-105080951D02*
X164392914Y-105033332D01*
X164392914Y-105033332D02*
X164297676Y-104985713D01*
X164297676Y-104985713D02*
X164202438Y-104890475D01*
X164202438Y-104890475D02*
X164154819Y-104747618D01*
X164154819Y-104747618D02*
X164154819Y-104652380D01*
X164154819Y-104652380D02*
X164202438Y-104509523D01*
X164202438Y-104509523D02*
X164250057Y-104461904D01*
X165154819Y-104033332D02*
X164154819Y-104033332D01*
X164154819Y-104033332D02*
X164154819Y-103795237D01*
X164154819Y-103795237D02*
X164202438Y-103652380D01*
X164202438Y-103652380D02*
X164297676Y-103557142D01*
X164297676Y-103557142D02*
X164392914Y-103509523D01*
X164392914Y-103509523D02*
X164583390Y-103461904D01*
X164583390Y-103461904D02*
X164726247Y-103461904D01*
X164726247Y-103461904D02*
X164916723Y-103509523D01*
X164916723Y-103509523D02*
X165011961Y-103557142D01*
X165011961Y-103557142D02*
X165107200Y-103652380D01*
X165107200Y-103652380D02*
X165154819Y-103795237D01*
X165154819Y-103795237D02*
X165154819Y-104033332D01*
X165154819Y-102509523D02*
X165154819Y-103080951D01*
X165154819Y-102795237D02*
X164154819Y-102795237D01*
X164154819Y-102795237D02*
X164297676Y-102890475D01*
X164297676Y-102890475D02*
X164392914Y-102985713D01*
X164392914Y-102985713D02*
X164440533Y-103080951D01*
X176738095Y-63554819D02*
X176738095Y-62554819D01*
X176738095Y-63031009D02*
X177309523Y-63031009D01*
X177309523Y-63554819D02*
X177309523Y-62554819D01*
X177738095Y-62650057D02*
X177785714Y-62602438D01*
X177785714Y-62602438D02*
X177880952Y-62554819D01*
X177880952Y-62554819D02*
X178119047Y-62554819D01*
X178119047Y-62554819D02*
X178214285Y-62602438D01*
X178214285Y-62602438D02*
X178261904Y-62650057D01*
X178261904Y-62650057D02*
X178309523Y-62745295D01*
X178309523Y-62745295D02*
X178309523Y-62840533D01*
X178309523Y-62840533D02*
X178261904Y-62983390D01*
X178261904Y-62983390D02*
X177690476Y-63554819D01*
X177690476Y-63554819D02*
X178309523Y-63554819D01*
X97657200Y-75583332D02*
X97704819Y-75440475D01*
X97704819Y-75440475D02*
X97704819Y-75202380D01*
X97704819Y-75202380D02*
X97657200Y-75107142D01*
X97657200Y-75107142D02*
X97609580Y-75059523D01*
X97609580Y-75059523D02*
X97514342Y-75011904D01*
X97514342Y-75011904D02*
X97419104Y-75011904D01*
X97419104Y-75011904D02*
X97323866Y-75059523D01*
X97323866Y-75059523D02*
X97276247Y-75107142D01*
X97276247Y-75107142D02*
X97228628Y-75202380D01*
X97228628Y-75202380D02*
X97181009Y-75392856D01*
X97181009Y-75392856D02*
X97133390Y-75488094D01*
X97133390Y-75488094D02*
X97085771Y-75535713D01*
X97085771Y-75535713D02*
X96990533Y-75583332D01*
X96990533Y-75583332D02*
X96895295Y-75583332D01*
X96895295Y-75583332D02*
X96800057Y-75535713D01*
X96800057Y-75535713D02*
X96752438Y-75488094D01*
X96752438Y-75488094D02*
X96704819Y-75392856D01*
X96704819Y-75392856D02*
X96704819Y-75154761D01*
X96704819Y-75154761D02*
X96752438Y-75011904D01*
X96704819Y-74678570D02*
X97704819Y-74440475D01*
X97704819Y-74440475D02*
X96990533Y-74249999D01*
X96990533Y-74249999D02*
X97704819Y-74059523D01*
X97704819Y-74059523D02*
X96704819Y-73821428D01*
X96704819Y-73535713D02*
X96704819Y-72916666D01*
X96704819Y-72916666D02*
X97085771Y-73249999D01*
X97085771Y-73249999D02*
X97085771Y-73107142D01*
X97085771Y-73107142D02*
X97133390Y-73011904D01*
X97133390Y-73011904D02*
X97181009Y-72964285D01*
X97181009Y-72964285D02*
X97276247Y-72916666D01*
X97276247Y-72916666D02*
X97514342Y-72916666D01*
X97514342Y-72916666D02*
X97609580Y-72964285D01*
X97609580Y-72964285D02*
X97657200Y-73011904D01*
X97657200Y-73011904D02*
X97704819Y-73107142D01*
X97704819Y-73107142D02*
X97704819Y-73392856D01*
X97704819Y-73392856D02*
X97657200Y-73488094D01*
X97657200Y-73488094D02*
X97609580Y-73535713D01*
X132318095Y-113804819D02*
X132318095Y-114614342D01*
X132318095Y-114614342D02*
X132365714Y-114709580D01*
X132365714Y-114709580D02*
X132413333Y-114757200D01*
X132413333Y-114757200D02*
X132508571Y-114804819D01*
X132508571Y-114804819D02*
X132699047Y-114804819D01*
X132699047Y-114804819D02*
X132794285Y-114757200D01*
X132794285Y-114757200D02*
X132841904Y-114709580D01*
X132841904Y-114709580D02*
X132889523Y-114614342D01*
X132889523Y-114614342D02*
X132889523Y-113804819D01*
X133889523Y-114804819D02*
X133318095Y-114804819D01*
X133603809Y-114804819D02*
X133603809Y-113804819D01*
X133603809Y-113804819D02*
X133508571Y-113947676D01*
X133508571Y-113947676D02*
X133413333Y-114042914D01*
X133413333Y-114042914D02*
X133318095Y-114090533D01*
X132102295Y-107893809D02*
X131302295Y-107893809D01*
X131302295Y-107893809D02*
X131873723Y-107627143D01*
X131873723Y-107627143D02*
X131302295Y-107360476D01*
X131302295Y-107360476D02*
X132102295Y-107360476D01*
X132102295Y-106979523D02*
X131302295Y-106979523D01*
X132102295Y-106598571D02*
X131302295Y-106598571D01*
X131302295Y-106598571D02*
X131873723Y-106331905D01*
X131873723Y-106331905D02*
X131302295Y-106065238D01*
X131302295Y-106065238D02*
X132102295Y-106065238D01*
X131302295Y-105760476D02*
X132102295Y-105227142D01*
X131302295Y-105227142D02*
X132102295Y-105760476D01*
X132102295Y-104465237D02*
X131721342Y-104731904D01*
X132102295Y-104922380D02*
X131302295Y-104922380D01*
X131302295Y-104922380D02*
X131302295Y-104617618D01*
X131302295Y-104617618D02*
X131340390Y-104541428D01*
X131340390Y-104541428D02*
X131378485Y-104503333D01*
X131378485Y-104503333D02*
X131454676Y-104465237D01*
X131454676Y-104465237D02*
X131568961Y-104465237D01*
X131568961Y-104465237D02*
X131645152Y-104503333D01*
X131645152Y-104503333D02*
X131683247Y-104541428D01*
X131683247Y-104541428D02*
X131721342Y-104617618D01*
X131721342Y-104617618D02*
X131721342Y-104922380D01*
X131302295Y-104236666D02*
X131302295Y-103779523D01*
X132102295Y-104008095D02*
X131302295Y-104008095D01*
X132102295Y-103093809D02*
X132102295Y-103550952D01*
X132102295Y-103322380D02*
X131302295Y-103322380D01*
X131302295Y-103322380D02*
X131416580Y-103398571D01*
X131416580Y-103398571D02*
X131492771Y-103474761D01*
X131492771Y-103474761D02*
X131530866Y-103550952D01*
X131302295Y-102598570D02*
X131302295Y-102522380D01*
X131302295Y-102522380D02*
X131340390Y-102446189D01*
X131340390Y-102446189D02*
X131378485Y-102408094D01*
X131378485Y-102408094D02*
X131454676Y-102369999D01*
X131454676Y-102369999D02*
X131607057Y-102331904D01*
X131607057Y-102331904D02*
X131797533Y-102331904D01*
X131797533Y-102331904D02*
X131949914Y-102369999D01*
X131949914Y-102369999D02*
X132026104Y-102408094D01*
X132026104Y-102408094D02*
X132064200Y-102446189D01*
X132064200Y-102446189D02*
X132102295Y-102522380D01*
X132102295Y-102522380D02*
X132102295Y-102598570D01*
X132102295Y-102598570D02*
X132064200Y-102674761D01*
X132064200Y-102674761D02*
X132026104Y-102712856D01*
X132026104Y-102712856D02*
X131949914Y-102750951D01*
X131949914Y-102750951D02*
X131797533Y-102789047D01*
X131797533Y-102789047D02*
X131607057Y-102789047D01*
X131607057Y-102789047D02*
X131454676Y-102750951D01*
X131454676Y-102750951D02*
X131378485Y-102712856D01*
X131378485Y-102712856D02*
X131340390Y-102674761D01*
X131340390Y-102674761D02*
X131302295Y-102598570D01*
X131302295Y-101646189D02*
X131302295Y-101798570D01*
X131302295Y-101798570D02*
X131340390Y-101874761D01*
X131340390Y-101874761D02*
X131378485Y-101912856D01*
X131378485Y-101912856D02*
X131492771Y-101989046D01*
X131492771Y-101989046D02*
X131645152Y-102027142D01*
X131645152Y-102027142D02*
X131949914Y-102027142D01*
X131949914Y-102027142D02*
X132026104Y-101989046D01*
X132026104Y-101989046D02*
X132064200Y-101950951D01*
X132064200Y-101950951D02*
X132102295Y-101874761D01*
X132102295Y-101874761D02*
X132102295Y-101722380D01*
X132102295Y-101722380D02*
X132064200Y-101646189D01*
X132064200Y-101646189D02*
X132026104Y-101608094D01*
X132026104Y-101608094D02*
X131949914Y-101569999D01*
X131949914Y-101569999D02*
X131759438Y-101569999D01*
X131759438Y-101569999D02*
X131683247Y-101608094D01*
X131683247Y-101608094D02*
X131645152Y-101646189D01*
X131645152Y-101646189D02*
X131607057Y-101722380D01*
X131607057Y-101722380D02*
X131607057Y-101874761D01*
X131607057Y-101874761D02*
X131645152Y-101950951D01*
X131645152Y-101950951D02*
X131683247Y-101989046D01*
X131683247Y-101989046D02*
X131759438Y-102027142D01*
X131378485Y-101265237D02*
X131340390Y-101227141D01*
X131340390Y-101227141D02*
X131302295Y-101150951D01*
X131302295Y-101150951D02*
X131302295Y-100960475D01*
X131302295Y-100960475D02*
X131340390Y-100884284D01*
X131340390Y-100884284D02*
X131378485Y-100846189D01*
X131378485Y-100846189D02*
X131454676Y-100808094D01*
X131454676Y-100808094D02*
X131530866Y-100808094D01*
X131530866Y-100808094D02*
X131645152Y-100846189D01*
X131645152Y-100846189D02*
X132102295Y-101303332D01*
X132102295Y-101303332D02*
X132102295Y-100808094D01*
X130832295Y-105828094D02*
X130032295Y-105828094D01*
X130032295Y-105828094D02*
X130032295Y-105637618D01*
X130032295Y-105637618D02*
X130070390Y-105523332D01*
X130070390Y-105523332D02*
X130146580Y-105447142D01*
X130146580Y-105447142D02*
X130222771Y-105409047D01*
X130222771Y-105409047D02*
X130375152Y-105370951D01*
X130375152Y-105370951D02*
X130489438Y-105370951D01*
X130489438Y-105370951D02*
X130641819Y-105409047D01*
X130641819Y-105409047D02*
X130718009Y-105447142D01*
X130718009Y-105447142D02*
X130794200Y-105523332D01*
X130794200Y-105523332D02*
X130832295Y-105637618D01*
X130832295Y-105637618D02*
X130832295Y-105828094D01*
X130032295Y-105142380D02*
X130832295Y-104875713D01*
X130832295Y-104875713D02*
X130032295Y-104609047D01*
X130032295Y-104113809D02*
X130603723Y-104113809D01*
X130603723Y-104113809D02*
X130718009Y-104151904D01*
X130718009Y-104151904D02*
X130794200Y-104228095D01*
X130794200Y-104228095D02*
X130832295Y-104342380D01*
X130832295Y-104342380D02*
X130832295Y-104418571D01*
X130032295Y-103389999D02*
X130032295Y-103542380D01*
X130032295Y-103542380D02*
X130070390Y-103618571D01*
X130070390Y-103618571D02*
X130108485Y-103656666D01*
X130108485Y-103656666D02*
X130222771Y-103732856D01*
X130222771Y-103732856D02*
X130375152Y-103770952D01*
X130375152Y-103770952D02*
X130679914Y-103770952D01*
X130679914Y-103770952D02*
X130756104Y-103732856D01*
X130756104Y-103732856D02*
X130794200Y-103694761D01*
X130794200Y-103694761D02*
X130832295Y-103618571D01*
X130832295Y-103618571D02*
X130832295Y-103466190D01*
X130832295Y-103466190D02*
X130794200Y-103389999D01*
X130794200Y-103389999D02*
X130756104Y-103351904D01*
X130756104Y-103351904D02*
X130679914Y-103313809D01*
X130679914Y-103313809D02*
X130489438Y-103313809D01*
X130489438Y-103313809D02*
X130413247Y-103351904D01*
X130413247Y-103351904D02*
X130375152Y-103389999D01*
X130375152Y-103389999D02*
X130337057Y-103466190D01*
X130337057Y-103466190D02*
X130337057Y-103618571D01*
X130337057Y-103618571D02*
X130375152Y-103694761D01*
X130375152Y-103694761D02*
X130413247Y-103732856D01*
X130413247Y-103732856D02*
X130489438Y-103770952D01*
X130413247Y-102704285D02*
X130451342Y-102589999D01*
X130451342Y-102589999D02*
X130489438Y-102551904D01*
X130489438Y-102551904D02*
X130565628Y-102513808D01*
X130565628Y-102513808D02*
X130679914Y-102513808D01*
X130679914Y-102513808D02*
X130756104Y-102551904D01*
X130756104Y-102551904D02*
X130794200Y-102589999D01*
X130794200Y-102589999D02*
X130832295Y-102666189D01*
X130832295Y-102666189D02*
X130832295Y-102970951D01*
X130832295Y-102970951D02*
X130032295Y-102970951D01*
X130032295Y-102970951D02*
X130032295Y-102704285D01*
X130032295Y-102704285D02*
X130070390Y-102628094D01*
X130070390Y-102628094D02*
X130108485Y-102589999D01*
X130108485Y-102589999D02*
X130184676Y-102551904D01*
X130184676Y-102551904D02*
X130260866Y-102551904D01*
X130260866Y-102551904D02*
X130337057Y-102589999D01*
X130337057Y-102589999D02*
X130375152Y-102628094D01*
X130375152Y-102628094D02*
X130413247Y-102704285D01*
X130413247Y-102704285D02*
X130413247Y-102970951D01*
X154020952Y-104824819D02*
X154020952Y-103824819D01*
X154020952Y-103824819D02*
X154354285Y-104539104D01*
X154354285Y-104539104D02*
X154687618Y-103824819D01*
X154687618Y-103824819D02*
X154687618Y-104824819D01*
X155163809Y-104824819D02*
X155163809Y-104158152D01*
X155163809Y-103824819D02*
X155116190Y-103872438D01*
X155116190Y-103872438D02*
X155163809Y-103920057D01*
X155163809Y-103920057D02*
X155211428Y-103872438D01*
X155211428Y-103872438D02*
X155163809Y-103824819D01*
X155163809Y-103824819D02*
X155163809Y-103920057D01*
X156068570Y-104777200D02*
X155973332Y-104824819D01*
X155973332Y-104824819D02*
X155782856Y-104824819D01*
X155782856Y-104824819D02*
X155687618Y-104777200D01*
X155687618Y-104777200D02*
X155639999Y-104729580D01*
X155639999Y-104729580D02*
X155592380Y-104634342D01*
X155592380Y-104634342D02*
X155592380Y-104348628D01*
X155592380Y-104348628D02*
X155639999Y-104253390D01*
X155639999Y-104253390D02*
X155687618Y-104205771D01*
X155687618Y-104205771D02*
X155782856Y-104158152D01*
X155782856Y-104158152D02*
X155973332Y-104158152D01*
X155973332Y-104158152D02*
X156068570Y-104205771D01*
X156497142Y-104824819D02*
X156497142Y-104158152D01*
X156497142Y-104348628D02*
X156544761Y-104253390D01*
X156544761Y-104253390D02*
X156592380Y-104205771D01*
X156592380Y-104205771D02*
X156687618Y-104158152D01*
X156687618Y-104158152D02*
X156782856Y-104158152D01*
X157259047Y-104824819D02*
X157163809Y-104777200D01*
X157163809Y-104777200D02*
X157116190Y-104729580D01*
X157116190Y-104729580D02*
X157068571Y-104634342D01*
X157068571Y-104634342D02*
X157068571Y-104348628D01*
X157068571Y-104348628D02*
X157116190Y-104253390D01*
X157116190Y-104253390D02*
X157163809Y-104205771D01*
X157163809Y-104205771D02*
X157259047Y-104158152D01*
X157259047Y-104158152D02*
X157401904Y-104158152D01*
X157401904Y-104158152D02*
X157497142Y-104205771D01*
X157497142Y-104205771D02*
X157544761Y-104253390D01*
X157544761Y-104253390D02*
X157592380Y-104348628D01*
X157592380Y-104348628D02*
X157592380Y-104634342D01*
X157592380Y-104634342D02*
X157544761Y-104729580D01*
X157544761Y-104729580D02*
X157497142Y-104777200D01*
X157497142Y-104777200D02*
X157401904Y-104824819D01*
X157401904Y-104824819D02*
X157259047Y-104824819D01*
X158735238Y-104777200D02*
X158878095Y-104824819D01*
X158878095Y-104824819D02*
X159116190Y-104824819D01*
X159116190Y-104824819D02*
X159211428Y-104777200D01*
X159211428Y-104777200D02*
X159259047Y-104729580D01*
X159259047Y-104729580D02*
X159306666Y-104634342D01*
X159306666Y-104634342D02*
X159306666Y-104539104D01*
X159306666Y-104539104D02*
X159259047Y-104443866D01*
X159259047Y-104443866D02*
X159211428Y-104396247D01*
X159211428Y-104396247D02*
X159116190Y-104348628D01*
X159116190Y-104348628D02*
X158925714Y-104301009D01*
X158925714Y-104301009D02*
X158830476Y-104253390D01*
X158830476Y-104253390D02*
X158782857Y-104205771D01*
X158782857Y-104205771D02*
X158735238Y-104110533D01*
X158735238Y-104110533D02*
X158735238Y-104015295D01*
X158735238Y-104015295D02*
X158782857Y-103920057D01*
X158782857Y-103920057D02*
X158830476Y-103872438D01*
X158830476Y-103872438D02*
X158925714Y-103824819D01*
X158925714Y-103824819D02*
X159163809Y-103824819D01*
X159163809Y-103824819D02*
X159306666Y-103872438D01*
X159735238Y-104824819D02*
X159735238Y-103824819D01*
X159735238Y-103824819D02*
X159973333Y-103824819D01*
X159973333Y-103824819D02*
X160116190Y-103872438D01*
X160116190Y-103872438D02*
X160211428Y-103967676D01*
X160211428Y-103967676D02*
X160259047Y-104062914D01*
X160259047Y-104062914D02*
X160306666Y-104253390D01*
X160306666Y-104253390D02*
X160306666Y-104396247D01*
X160306666Y-104396247D02*
X160259047Y-104586723D01*
X160259047Y-104586723D02*
X160211428Y-104681961D01*
X160211428Y-104681961D02*
X160116190Y-104777200D01*
X160116190Y-104777200D02*
X159973333Y-104824819D01*
X159973333Y-104824819D02*
X159735238Y-104824819D01*
X105794819Y-105631904D02*
X106604342Y-105631904D01*
X106604342Y-105631904D02*
X106699580Y-105584285D01*
X106699580Y-105584285D02*
X106747200Y-105536666D01*
X106747200Y-105536666D02*
X106794819Y-105441428D01*
X106794819Y-105441428D02*
X106794819Y-105250952D01*
X106794819Y-105250952D02*
X106747200Y-105155714D01*
X106747200Y-105155714D02*
X106699580Y-105108095D01*
X106699580Y-105108095D02*
X106604342Y-105060476D01*
X106604342Y-105060476D02*
X105794819Y-105060476D01*
X106747200Y-104631904D02*
X106794819Y-104489047D01*
X106794819Y-104489047D02*
X106794819Y-104250952D01*
X106794819Y-104250952D02*
X106747200Y-104155714D01*
X106747200Y-104155714D02*
X106699580Y-104108095D01*
X106699580Y-104108095D02*
X106604342Y-104060476D01*
X106604342Y-104060476D02*
X106509104Y-104060476D01*
X106509104Y-104060476D02*
X106413866Y-104108095D01*
X106413866Y-104108095D02*
X106366247Y-104155714D01*
X106366247Y-104155714D02*
X106318628Y-104250952D01*
X106318628Y-104250952D02*
X106271009Y-104441428D01*
X106271009Y-104441428D02*
X106223390Y-104536666D01*
X106223390Y-104536666D02*
X106175771Y-104584285D01*
X106175771Y-104584285D02*
X106080533Y-104631904D01*
X106080533Y-104631904D02*
X105985295Y-104631904D01*
X105985295Y-104631904D02*
X105890057Y-104584285D01*
X105890057Y-104584285D02*
X105842438Y-104536666D01*
X105842438Y-104536666D02*
X105794819Y-104441428D01*
X105794819Y-104441428D02*
X105794819Y-104203333D01*
X105794819Y-104203333D02*
X105842438Y-104060476D01*
X106271009Y-103298571D02*
X106318628Y-103155714D01*
X106318628Y-103155714D02*
X106366247Y-103108095D01*
X106366247Y-103108095D02*
X106461485Y-103060476D01*
X106461485Y-103060476D02*
X106604342Y-103060476D01*
X106604342Y-103060476D02*
X106699580Y-103108095D01*
X106699580Y-103108095D02*
X106747200Y-103155714D01*
X106747200Y-103155714D02*
X106794819Y-103250952D01*
X106794819Y-103250952D02*
X106794819Y-103631904D01*
X106794819Y-103631904D02*
X105794819Y-103631904D01*
X105794819Y-103631904D02*
X105794819Y-103298571D01*
X105794819Y-103298571D02*
X105842438Y-103203333D01*
X105842438Y-103203333D02*
X105890057Y-103155714D01*
X105890057Y-103155714D02*
X105985295Y-103108095D01*
X105985295Y-103108095D02*
X106080533Y-103108095D01*
X106080533Y-103108095D02*
X106175771Y-103155714D01*
X106175771Y-103155714D02*
X106223390Y-103203333D01*
X106223390Y-103203333D02*
X106271009Y-103298571D01*
X106271009Y-103298571D02*
X106271009Y-103631904D01*
X165709104Y-85064285D02*
X165709104Y-84588095D01*
X165994819Y-85159523D02*
X164994819Y-84826190D01*
X164994819Y-84826190D02*
X165994819Y-84492857D01*
X165090057Y-84207142D02*
X165042438Y-84159523D01*
X165042438Y-84159523D02*
X164994819Y-84064285D01*
X164994819Y-84064285D02*
X164994819Y-83826190D01*
X164994819Y-83826190D02*
X165042438Y-83730952D01*
X165042438Y-83730952D02*
X165090057Y-83683333D01*
X165090057Y-83683333D02*
X165185295Y-83635714D01*
X165185295Y-83635714D02*
X165280533Y-83635714D01*
X165280533Y-83635714D02*
X165423390Y-83683333D01*
X165423390Y-83683333D02*
X165994819Y-84254761D01*
X165994819Y-84254761D02*
X165994819Y-83635714D01*
X100166561Y-62854650D02*
X100166561Y-63569160D01*
X100166561Y-63569160D02*
X100118927Y-63712062D01*
X100118927Y-63712062D02*
X100023659Y-63807331D01*
X100023659Y-63807331D02*
X99880757Y-63854965D01*
X99880757Y-63854965D02*
X99785489Y-63854965D01*
X101166876Y-63854965D02*
X100595268Y-63854965D01*
X100881072Y-63854965D02*
X100881072Y-62854650D01*
X100881072Y-62854650D02*
X100785804Y-62997552D01*
X100785804Y-62997552D02*
X100690536Y-63092820D01*
X100690536Y-63092820D02*
X100595268Y-63140454D01*
X102433333Y-78154819D02*
X101957143Y-78154819D01*
X101957143Y-78154819D02*
X101957143Y-77154819D01*
X103290476Y-78154819D02*
X102719048Y-78154819D01*
X103004762Y-78154819D02*
X103004762Y-77154819D01*
X103004762Y-77154819D02*
X102909524Y-77297676D01*
X102909524Y-77297676D02*
X102814286Y-77392914D01*
X102814286Y-77392914D02*
X102719048Y-77440533D01*
X159240476Y-70229819D02*
X159240476Y-69229819D01*
X159240476Y-69229819D02*
X159573809Y-69944104D01*
X159573809Y-69944104D02*
X159907142Y-69229819D01*
X159907142Y-69229819D02*
X159907142Y-70229819D01*
X160335714Y-69325057D02*
X160383333Y-69277438D01*
X160383333Y-69277438D02*
X160478571Y-69229819D01*
X160478571Y-69229819D02*
X160716666Y-69229819D01*
X160716666Y-69229819D02*
X160811904Y-69277438D01*
X160811904Y-69277438D02*
X160859523Y-69325057D01*
X160859523Y-69325057D02*
X160907142Y-69420295D01*
X160907142Y-69420295D02*
X160907142Y-69515533D01*
X160907142Y-69515533D02*
X160859523Y-69658390D01*
X160859523Y-69658390D02*
X160288095Y-70229819D01*
X160288095Y-70229819D02*
X160907142Y-70229819D01*
X109533333Y-90559580D02*
X109485714Y-90607200D01*
X109485714Y-90607200D02*
X109342857Y-90654819D01*
X109342857Y-90654819D02*
X109247619Y-90654819D01*
X109247619Y-90654819D02*
X109104762Y-90607200D01*
X109104762Y-90607200D02*
X109009524Y-90511961D01*
X109009524Y-90511961D02*
X108961905Y-90416723D01*
X108961905Y-90416723D02*
X108914286Y-90226247D01*
X108914286Y-90226247D02*
X108914286Y-90083390D01*
X108914286Y-90083390D02*
X108961905Y-89892914D01*
X108961905Y-89892914D02*
X109009524Y-89797676D01*
X109009524Y-89797676D02*
X109104762Y-89702438D01*
X109104762Y-89702438D02*
X109247619Y-89654819D01*
X109247619Y-89654819D02*
X109342857Y-89654819D01*
X109342857Y-89654819D02*
X109485714Y-89702438D01*
X109485714Y-89702438D02*
X109533333Y-89750057D01*
X110438095Y-89654819D02*
X109961905Y-89654819D01*
X109961905Y-89654819D02*
X109914286Y-90131009D01*
X109914286Y-90131009D02*
X109961905Y-90083390D01*
X109961905Y-90083390D02*
X110057143Y-90035771D01*
X110057143Y-90035771D02*
X110295238Y-90035771D01*
X110295238Y-90035771D02*
X110390476Y-90083390D01*
X110390476Y-90083390D02*
X110438095Y-90131009D01*
X110438095Y-90131009D02*
X110485714Y-90226247D01*
X110485714Y-90226247D02*
X110485714Y-90464342D01*
X110485714Y-90464342D02*
X110438095Y-90559580D01*
X110438095Y-90559580D02*
X110390476Y-90607200D01*
X110390476Y-90607200D02*
X110295238Y-90654819D01*
X110295238Y-90654819D02*
X110057143Y-90654819D01*
X110057143Y-90654819D02*
X109961905Y-90607200D01*
X109961905Y-90607200D02*
X109914286Y-90559580D01*
X110438095Y-77954819D02*
X110438095Y-78764342D01*
X110438095Y-78764342D02*
X110485714Y-78859580D01*
X110485714Y-78859580D02*
X110533333Y-78907200D01*
X110533333Y-78907200D02*
X110628571Y-78954819D01*
X110628571Y-78954819D02*
X110819047Y-78954819D01*
X110819047Y-78954819D02*
X110914285Y-78907200D01*
X110914285Y-78907200D02*
X110961904Y-78859580D01*
X110961904Y-78859580D02*
X111009523Y-78764342D01*
X111009523Y-78764342D02*
X111009523Y-77954819D01*
X111390476Y-77954819D02*
X112009523Y-77954819D01*
X112009523Y-77954819D02*
X111676190Y-78335771D01*
X111676190Y-78335771D02*
X111819047Y-78335771D01*
X111819047Y-78335771D02*
X111914285Y-78383390D01*
X111914285Y-78383390D02*
X111961904Y-78431009D01*
X111961904Y-78431009D02*
X112009523Y-78526247D01*
X112009523Y-78526247D02*
X112009523Y-78764342D01*
X112009523Y-78764342D02*
X111961904Y-78859580D01*
X111961904Y-78859580D02*
X111914285Y-78907200D01*
X111914285Y-78907200D02*
X111819047Y-78954819D01*
X111819047Y-78954819D02*
X111533333Y-78954819D01*
X111533333Y-78954819D02*
X111438095Y-78907200D01*
X111438095Y-78907200D02*
X111390476Y-78859580D01*
X176738095Y-118454819D02*
X176738095Y-117454819D01*
X176738095Y-117931009D02*
X177309523Y-117931009D01*
X177309523Y-118454819D02*
X177309523Y-117454819D01*
X177690476Y-117454819D02*
X178309523Y-117454819D01*
X178309523Y-117454819D02*
X177976190Y-117835771D01*
X177976190Y-117835771D02*
X178119047Y-117835771D01*
X178119047Y-117835771D02*
X178214285Y-117883390D01*
X178214285Y-117883390D02*
X178261904Y-117931009D01*
X178261904Y-117931009D02*
X178309523Y-118026247D01*
X178309523Y-118026247D02*
X178309523Y-118264342D01*
X178309523Y-118264342D02*
X178261904Y-118359580D01*
X178261904Y-118359580D02*
X178214285Y-118407200D01*
X178214285Y-118407200D02*
X178119047Y-118454819D01*
X178119047Y-118454819D02*
X177833333Y-118454819D01*
X177833333Y-118454819D02*
X177738095Y-118407200D01*
X177738095Y-118407200D02*
X177690476Y-118359580D01*
X118980682Y-64109580D02*
X118933063Y-64157200D01*
X118933063Y-64157200D02*
X118790206Y-64204819D01*
X118790206Y-64204819D02*
X118694968Y-64204819D01*
X118694968Y-64204819D02*
X118552111Y-64157200D01*
X118552111Y-64157200D02*
X118456873Y-64061961D01*
X118456873Y-64061961D02*
X118409254Y-63966723D01*
X118409254Y-63966723D02*
X118361635Y-63776247D01*
X118361635Y-63776247D02*
X118361635Y-63633390D01*
X118361635Y-63633390D02*
X118409254Y-63442914D01*
X118409254Y-63442914D02*
X118456873Y-63347676D01*
X118456873Y-63347676D02*
X118552111Y-63252438D01*
X118552111Y-63252438D02*
X118694968Y-63204819D01*
X118694968Y-63204819D02*
X118790206Y-63204819D01*
X118790206Y-63204819D02*
X118933063Y-63252438D01*
X118933063Y-63252438D02*
X118980682Y-63300057D01*
X119933063Y-64204819D02*
X119361635Y-64204819D01*
X119647349Y-64204819D02*
X119647349Y-63204819D01*
X119647349Y-63204819D02*
X119552111Y-63347676D01*
X119552111Y-63347676D02*
X119456873Y-63442914D01*
X119456873Y-63442914D02*
X119361635Y-63490533D01*
X131990476Y-70229819D02*
X131990476Y-69229819D01*
X131990476Y-69229819D02*
X132323809Y-69944104D01*
X132323809Y-69944104D02*
X132657142Y-69229819D01*
X132657142Y-69229819D02*
X132657142Y-70229819D01*
X133657142Y-70229819D02*
X133085714Y-70229819D01*
X133371428Y-70229819D02*
X133371428Y-69229819D01*
X133371428Y-69229819D02*
X133276190Y-69372676D01*
X133276190Y-69372676D02*
X133180952Y-69467914D01*
X133180952Y-69467914D02*
X133085714Y-69515533D01*
X174054819Y-104119047D02*
X173578628Y-104452380D01*
X174054819Y-104690475D02*
X173054819Y-104690475D01*
X173054819Y-104690475D02*
X173054819Y-104309523D01*
X173054819Y-104309523D02*
X173102438Y-104214285D01*
X173102438Y-104214285D02*
X173150057Y-104166666D01*
X173150057Y-104166666D02*
X173245295Y-104119047D01*
X173245295Y-104119047D02*
X173388152Y-104119047D01*
X173388152Y-104119047D02*
X173483390Y-104166666D01*
X173483390Y-104166666D02*
X173531009Y-104214285D01*
X173531009Y-104214285D02*
X173578628Y-104309523D01*
X173578628Y-104309523D02*
X173578628Y-104690475D01*
X173531009Y-103690475D02*
X173531009Y-103357142D01*
X174054819Y-103214285D02*
X174054819Y-103690475D01*
X174054819Y-103690475D02*
X173054819Y-103690475D01*
X173054819Y-103690475D02*
X173054819Y-103214285D01*
X174054819Y-102261904D02*
X174054819Y-102833332D01*
X174054819Y-102547618D02*
X173054819Y-102547618D01*
X173054819Y-102547618D02*
X173197676Y-102642856D01*
X173197676Y-102642856D02*
X173292914Y-102738094D01*
X173292914Y-102738094D02*
X173340533Y-102833332D01*
X167709819Y-91216666D02*
X167233628Y-91549999D01*
X167709819Y-91788094D02*
X166709819Y-91788094D01*
X166709819Y-91788094D02*
X166709819Y-91407142D01*
X166709819Y-91407142D02*
X166757438Y-91311904D01*
X166757438Y-91311904D02*
X166805057Y-91264285D01*
X166805057Y-91264285D02*
X166900295Y-91216666D01*
X166900295Y-91216666D02*
X167043152Y-91216666D01*
X167043152Y-91216666D02*
X167138390Y-91264285D01*
X167138390Y-91264285D02*
X167186009Y-91311904D01*
X167186009Y-91311904D02*
X167233628Y-91407142D01*
X167233628Y-91407142D02*
X167233628Y-91788094D01*
X166805057Y-90835713D02*
X166757438Y-90788094D01*
X166757438Y-90788094D02*
X166709819Y-90692856D01*
X166709819Y-90692856D02*
X166709819Y-90454761D01*
X166709819Y-90454761D02*
X166757438Y-90359523D01*
X166757438Y-90359523D02*
X166805057Y-90311904D01*
X166805057Y-90311904D02*
X166900295Y-90264285D01*
X166900295Y-90264285D02*
X166995533Y-90264285D01*
X166995533Y-90264285D02*
X167138390Y-90311904D01*
X167138390Y-90311904D02*
X167709819Y-90883332D01*
X167709819Y-90883332D02*
X167709819Y-90264285D01*
X99333333Y-85109580D02*
X99285714Y-85157200D01*
X99285714Y-85157200D02*
X99142857Y-85204819D01*
X99142857Y-85204819D02*
X99047619Y-85204819D01*
X99047619Y-85204819D02*
X98904762Y-85157200D01*
X98904762Y-85157200D02*
X98809524Y-85061961D01*
X98809524Y-85061961D02*
X98761905Y-84966723D01*
X98761905Y-84966723D02*
X98714286Y-84776247D01*
X98714286Y-84776247D02*
X98714286Y-84633390D01*
X98714286Y-84633390D02*
X98761905Y-84442914D01*
X98761905Y-84442914D02*
X98809524Y-84347676D01*
X98809524Y-84347676D02*
X98904762Y-84252438D01*
X98904762Y-84252438D02*
X99047619Y-84204819D01*
X99047619Y-84204819D02*
X99142857Y-84204819D01*
X99142857Y-84204819D02*
X99285714Y-84252438D01*
X99285714Y-84252438D02*
X99333333Y-84300057D01*
X100190476Y-84538152D02*
X100190476Y-85204819D01*
X99952381Y-84157200D02*
X99714286Y-84871485D01*
X99714286Y-84871485D02*
X100333333Y-84871485D01*
X94266666Y-79231009D02*
X93933333Y-79231009D01*
X93933333Y-79754819D02*
X93933333Y-78754819D01*
X93933333Y-78754819D02*
X94409523Y-78754819D01*
X95314285Y-79754819D02*
X94742857Y-79754819D01*
X95028571Y-79754819D02*
X95028571Y-78754819D01*
X95028571Y-78754819D02*
X94933333Y-78897676D01*
X94933333Y-78897676D02*
X94838095Y-78992914D01*
X94838095Y-78992914D02*
X94742857Y-79040533D01*
X94333333Y-85909580D02*
X94285714Y-85957200D01*
X94285714Y-85957200D02*
X94142857Y-86004819D01*
X94142857Y-86004819D02*
X94047619Y-86004819D01*
X94047619Y-86004819D02*
X93904762Y-85957200D01*
X93904762Y-85957200D02*
X93809524Y-85861961D01*
X93809524Y-85861961D02*
X93761905Y-85766723D01*
X93761905Y-85766723D02*
X93714286Y-85576247D01*
X93714286Y-85576247D02*
X93714286Y-85433390D01*
X93714286Y-85433390D02*
X93761905Y-85242914D01*
X93761905Y-85242914D02*
X93809524Y-85147676D01*
X93809524Y-85147676D02*
X93904762Y-85052438D01*
X93904762Y-85052438D02*
X94047619Y-85004819D01*
X94047619Y-85004819D02*
X94142857Y-85004819D01*
X94142857Y-85004819D02*
X94285714Y-85052438D01*
X94285714Y-85052438D02*
X94333333Y-85100057D01*
X94666667Y-85004819D02*
X95285714Y-85004819D01*
X95285714Y-85004819D02*
X94952381Y-85385771D01*
X94952381Y-85385771D02*
X95095238Y-85385771D01*
X95095238Y-85385771D02*
X95190476Y-85433390D01*
X95190476Y-85433390D02*
X95238095Y-85481009D01*
X95238095Y-85481009D02*
X95285714Y-85576247D01*
X95285714Y-85576247D02*
X95285714Y-85814342D01*
X95285714Y-85814342D02*
X95238095Y-85909580D01*
X95238095Y-85909580D02*
X95190476Y-85957200D01*
X95190476Y-85957200D02*
X95095238Y-86004819D01*
X95095238Y-86004819D02*
X94809524Y-86004819D01*
X94809524Y-86004819D02*
X94714286Y-85957200D01*
X94714286Y-85957200D02*
X94666667Y-85909580D01*
X101733333Y-91354819D02*
X101400000Y-90878628D01*
X101161905Y-91354819D02*
X101161905Y-90354819D01*
X101161905Y-90354819D02*
X101542857Y-90354819D01*
X101542857Y-90354819D02*
X101638095Y-90402438D01*
X101638095Y-90402438D02*
X101685714Y-90450057D01*
X101685714Y-90450057D02*
X101733333Y-90545295D01*
X101733333Y-90545295D02*
X101733333Y-90688152D01*
X101733333Y-90688152D02*
X101685714Y-90783390D01*
X101685714Y-90783390D02*
X101638095Y-90831009D01*
X101638095Y-90831009D02*
X101542857Y-90878628D01*
X101542857Y-90878628D02*
X101161905Y-90878628D01*
X102590476Y-90688152D02*
X102590476Y-91354819D01*
X102352381Y-90307200D02*
X102114286Y-91021485D01*
X102114286Y-91021485D02*
X102733333Y-91021485D01*
X96161905Y-91254819D02*
X96161905Y-90254819D01*
X96161905Y-90254819D02*
X96400000Y-90254819D01*
X96400000Y-90254819D02*
X96542857Y-90302438D01*
X96542857Y-90302438D02*
X96638095Y-90397676D01*
X96638095Y-90397676D02*
X96685714Y-90492914D01*
X96685714Y-90492914D02*
X96733333Y-90683390D01*
X96733333Y-90683390D02*
X96733333Y-90826247D01*
X96733333Y-90826247D02*
X96685714Y-91016723D01*
X96685714Y-91016723D02*
X96638095Y-91111961D01*
X96638095Y-91111961D02*
X96542857Y-91207200D01*
X96542857Y-91207200D02*
X96400000Y-91254819D01*
X96400000Y-91254819D02*
X96161905Y-91254819D01*
X97114286Y-90350057D02*
X97161905Y-90302438D01*
X97161905Y-90302438D02*
X97257143Y-90254819D01*
X97257143Y-90254819D02*
X97495238Y-90254819D01*
X97495238Y-90254819D02*
X97590476Y-90302438D01*
X97590476Y-90302438D02*
X97638095Y-90350057D01*
X97638095Y-90350057D02*
X97685714Y-90445295D01*
X97685714Y-90445295D02*
X97685714Y-90540533D01*
X97685714Y-90540533D02*
X97638095Y-90683390D01*
X97638095Y-90683390D02*
X97066667Y-91254819D01*
X97066667Y-91254819D02*
X97685714Y-91254819D01*
X142599104Y-85064285D02*
X142599104Y-84588095D01*
X142884819Y-85159523D02*
X141884819Y-84826190D01*
X141884819Y-84826190D02*
X142884819Y-84492857D01*
X142884819Y-83635714D02*
X142884819Y-84207142D01*
X142884819Y-83921428D02*
X141884819Y-83921428D01*
X141884819Y-83921428D02*
X142027676Y-84016666D01*
X142027676Y-84016666D02*
X142122914Y-84111904D01*
X142122914Y-84111904D02*
X142170533Y-84207142D01*
X92738095Y-63554819D02*
X92738095Y-62554819D01*
X92738095Y-63031009D02*
X93309523Y-63031009D01*
X93309523Y-63554819D02*
X93309523Y-62554819D01*
X94309523Y-63554819D02*
X93738095Y-63554819D01*
X94023809Y-63554819D02*
X94023809Y-62554819D01*
X94023809Y-62554819D02*
X93928571Y-62697676D01*
X93928571Y-62697676D02*
X93833333Y-62792914D01*
X93833333Y-62792914D02*
X93738095Y-62840533D01*
D11*
%TO.C,SW2*%
X174550000Y-92600000D02*
X174550000Y-93850000D01*
X174550000Y-93850000D02*
X175800000Y-93850000D01*
X174840000Y-83440000D02*
X174840000Y-93560000D01*
X174840000Y-93560000D02*
X180810000Y-93560000D01*
X174850000Y-83450000D02*
X174850000Y-85250000D01*
X174850000Y-85250000D02*
X175600000Y-85250000D01*
X174850000Y-86750000D02*
X174850000Y-90250000D01*
X174850000Y-90250000D02*
X175600000Y-90250000D01*
X174850000Y-91750000D02*
X174850000Y-93550000D01*
X174850000Y-93550000D02*
X175600000Y-93550000D01*
X175600000Y-83450000D02*
X174850000Y-83450000D01*
X175600000Y-85250000D02*
X175600000Y-83450000D01*
X175600000Y-86750000D02*
X174850000Y-86750000D01*
X175600000Y-90250000D02*
X175600000Y-86750000D01*
X175600000Y-91750000D02*
X174850000Y-91750000D01*
X175600000Y-93550000D02*
X175600000Y-91750000D01*
X177100000Y-83450000D02*
X177100000Y-84200000D01*
X177100000Y-84200000D02*
X180050000Y-84200000D01*
X177100000Y-92800000D02*
X180050000Y-92800000D01*
X177100000Y-93550000D02*
X177100000Y-92800000D01*
X180050000Y-84200000D02*
X180050000Y-88500000D01*
X180050000Y-92800000D02*
X180050000Y-88500000D01*
X180810000Y-83440000D02*
X174840000Y-83440000D01*
X180810000Y-93560000D02*
X180810000Y-83440000D01*
%TO.C,R1*%
X168165000Y-79827064D02*
X168165000Y-78372936D01*
X169985000Y-79827064D02*
X169985000Y-78372936D01*
%TO.C,C2*%
X141840302Y-66685000D02*
X142640302Y-66685000D01*
X142240302Y-66285000D02*
X142240302Y-67085000D01*
X146250000Y-64920000D02*
X146250000Y-73080000D01*
X146290000Y-64920000D02*
X146290000Y-73080000D01*
X146330000Y-64920000D02*
X146330000Y-73080000D01*
X146370000Y-64921000D02*
X146370000Y-73079000D01*
X146410000Y-64923000D02*
X146410000Y-73077000D01*
X146450000Y-64924000D02*
X146450000Y-73076000D01*
X146490000Y-64926000D02*
X146490000Y-73074000D01*
X146530000Y-64929000D02*
X146530000Y-73071000D01*
X146570000Y-64932000D02*
X146570000Y-73068000D01*
X146610000Y-64935000D02*
X146610000Y-73065000D01*
X146650000Y-64939000D02*
X146650000Y-73061000D01*
X146690000Y-64943000D02*
X146690000Y-73057000D01*
X146730000Y-64948000D02*
X146730000Y-73052000D01*
X146770000Y-64952000D02*
X146770000Y-73048000D01*
X146810000Y-64958000D02*
X146810000Y-73042000D01*
X146850000Y-64963000D02*
X146850000Y-73037000D01*
X146890000Y-64970000D02*
X146890000Y-73030000D01*
X146930000Y-64976000D02*
X146930000Y-73024000D01*
X146971000Y-64983000D02*
X146971000Y-67960000D01*
X146971000Y-70040000D02*
X146971000Y-73017000D01*
X147011000Y-64990000D02*
X147011000Y-67960000D01*
X147011000Y-70040000D02*
X147011000Y-73010000D01*
X147051000Y-64998000D02*
X147051000Y-67960000D01*
X147051000Y-70040000D02*
X147051000Y-73002000D01*
X147091000Y-65006000D02*
X147091000Y-67960000D01*
X147091000Y-70040000D02*
X147091000Y-72994000D01*
X147131000Y-65015000D02*
X147131000Y-67960000D01*
X147131000Y-70040000D02*
X147131000Y-72985000D01*
X147171000Y-65024000D02*
X147171000Y-67960000D01*
X147171000Y-70040000D02*
X147171000Y-72976000D01*
X147211000Y-65033000D02*
X147211000Y-67960000D01*
X147211000Y-70040000D02*
X147211000Y-72967000D01*
X147251000Y-65043000D02*
X147251000Y-67960000D01*
X147251000Y-70040000D02*
X147251000Y-72957000D01*
X147291000Y-65053000D02*
X147291000Y-67960000D01*
X147291000Y-70040000D02*
X147291000Y-72947000D01*
X147331000Y-65064000D02*
X147331000Y-67960000D01*
X147331000Y-70040000D02*
X147331000Y-72936000D01*
X147371000Y-65075000D02*
X147371000Y-67960000D01*
X147371000Y-70040000D02*
X147371000Y-72925000D01*
X147411000Y-65086000D02*
X147411000Y-67960000D01*
X147411000Y-70040000D02*
X147411000Y-72914000D01*
X147451000Y-65098000D02*
X147451000Y-67960000D01*
X147451000Y-70040000D02*
X147451000Y-72902000D01*
X147491000Y-65111000D02*
X147491000Y-67960000D01*
X147491000Y-70040000D02*
X147491000Y-72889000D01*
X147531000Y-65123000D02*
X147531000Y-67960000D01*
X147531000Y-70040000D02*
X147531000Y-72877000D01*
X147571000Y-65137000D02*
X147571000Y-67960000D01*
X147571000Y-70040000D02*
X147571000Y-72863000D01*
X147611000Y-65150000D02*
X147611000Y-67960000D01*
X147611000Y-70040000D02*
X147611000Y-72850000D01*
X147651000Y-65165000D02*
X147651000Y-67960000D01*
X147651000Y-70040000D02*
X147651000Y-72835000D01*
X147691000Y-65179000D02*
X147691000Y-67960000D01*
X147691000Y-70040000D02*
X147691000Y-72821000D01*
X147731000Y-65195000D02*
X147731000Y-67960000D01*
X147731000Y-70040000D02*
X147731000Y-72805000D01*
X147771000Y-65210000D02*
X147771000Y-67960000D01*
X147771000Y-70040000D02*
X147771000Y-72790000D01*
X147811000Y-65226000D02*
X147811000Y-67960000D01*
X147811000Y-70040000D02*
X147811000Y-72774000D01*
X147851000Y-65243000D02*
X147851000Y-67960000D01*
X147851000Y-70040000D02*
X147851000Y-72757000D01*
X147891000Y-65260000D02*
X147891000Y-67960000D01*
X147891000Y-70040000D02*
X147891000Y-72740000D01*
X147931000Y-65278000D02*
X147931000Y-67960000D01*
X147931000Y-70040000D02*
X147931000Y-72722000D01*
X147971000Y-65296000D02*
X147971000Y-67960000D01*
X147971000Y-70040000D02*
X147971000Y-72704000D01*
X148011000Y-65314000D02*
X148011000Y-67960000D01*
X148011000Y-70040000D02*
X148011000Y-72686000D01*
X148051000Y-65334000D02*
X148051000Y-67960000D01*
X148051000Y-70040000D02*
X148051000Y-72666000D01*
X148091000Y-65353000D02*
X148091000Y-67960000D01*
X148091000Y-70040000D02*
X148091000Y-72647000D01*
X148131000Y-65373000D02*
X148131000Y-67960000D01*
X148131000Y-70040000D02*
X148131000Y-72627000D01*
X148171000Y-65394000D02*
X148171000Y-67960000D01*
X148171000Y-70040000D02*
X148171000Y-72606000D01*
X148211000Y-65416000D02*
X148211000Y-67960000D01*
X148211000Y-70040000D02*
X148211000Y-72584000D01*
X148251000Y-65438000D02*
X148251000Y-67960000D01*
X148251000Y-70040000D02*
X148251000Y-72562000D01*
X148291000Y-65460000D02*
X148291000Y-67960000D01*
X148291000Y-70040000D02*
X148291000Y-72540000D01*
X148331000Y-65483000D02*
X148331000Y-67960000D01*
X148331000Y-70040000D02*
X148331000Y-72517000D01*
X148371000Y-65507000D02*
X148371000Y-67960000D01*
X148371000Y-70040000D02*
X148371000Y-72493000D01*
X148411000Y-65531000D02*
X148411000Y-67960000D01*
X148411000Y-70040000D02*
X148411000Y-72469000D01*
X148451000Y-65556000D02*
X148451000Y-67960000D01*
X148451000Y-70040000D02*
X148451000Y-72444000D01*
X148491000Y-65582000D02*
X148491000Y-67960000D01*
X148491000Y-70040000D02*
X148491000Y-72418000D01*
X148531000Y-65608000D02*
X148531000Y-67960000D01*
X148531000Y-70040000D02*
X148531000Y-72392000D01*
X148571000Y-65635000D02*
X148571000Y-67960000D01*
X148571000Y-70040000D02*
X148571000Y-72365000D01*
X148611000Y-65662000D02*
X148611000Y-67960000D01*
X148611000Y-70040000D02*
X148611000Y-72338000D01*
X148651000Y-65691000D02*
X148651000Y-67960000D01*
X148651000Y-70040000D02*
X148651000Y-72309000D01*
X148691000Y-65720000D02*
X148691000Y-67960000D01*
X148691000Y-70040000D02*
X148691000Y-72280000D01*
X148731000Y-65750000D02*
X148731000Y-67960000D01*
X148731000Y-70040000D02*
X148731000Y-72250000D01*
X148771000Y-65780000D02*
X148771000Y-67960000D01*
X148771000Y-70040000D02*
X148771000Y-72220000D01*
X148811000Y-65811000D02*
X148811000Y-67960000D01*
X148811000Y-70040000D02*
X148811000Y-72189000D01*
X148851000Y-65844000D02*
X148851000Y-67960000D01*
X148851000Y-70040000D02*
X148851000Y-72156000D01*
X148891000Y-65876000D02*
X148891000Y-67960000D01*
X148891000Y-70040000D02*
X148891000Y-72124000D01*
X148931000Y-65910000D02*
X148931000Y-67960000D01*
X148931000Y-70040000D02*
X148931000Y-72090000D01*
X148971000Y-65945000D02*
X148971000Y-67960000D01*
X148971000Y-70040000D02*
X148971000Y-72055000D01*
X149011000Y-65981000D02*
X149011000Y-67960000D01*
X149011000Y-70040000D02*
X149011000Y-72019000D01*
X149051000Y-66017000D02*
X149051000Y-71983000D01*
X149091000Y-66055000D02*
X149091000Y-71945000D01*
X149131000Y-66093000D02*
X149131000Y-71907000D01*
X149171000Y-66133000D02*
X149171000Y-71867000D01*
X149211000Y-66174000D02*
X149211000Y-71826000D01*
X149251000Y-66216000D02*
X149251000Y-71784000D01*
X149291000Y-66259000D02*
X149291000Y-71741000D01*
X149331000Y-66303000D02*
X149331000Y-71697000D01*
X149371000Y-66349000D02*
X149371000Y-71651000D01*
X149411000Y-66396000D02*
X149411000Y-71604000D01*
X149451000Y-66444000D02*
X149451000Y-71556000D01*
X149491000Y-66495000D02*
X149491000Y-71505000D01*
X149531000Y-66546000D02*
X149531000Y-71454000D01*
X149571000Y-66600000D02*
X149571000Y-71400000D01*
X149611000Y-66655000D02*
X149611000Y-71345000D01*
X149651000Y-66713000D02*
X149651000Y-71287000D01*
X149691000Y-66772000D02*
X149691000Y-71228000D01*
X149731000Y-66834000D02*
X149731000Y-71166000D01*
X149771000Y-66898000D02*
X149771000Y-71102000D01*
X149811000Y-66966000D02*
X149811000Y-71034000D01*
X149851000Y-67036000D02*
X149851000Y-70964000D01*
X149891000Y-67110000D02*
X149891000Y-70890000D01*
X149931000Y-67187000D02*
X149931000Y-70813000D01*
X149971000Y-67269000D02*
X149971000Y-70731000D01*
X150011000Y-67355000D02*
X150011000Y-70645000D01*
X150051000Y-67448000D02*
X150051000Y-70552000D01*
X150091000Y-67547000D02*
X150091000Y-70453000D01*
X150131000Y-67654000D02*
X150131000Y-70346000D01*
X150171000Y-67771000D02*
X150171000Y-70229000D01*
X150211000Y-67902000D02*
X150211000Y-70098000D01*
X150251000Y-68052000D02*
X150251000Y-69948000D01*
X150291000Y-68232000D02*
X150291000Y-69768000D01*
X150331000Y-68467000D02*
X150331000Y-69533000D01*
X150370000Y-69000000D02*
G75*
G02*
X142130000Y-69000000I-4120000J0D01*
G01*
X142130000Y-69000000D02*
G75*
G02*
X150370000Y-69000000I4120000J0D01*
G01*
%TO.C,SW1*%
X174550000Y-80600000D02*
X174550000Y-81850000D01*
X174550000Y-81850000D02*
X175800000Y-81850000D01*
X174840000Y-71440000D02*
X174840000Y-81560000D01*
X174840000Y-81560000D02*
X180810000Y-81560000D01*
X174850000Y-71450000D02*
X174850000Y-73250000D01*
X174850000Y-73250000D02*
X175600000Y-73250000D01*
X174850000Y-74750000D02*
X174850000Y-78250000D01*
X174850000Y-78250000D02*
X175600000Y-78250000D01*
X174850000Y-79750000D02*
X174850000Y-81550000D01*
X174850000Y-81550000D02*
X175600000Y-81550000D01*
X175600000Y-71450000D02*
X174850000Y-71450000D01*
X175600000Y-73250000D02*
X175600000Y-71450000D01*
X175600000Y-74750000D02*
X174850000Y-74750000D01*
X175600000Y-78250000D02*
X175600000Y-74750000D01*
X175600000Y-79750000D02*
X174850000Y-79750000D01*
X175600000Y-81550000D02*
X175600000Y-79750000D01*
X177100000Y-71450000D02*
X177100000Y-72200000D01*
X177100000Y-72200000D02*
X180050000Y-72200000D01*
X177100000Y-80800000D02*
X180050000Y-80800000D01*
X177100000Y-81550000D02*
X177100000Y-80800000D01*
X180050000Y-72200000D02*
X180050000Y-76500000D01*
X180050000Y-80800000D02*
X180050000Y-76500000D01*
X180810000Y-71440000D02*
X174840000Y-71440000D01*
X180810000Y-81560000D02*
X180810000Y-71440000D01*
%TO.C,D1*%
X96187500Y-90035000D02*
X98647500Y-90035000D01*
X98647500Y-88565000D02*
X96187500Y-88565000D01*
X98647500Y-90035000D02*
X98647500Y-88565000D01*
%TO.C,R3*%
X101732776Y-88777500D02*
X102242224Y-88777500D01*
X101732776Y-89822500D02*
X102242224Y-89822500D01*
%TO.C,LCD1*%
X165990000Y-97940000D02*
X165990000Y-110560000D01*
X165990000Y-110560000D02*
X171960000Y-110560000D01*
X166750000Y-98700000D02*
X166750000Y-104250000D01*
X166750000Y-109800000D02*
X166750000Y-104250000D01*
X169700000Y-97950000D02*
X169700000Y-98700000D01*
X169700000Y-98700000D02*
X166750000Y-98700000D01*
X169700000Y-109800000D02*
X166750000Y-109800000D01*
X169700000Y-110550000D02*
X169700000Y-109800000D01*
X171200000Y-97950000D02*
X171200000Y-99750000D01*
X171200000Y-99750000D02*
X171950000Y-99750000D01*
X171200000Y-101250000D02*
X171200000Y-107250000D01*
X171200000Y-107250000D02*
X171950000Y-107250000D01*
X171200000Y-108750000D02*
X171200000Y-110550000D01*
X171200000Y-110550000D02*
X171950000Y-110550000D01*
X171950000Y-97950000D02*
X171200000Y-97950000D01*
X171950000Y-99750000D02*
X171950000Y-97950000D01*
X171950000Y-101250000D02*
X171200000Y-101250000D01*
X171950000Y-107250000D02*
X171950000Y-101250000D01*
X171950000Y-108750000D02*
X171200000Y-108750000D01*
X171950000Y-110550000D02*
X171950000Y-108750000D01*
X171960000Y-97940000D02*
X165990000Y-97940000D01*
X171960000Y-110560000D02*
X171960000Y-97940000D01*
X172250000Y-97650000D02*
X171000000Y-97650000D01*
X172250000Y-98900000D02*
X172250000Y-97650000D01*
%TO.C,SW3*%
X90190000Y-70440000D02*
X90190000Y-78060000D01*
X90190000Y-78060000D02*
X96160000Y-78060000D01*
X90950000Y-71200000D02*
X90950000Y-74250000D01*
X90950000Y-77300000D02*
X90950000Y-74250000D01*
X93900000Y-70450000D02*
X93900000Y-71200000D01*
X93900000Y-71200000D02*
X90950000Y-71200000D01*
X93900000Y-77300000D02*
X90950000Y-77300000D01*
X93900000Y-78050000D02*
X93900000Y-77300000D01*
X95400000Y-70450000D02*
X95400000Y-72250000D01*
X95400000Y-72250000D02*
X96150000Y-72250000D01*
X95400000Y-73750000D02*
X95400000Y-74750000D01*
X95400000Y-74750000D02*
X96150000Y-74750000D01*
X95400000Y-76250000D02*
X95400000Y-78050000D01*
X95400000Y-78050000D02*
X96150000Y-78050000D01*
X96150000Y-70450000D02*
X95400000Y-70450000D01*
X96150000Y-72250000D02*
X96150000Y-70450000D01*
X96150000Y-73750000D02*
X95400000Y-73750000D01*
X96150000Y-74750000D02*
X96150000Y-73750000D01*
X96150000Y-76250000D02*
X95400000Y-76250000D01*
X96150000Y-78050000D02*
X96150000Y-76250000D01*
X96160000Y-70440000D02*
X90190000Y-70440000D01*
X96160000Y-78060000D02*
X96160000Y-70440000D01*
X96450000Y-70150000D02*
X95200000Y-70150000D01*
X96450000Y-71400000D02*
X96450000Y-70150000D01*
D10*
%TO.C,U1*%
X101260000Y-100560000D02*
X102530000Y-100560000D01*
X101260000Y-108180000D02*
X101260000Y-100560000D01*
X102530000Y-95480000D02*
X163490000Y-95480000D01*
X102530000Y-108180000D02*
X101260000Y-108180000D01*
X102530000Y-113260000D02*
X102530000Y-95480000D01*
X107610000Y-100560000D02*
X102530000Y-100560000D01*
X107610000Y-108180000D02*
X102530000Y-108180000D01*
X107610000Y-108180000D02*
X107610000Y-100560000D01*
X115760000Y-98018400D02*
X115760000Y-98268400D01*
X125390000Y-98020000D02*
X125390000Y-110720000D01*
X125390000Y-110720000D02*
X138090000Y-110720000D01*
X138090000Y-98020000D02*
X125390000Y-98020000D01*
X138090000Y-110720000D02*
X138090000Y-98020000D01*
X143170000Y-103100000D02*
X146980000Y-103100000D01*
X143170000Y-105640000D02*
X143170000Y-103100000D01*
X146980000Y-103100000D02*
X146980000Y-105640000D01*
X146980000Y-105640000D02*
X143170000Y-105640000D01*
X150790000Y-98020000D02*
X150790000Y-110720000D01*
X150790000Y-110720000D02*
X163490000Y-110720000D01*
X162220000Y-99290000D02*
X162220000Y-109450000D01*
X162220000Y-109450000D02*
X163490000Y-109450000D01*
X163490000Y-95480000D02*
X163490000Y-113260000D01*
X163490000Y-98020000D02*
X150790000Y-98020000D01*
X163490000Y-99290000D02*
X162220000Y-99290000D01*
X163490000Y-113260000D02*
X102530000Y-113260000D01*
X145973026Y-104370000D02*
G75*
G02*
X144176974Y-104370000I-898026J0D01*
G01*
X144176974Y-104370000D02*
G75*
G02*
X145973026Y-104370000I898026J0D01*
G01*
D12*
X133921000Y-103682000D02*
X133667000Y-103936000D01*
X133413000Y-103555000D01*
X133667000Y-103301000D01*
X133921000Y-103682000D01*
G36*
X133921000Y-103682000D02*
G01*
X133667000Y-103936000D01*
X133413000Y-103555000D01*
X133667000Y-103301000D01*
X133921000Y-103682000D01*
G37*
X134302000Y-104190000D02*
X134048000Y-104444000D01*
X133794000Y-104063000D01*
X134048000Y-103809000D01*
X134302000Y-104190000D01*
G36*
X134302000Y-104190000D02*
G01*
X134048000Y-104444000D01*
X133794000Y-104063000D01*
X134048000Y-103809000D01*
X134302000Y-104190000D01*
G37*
X134683000Y-103809000D02*
X134429000Y-104063000D01*
X134175000Y-103682000D01*
X134429000Y-103428000D01*
X134683000Y-103809000D01*
G36*
X134683000Y-103809000D02*
G01*
X134429000Y-104063000D01*
X134175000Y-103682000D01*
X134429000Y-103428000D01*
X134683000Y-103809000D01*
G37*
X134683000Y-104698000D02*
X134429000Y-104952000D01*
X134175000Y-104571000D01*
X134429000Y-104317000D01*
X134683000Y-104698000D01*
G36*
X134683000Y-104698000D02*
G01*
X134429000Y-104952000D01*
X134175000Y-104571000D01*
X134429000Y-104317000D01*
X134683000Y-104698000D01*
G37*
X135064000Y-104317000D02*
X134810000Y-104571000D01*
X134556000Y-104190000D01*
X134810000Y-103936000D01*
X135064000Y-104317000D01*
G36*
X135064000Y-104317000D02*
G01*
X134810000Y-104571000D01*
X134556000Y-104190000D01*
X134810000Y-103936000D01*
X135064000Y-104317000D01*
G37*
X135445000Y-104825000D02*
X135191000Y-105079000D01*
X134937000Y-104698000D01*
X135191000Y-104444000D01*
X135445000Y-104825000D01*
G36*
X135445000Y-104825000D02*
G01*
X135191000Y-105079000D01*
X134937000Y-104698000D01*
X135191000Y-104444000D01*
X135445000Y-104825000D01*
G37*
X135826000Y-104444000D02*
X135572000Y-104698000D01*
X135318000Y-104317000D01*
X135572000Y-104063000D01*
X135826000Y-104444000D01*
G36*
X135826000Y-104444000D02*
G01*
X135572000Y-104698000D01*
X135318000Y-104317000D01*
X135572000Y-104063000D01*
X135826000Y-104444000D01*
G37*
X136207000Y-104063000D02*
X135953000Y-104317000D01*
X135699000Y-103936000D01*
X135953000Y-103682000D01*
X136207000Y-104063000D01*
G36*
X136207000Y-104063000D02*
G01*
X135953000Y-104317000D01*
X135699000Y-103936000D01*
X135953000Y-103682000D01*
X136207000Y-104063000D01*
G37*
D11*
%TO.C,A2*%
X143820000Y-76600000D02*
X143820000Y-92100000D01*
X143820000Y-92100000D02*
X164400000Y-92100000D01*
X161730000Y-76600000D02*
X143820000Y-76600000D01*
X161730000Y-79270000D02*
X143820000Y-79270000D01*
X161730000Y-79270000D02*
X161730000Y-76600000D01*
X164400000Y-76600000D02*
X163000000Y-76600000D01*
X164400000Y-78000000D02*
X164400000Y-76600000D01*
X164400000Y-79270000D02*
X161730000Y-79270000D01*
X164400000Y-89430000D02*
X143820000Y-89430000D01*
X164400000Y-92100000D02*
X164400000Y-79270000D01*
D13*
%TO.C,J1*%
X101750000Y-62200000D02*
X110650000Y-62200000D01*
X101750000Y-76700000D02*
X101750000Y-62200000D01*
X103650000Y-76700000D02*
X101750000Y-76700000D01*
X110650000Y-62200000D02*
X110650000Y-76700000D01*
X110650000Y-76700000D02*
X108850000Y-76700000D01*
D14*
X106300000Y-78000000D02*
G75*
G02*
X106100000Y-78000000I-100000J0D01*
G01*
X106100000Y-78000000D02*
G75*
G02*
X106300000Y-78000000I100000J0D01*
G01*
D11*
%TO.C,L1*%
X100400000Y-78500000D02*
X104800000Y-78500000D01*
X100400000Y-79600000D02*
X100400000Y-78500000D01*
X100400000Y-82900000D02*
X100400000Y-81700000D01*
X104800000Y-78500000D02*
X104800000Y-79700000D01*
X104800000Y-81700000D02*
X104800000Y-82900000D01*
X104800000Y-82900000D02*
X100400000Y-82900000D01*
%TO.C,M2*%
X153740000Y-62715000D02*
X153740000Y-68685000D01*
X153740000Y-68685000D02*
X166360000Y-68685000D01*
X153750000Y-66425000D02*
X154500000Y-66425000D01*
X153750000Y-67925000D02*
X153750000Y-68675000D01*
X153750000Y-68675000D02*
X155550000Y-68675000D01*
X154500000Y-63475000D02*
X160050000Y-63475000D01*
X154500000Y-66425000D02*
X154500000Y-63475000D01*
X155550000Y-67925000D02*
X153750000Y-67925000D01*
X155550000Y-68675000D02*
X155550000Y-67925000D01*
X157050000Y-67925000D02*
X157050000Y-68675000D01*
X157050000Y-68675000D02*
X163050000Y-68675000D01*
X163050000Y-67925000D02*
X157050000Y-67925000D01*
X163050000Y-68675000D02*
X163050000Y-67925000D01*
X164550000Y-67925000D02*
X164550000Y-68675000D01*
X164550000Y-68675000D02*
X166350000Y-68675000D01*
X165400000Y-68975000D02*
X166650000Y-68975000D01*
X165600000Y-63475000D02*
X160050000Y-63475000D01*
X165600000Y-66425000D02*
X165600000Y-63475000D01*
X166350000Y-66425000D02*
X165600000Y-66425000D01*
X166350000Y-67925000D02*
X164550000Y-67925000D01*
X166350000Y-68675000D02*
X166350000Y-67925000D01*
X166360000Y-62715000D02*
X153740000Y-62715000D01*
X166360000Y-68685000D02*
X166360000Y-62715000D01*
X166650000Y-68975000D02*
X166650000Y-67725000D01*
%TO.C,C5*%
X108988748Y-87290000D02*
X110411252Y-87290000D01*
X108988748Y-89110000D02*
X110411252Y-89110000D01*
%TO.C,U3*%
X109350000Y-79590000D02*
X113110000Y-79590000D01*
X109350000Y-86410000D02*
X113110000Y-86410000D01*
X113110000Y-79590000D02*
X113110000Y-80850000D01*
X113110000Y-86410000D02*
X113110000Y-85150000D01*
X108070000Y-79690000D02*
X107830000Y-79360000D01*
X108310000Y-79360000D01*
X108070000Y-79690000D01*
G36*
X108070000Y-79690000D02*
G01*
X107830000Y-79360000D01*
X108310000Y-79360000D01*
X108070000Y-79690000D01*
G37*
D15*
%TO.C,G\u002A\u002A\u002A*%
G36*
X97622256Y-100657431D02*
G01*
X97634299Y-100680814D01*
X97642506Y-100726003D01*
X97620962Y-100717232D01*
X97605879Y-100696098D01*
X97596021Y-100654124D01*
X97600024Y-100646609D01*
X97622256Y-100657431D01*
G37*
G36*
X97640938Y-99902212D02*
G01*
X97690070Y-99959872D01*
X97699364Y-100040662D01*
X97671327Y-100109443D01*
X97599823Y-100172995D01*
X97516507Y-100177204D01*
X97449135Y-100134704D01*
X97403025Y-100052875D01*
X97413964Y-99992276D01*
X97440505Y-99992276D01*
X97450012Y-100060775D01*
X97481205Y-100102633D01*
X97536970Y-100146303D01*
X97586643Y-100142497D01*
X97618021Y-100124859D01*
X97652934Y-100071933D01*
X97645623Y-100004933D01*
X97603700Y-99950164D01*
X97562718Y-99933747D01*
X97480846Y-99944190D01*
X97440505Y-99992276D01*
X97413964Y-99992276D01*
X97417858Y-99970704D01*
X97476764Y-99910960D01*
X97565369Y-99881351D01*
X97640938Y-99902212D01*
G37*
G36*
X97462522Y-100623482D02*
G01*
X97479331Y-100634436D01*
X97520671Y-100702891D01*
X97519717Y-100784069D01*
X97478341Y-100848828D01*
X97464987Y-100857457D01*
X97385307Y-100887472D01*
X97328899Y-100867795D01*
X97286502Y-100814999D01*
X97256475Y-100741476D01*
X97256678Y-100726676D01*
X97307737Y-100726676D01*
X97317686Y-100805172D01*
X97361823Y-100847664D01*
X97422065Y-100844124D01*
X97461600Y-100812020D01*
X97492611Y-100739866D01*
X97472380Y-100679399D01*
X97408691Y-100650523D01*
X97398298Y-100650126D01*
X97333086Y-100667446D01*
X97307737Y-100726676D01*
X97256678Y-100726676D01*
X97257229Y-100686439D01*
X97306871Y-100634217D01*
X97385713Y-100610793D01*
X97462522Y-100623482D01*
G37*
G36*
X95477142Y-101553931D02*
G01*
X95551133Y-101600384D01*
X95600761Y-101670142D01*
X95611268Y-101751117D01*
X95589908Y-101804372D01*
X95518526Y-101863277D01*
X95426717Y-101879654D01*
X95339951Y-101852530D01*
X95301187Y-101815373D01*
X95255093Y-101717892D01*
X95265465Y-101654939D01*
X95300807Y-101654939D01*
X95309631Y-101737371D01*
X95331458Y-101779056D01*
X95397074Y-101838507D01*
X95471160Y-101851424D01*
X95533771Y-101820245D01*
X95564626Y-101750556D01*
X95552390Y-101668184D01*
X95496986Y-101613528D01*
X95407066Y-101580435D01*
X95337479Y-101598433D01*
X95300807Y-101654939D01*
X95265465Y-101654939D01*
X95268754Y-101634980D01*
X95315113Y-101579298D01*
X95393548Y-101542872D01*
X95477142Y-101553931D01*
G37*
G36*
X96644622Y-100050776D02*
G01*
X96720762Y-100108862D01*
X96763366Y-100169520D01*
X96782822Y-100236754D01*
X96763479Y-100297563D01*
X96735669Y-100338363D01*
X96648598Y-100414514D01*
X96551027Y-100434226D01*
X96457060Y-100395654D01*
X96436616Y-100377525D01*
X96383786Y-100286520D01*
X96387116Y-100231182D01*
X96407708Y-100231182D01*
X96425439Y-100295132D01*
X96468687Y-100345454D01*
X96538192Y-100399313D01*
X96604041Y-100402227D01*
X96663220Y-100376397D01*
X96709913Y-100319795D01*
X96725212Y-100235760D01*
X96706280Y-100154288D01*
X96686768Y-100127374D01*
X96615702Y-100092753D01*
X96529093Y-100093590D01*
X96456941Y-100127050D01*
X96437745Y-100150922D01*
X96407708Y-100231182D01*
X96387116Y-100231182D01*
X96389682Y-100188527D01*
X96452460Y-100097651D01*
X96475778Y-100078473D01*
X96546445Y-100036395D01*
X96606200Y-100035961D01*
X96644622Y-100050776D01*
G37*
G36*
X94732158Y-99009323D02*
G01*
X94865152Y-99056017D01*
X94991358Y-99159031D01*
X95077052Y-99298579D01*
X95118819Y-99458872D01*
X95113244Y-99624119D01*
X95056913Y-99778529D01*
X95030255Y-99819494D01*
X94908330Y-99965173D01*
X94760507Y-100110099D01*
X94604729Y-100238653D01*
X94458937Y-100335214D01*
X94408229Y-100361023D01*
X94226545Y-100430478D01*
X94075671Y-100457159D01*
X93940424Y-100443005D01*
X93889665Y-100427211D01*
X93737874Y-100349611D01*
X93643915Y-100247205D01*
X93605296Y-100116991D01*
X93603979Y-100082815D01*
X93610669Y-100042159D01*
X93647396Y-100042159D01*
X93649397Y-100171873D01*
X93686553Y-100255710D01*
X93793283Y-100342554D01*
X93937497Y-100392571D01*
X94102674Y-100403546D01*
X94272295Y-100373259D01*
X94348066Y-100344499D01*
X94525252Y-100246980D01*
X94693603Y-100123164D01*
X94843613Y-99983275D01*
X94965773Y-99837538D01*
X95050578Y-99696177D01*
X95088519Y-99569418D01*
X95089647Y-99546954D01*
X95066032Y-99403295D01*
X95003363Y-99262377D01*
X94913900Y-99146195D01*
X94833081Y-99086729D01*
X94660596Y-99033807D01*
X94483427Y-99044316D01*
X94302868Y-99117821D01*
X94120213Y-99253892D01*
X94014950Y-99360063D01*
X93873619Y-99536280D01*
X93762953Y-99714966D01*
X93686397Y-99886725D01*
X93647396Y-100042159D01*
X93610669Y-100042159D01*
X93628980Y-99930884D01*
X93697427Y-99756257D01*
X93800300Y-99573135D01*
X93928578Y-99395720D01*
X94073241Y-99238210D01*
X94214033Y-99122412D01*
X94379281Y-99039413D01*
X94558221Y-99001082D01*
X94732158Y-99009323D01*
G37*
G36*
X92918833Y-96529917D02*
G01*
X92950080Y-96564817D01*
X93165812Y-96820168D01*
X93344637Y-97033030D01*
X93491545Y-97209484D01*
X93611528Y-97355606D01*
X93709575Y-97477477D01*
X93790677Y-97581175D01*
X93859824Y-97672779D01*
X93861422Y-97674940D01*
X93977994Y-97840506D01*
X94101584Y-98029419D01*
X94221613Y-98224337D01*
X94327499Y-98407919D01*
X94408663Y-98562824D01*
X94426817Y-98601574D01*
X94469681Y-98683252D01*
X94509819Y-98717236D01*
X94563118Y-98717193D01*
X94621958Y-98701264D01*
X94640657Y-98689015D01*
X94629947Y-98655714D01*
X94600645Y-98574081D01*
X94556996Y-98455722D01*
X94503243Y-98312246D01*
X94492521Y-98283852D01*
X94311955Y-97849729D01*
X94110933Y-97444969D01*
X93896722Y-97083614D01*
X93792767Y-96931672D01*
X93704477Y-96803552D01*
X93643453Y-96704272D01*
X93611046Y-96638489D01*
X93608608Y-96610858D01*
X93637491Y-96626035D01*
X93699046Y-96688676D01*
X93733940Y-96729040D01*
X93956691Y-97026305D01*
X94170228Y-97379060D01*
X94375996Y-97789977D01*
X94575440Y-98261731D01*
X94609417Y-98349737D01*
X94670248Y-98505409D01*
X94716270Y-98610729D01*
X94753495Y-98676014D01*
X94787930Y-98711581D01*
X94825587Y-98727747D01*
X94830224Y-98728792D01*
X95085234Y-98807281D01*
X95308939Y-98925088D01*
X95492854Y-99075798D01*
X95628492Y-99252994D01*
X95685304Y-99375250D01*
X95708715Y-99481162D01*
X95723206Y-99628658D01*
X95728445Y-99795761D01*
X95724103Y-99960492D01*
X95709848Y-100100872D01*
X95697132Y-100161669D01*
X95652531Y-100256399D01*
X95568884Y-100375538D01*
X95476882Y-100482376D01*
X95290203Y-100682197D01*
X95401211Y-100826515D01*
X95471557Y-100910840D01*
X95528880Y-100954146D01*
X95594597Y-100969525D01*
X95637282Y-100970833D01*
X95673950Y-100968161D01*
X95797734Y-100968161D01*
X95803631Y-101009757D01*
X95814578Y-101010253D01*
X95822234Y-100967330D01*
X95817110Y-100948785D01*
X95802870Y-100936637D01*
X95797734Y-100968161D01*
X95673950Y-100968161D01*
X95719483Y-100964843D01*
X95750111Y-100943504D01*
X95749045Y-100922727D01*
X95725367Y-100794444D01*
X95768195Y-100794444D01*
X95773235Y-100839973D01*
X95784371Y-100834533D01*
X95788607Y-100768873D01*
X95784371Y-100754356D01*
X95772666Y-100750327D01*
X95768195Y-100794444D01*
X95725367Y-100794444D01*
X95712420Y-100724298D01*
X95716620Y-100666161D01*
X95731061Y-100666161D01*
X95742795Y-100692559D01*
X95752441Y-100687542D01*
X95756280Y-100649481D01*
X95752441Y-100644781D01*
X95733375Y-100649183D01*
X95731061Y-100666161D01*
X95716620Y-100666161D01*
X95723731Y-100567724D01*
X95724962Y-100564467D01*
X95783371Y-100564467D01*
X95788323Y-100569949D01*
X95830398Y-100560341D01*
X95914275Y-100535244D01*
X96013470Y-100502864D01*
X96132217Y-100456294D01*
X96196320Y-100409837D01*
X96214311Y-100352501D01*
X96194719Y-100273297D01*
X96193712Y-100270656D01*
X96175388Y-100243768D01*
X96138246Y-100240386D01*
X96064583Y-100260593D01*
X96032286Y-100271413D01*
X95925573Y-100320837D01*
X95855500Y-100393054D01*
X95825549Y-100445047D01*
X95792695Y-100519863D01*
X95783371Y-100564467D01*
X95724962Y-100564467D01*
X95747214Y-100505580D01*
X95764742Y-100463764D01*
X95777637Y-100409724D01*
X95786364Y-100334549D01*
X95791389Y-100229328D01*
X95793177Y-100085149D01*
X95792823Y-100016124D01*
X95830097Y-100016124D01*
X95831843Y-100141285D01*
X95836454Y-100224349D01*
X95844336Y-100272658D01*
X95855901Y-100293554D01*
X95871557Y-100294377D01*
X95871686Y-100294328D01*
X95913015Y-100251690D01*
X95935906Y-100190439D01*
X95938241Y-100172900D01*
X95991155Y-100172900D01*
X95998472Y-100215883D01*
X96014722Y-100231975D01*
X96040736Y-100228591D01*
X96074669Y-100214273D01*
X96212333Y-100214273D01*
X96236728Y-100255997D01*
X96262374Y-100318947D01*
X96258967Y-100353210D01*
X96268359Y-100399162D01*
X96310685Y-100419503D01*
X96361684Y-100450100D01*
X96360807Y-100489956D01*
X96357937Y-100526959D01*
X96400220Y-100523216D01*
X96470287Y-100529978D01*
X96500485Y-100553585D01*
X96546397Y-100584572D01*
X96583651Y-100567695D01*
X96647055Y-100547206D01*
X96687667Y-100552164D01*
X96742598Y-100550096D01*
X96766381Y-100506707D01*
X96800902Y-100454073D01*
X96833491Y-100441666D01*
X96868829Y-100421103D01*
X96866720Y-100397696D01*
X96873417Y-100342289D01*
X96900043Y-100303528D01*
X96930016Y-100254609D01*
X96915129Y-100231632D01*
X96893084Y-100186780D01*
X96894960Y-100162082D01*
X96936705Y-100162082D01*
X96952568Y-100204534D01*
X97008466Y-100233263D01*
X97097822Y-100247403D01*
X97191215Y-100245012D01*
X97258400Y-100224698D01*
X97278313Y-100175960D01*
X97267451Y-100128977D01*
X97230746Y-100076748D01*
X97160633Y-100057727D01*
X97129461Y-100056818D01*
X97032223Y-100072023D01*
X96963769Y-100110620D01*
X96936705Y-100162082D01*
X96894960Y-100162082D01*
X96895955Y-100148991D01*
X96884483Y-100083528D01*
X96850643Y-100055270D01*
X96801109Y-100010572D01*
X96799471Y-100006089D01*
X97302526Y-100006089D01*
X97312799Y-100127629D01*
X97350217Y-100205717D01*
X97424681Y-100258680D01*
X97443626Y-100267325D01*
X97560770Y-100294893D01*
X97666917Y-100265128D01*
X97743498Y-100207895D01*
X97807829Y-100112655D01*
X97820224Y-100006420D01*
X97787273Y-99904442D01*
X97715565Y-99821972D01*
X97611691Y-99774261D01*
X97553501Y-99768182D01*
X97426546Y-99792905D01*
X97341559Y-99863675D01*
X97303920Y-99975391D01*
X97302526Y-100006089D01*
X96799471Y-100006089D01*
X96789394Y-99978515D01*
X96765357Y-99947922D01*
X96728872Y-99950367D01*
X96669383Y-99948500D01*
X96647452Y-99932380D01*
X96603422Y-99913658D01*
X96529182Y-99918197D01*
X96451949Y-99940694D01*
X96398943Y-99975844D01*
X96394934Y-99981591D01*
X96345308Y-100020519D01*
X96322775Y-100024747D01*
X96285715Y-100052509D01*
X96276263Y-100102251D01*
X96261629Y-100166938D01*
X96236175Y-100193248D01*
X96212333Y-100214273D01*
X96074669Y-100214273D01*
X96077345Y-100213144D01*
X96103791Y-100201567D01*
X96181603Y-100170590D01*
X96230576Y-100153941D01*
X96235814Y-100153030D01*
X96241847Y-100127215D01*
X96235208Y-100090068D01*
X96238573Y-100032893D01*
X96266746Y-99986210D01*
X96303588Y-99971883D01*
X96316704Y-99979666D01*
X96343308Y-99969843D01*
X96372336Y-99928795D01*
X96420924Y-99878836D01*
X96459176Y-99878495D01*
X96524542Y-99876604D01*
X96552929Y-99861020D01*
X96603606Y-99842298D01*
X96648757Y-99867449D01*
X96724202Y-99904170D01*
X96769022Y-99911464D01*
X96819857Y-99927732D01*
X96829483Y-99952588D01*
X96851484Y-99982392D01*
X96925695Y-99992185D01*
X97030212Y-99983044D01*
X97075647Y-99958137D01*
X97060455Y-99919353D01*
X97013236Y-99885145D01*
X96941266Y-99835764D01*
X96924499Y-99793522D01*
X96961238Y-99739808D01*
X96996806Y-99705024D01*
X97076245Y-99595868D01*
X97134831Y-99449181D01*
X97164716Y-99290241D01*
X97162646Y-99170974D01*
X97112403Y-98976916D01*
X97024763Y-98816731D01*
X96908238Y-98695071D01*
X96771337Y-98616585D01*
X96622571Y-98585922D01*
X96470451Y-98607734D01*
X96323487Y-98686669D01*
X96304396Y-98702047D01*
X96231761Y-98773716D01*
X96174563Y-98858341D01*
X96129807Y-98965716D01*
X96094497Y-99105631D01*
X96065636Y-99287879D01*
X96040229Y-99522253D01*
X96034629Y-99583773D01*
X96014510Y-99808463D01*
X96000004Y-99976605D01*
X95991943Y-100095612D01*
X95991155Y-100172900D01*
X95938241Y-100172900D01*
X95944181Y-100128287D01*
X95955687Y-100016313D01*
X95969094Y-99868675D01*
X95983069Y-99699530D01*
X95987694Y-99639899D01*
X96003038Y-99460795D01*
X96020486Y-99292749D01*
X96038154Y-99151904D01*
X96054155Y-99054400D01*
X96058088Y-99037038D01*
X96127231Y-98865474D01*
X96235625Y-98716046D01*
X96368778Y-98607894D01*
X96392801Y-98595006D01*
X96516793Y-98533459D01*
X96394440Y-98523381D01*
X96238016Y-98541522D01*
X96088991Y-98617751D01*
X95958286Y-98746113D01*
X95939521Y-98771490D01*
X95843308Y-98907596D01*
X95833557Y-99610148D01*
X95830804Y-99841526D01*
X95830097Y-100016124D01*
X95792823Y-100016124D01*
X95792192Y-99893102D01*
X95789630Y-99692886D01*
X95786446Y-99461203D01*
X95785108Y-99283994D01*
X95786355Y-99151600D01*
X95790927Y-99054365D01*
X95799562Y-98982630D01*
X95813000Y-98926737D01*
X95831981Y-98877029D01*
X95855948Y-98826476D01*
X95967455Y-98666860D01*
X96115724Y-98554564D01*
X96289711Y-98494316D01*
X96478373Y-98490842D01*
X96584167Y-98514773D01*
X96684983Y-98543700D01*
X96762869Y-98562869D01*
X96896151Y-98622655D01*
X97015537Y-98733828D01*
X97112110Y-98883827D01*
X97176949Y-99060089D01*
X97197028Y-99174350D01*
X97189572Y-99392909D01*
X97121096Y-99593147D01*
X97056332Y-99696104D01*
X96978430Y-99800415D01*
X97068319Y-99879497D01*
X97134295Y-99931578D01*
X97181709Y-99958591D01*
X97186879Y-99959592D01*
X97222838Y-99937834D01*
X97282377Y-99881291D01*
X97318882Y-99841070D01*
X97393033Y-99765633D01*
X97460483Y-99730464D01*
X97548692Y-99721543D01*
X97552986Y-99721533D01*
X97690415Y-99748498D01*
X97792689Y-99821781D01*
X97852599Y-99929966D01*
X97862932Y-100061638D01*
X97834519Y-100167247D01*
X97806509Y-100271666D01*
X97788199Y-100414107D01*
X97780218Y-100572768D01*
X97783197Y-100725842D01*
X97797768Y-100851527D01*
X97813126Y-100906692D01*
X97836272Y-101003504D01*
X97835310Y-101088688D01*
X97833286Y-101150755D01*
X97866580Y-101197842D01*
X97930346Y-101240625D01*
X97995104Y-101282210D01*
X98026110Y-101322075D01*
X98032266Y-101382632D01*
X98023678Y-101475548D01*
X98004081Y-101636178D01*
X97983346Y-101750963D01*
X97955235Y-101838001D01*
X97913512Y-101915384D01*
X97851939Y-102001208D01*
X97834869Y-102023329D01*
X97761220Y-102125679D01*
X97703551Y-102219604D01*
X97674666Y-102283892D01*
X97635064Y-102359169D01*
X97590783Y-102398182D01*
X97556284Y-102412444D01*
X97537174Y-102400451D01*
X97528932Y-102350196D01*
X97527037Y-102249675D01*
X97527021Y-102228849D01*
X97539251Y-102065931D01*
X97576502Y-101960331D01*
X97639608Y-101909960D01*
X97656182Y-101906210D01*
X97745105Y-101870365D01*
X97782267Y-101796970D01*
X97783586Y-101774876D01*
X97772340Y-101725895D01*
X97728549Y-101691175D01*
X97637137Y-101659092D01*
X97631250Y-101657407D01*
X97527842Y-101630941D01*
X97450955Y-101623631D01*
X97366299Y-101634239D01*
X97310543Y-101645832D01*
X97254149Y-101684115D01*
X97233072Y-101751436D01*
X97243878Y-101825717D01*
X97283134Y-101884884D01*
X97347406Y-101906859D01*
X97351100Y-101906596D01*
X97385098Y-101908936D01*
X97402901Y-101932940D01*
X97408109Y-101992429D01*
X97404321Y-102101225D01*
X97403901Y-102109343D01*
X97387108Y-102252296D01*
X97355796Y-102348178D01*
X97312833Y-102390952D01*
X97273532Y-102383846D01*
X97245710Y-102337721D01*
X97240403Y-102301767D01*
X97270455Y-102301767D01*
X97282189Y-102328165D01*
X97291835Y-102323148D01*
X97295674Y-102285088D01*
X97291835Y-102280387D01*
X97272769Y-102284789D01*
X97270455Y-102301767D01*
X97240403Y-102301767D01*
X97238384Y-102288084D01*
X97222955Y-102225531D01*
X97182153Y-102127642D01*
X97124201Y-102013717D01*
X97112769Y-101993323D01*
X97050078Y-101880077D01*
X97013925Y-101797326D01*
X96998606Y-101720113D01*
X96998542Y-101687052D01*
X97049880Y-101687052D01*
X97056942Y-101778784D01*
X97080359Y-101858113D01*
X97126530Y-101950231D01*
X97173037Y-102031055D01*
X97231983Y-102125298D01*
X97276883Y-102184463D01*
X97300571Y-102199612D01*
X97302526Y-102192558D01*
X97297319Y-102173485D01*
X97343331Y-102173485D01*
X97345833Y-102242849D01*
X97352229Y-102261890D01*
X97357230Y-102245644D01*
X97362535Y-102152190D01*
X97357230Y-102101326D01*
X97349299Y-102086128D01*
X97344267Y-102126421D01*
X97343331Y-102173485D01*
X97297319Y-102173485D01*
X97286349Y-102133304D01*
X97244636Y-102043688D01*
X97204512Y-101973181D01*
X97200326Y-101965025D01*
X97334596Y-101965025D01*
X97350632Y-101981060D01*
X97366667Y-101965025D01*
X97350632Y-101948990D01*
X97334596Y-101965025D01*
X97200326Y-101965025D01*
X97167409Y-101900884D01*
X97206313Y-101900884D01*
X97222349Y-101916919D01*
X97238384Y-101900884D01*
X97222349Y-101884848D01*
X97206313Y-101900884D01*
X97167409Y-101900884D01*
X97143125Y-101853564D01*
X97134128Y-101820707D01*
X97174243Y-101820707D01*
X97185977Y-101847105D01*
X97195623Y-101842087D01*
X97199461Y-101804027D01*
X97195623Y-101799326D01*
X97176557Y-101803729D01*
X97174243Y-101820707D01*
X97134128Y-101820707D01*
X97116282Y-101755531D01*
X97116318Y-101729671D01*
X97129619Y-101679582D01*
X97133135Y-101676389D01*
X97174243Y-101676389D01*
X97190278Y-101692424D01*
X97206313Y-101676389D01*
X97190278Y-101660353D01*
X97174243Y-101676389D01*
X97133135Y-101676389D01*
X97165604Y-101646904D01*
X97240178Y-101621218D01*
X97305249Y-101605887D01*
X97419295Y-101585109D01*
X97505194Y-101585555D01*
X97595981Y-101609191D01*
X97641992Y-101625929D01*
X97752719Y-101681226D01*
X97805061Y-101746373D01*
X97800834Y-101829672D01*
X97741857Y-101939428D01*
X97717985Y-101973043D01*
X97656384Y-102049794D01*
X97606874Y-102099231D01*
X97588387Y-102109343D01*
X97566549Y-102136862D01*
X97559091Y-102191437D01*
X97563680Y-102225515D01*
X97582113Y-102226086D01*
X97621387Y-102187584D01*
X97688502Y-102104444D01*
X97720215Y-102063312D01*
X97797880Y-101953587D01*
X97858908Y-101851709D01*
X97892390Y-101776310D01*
X97895037Y-101764741D01*
X97918976Y-101604306D01*
X97921737Y-101577504D01*
X97946472Y-101577504D01*
X97952368Y-101619100D01*
X97963316Y-101619597D01*
X97970972Y-101576674D01*
X97965848Y-101558128D01*
X97951607Y-101545980D01*
X97946472Y-101577504D01*
X97921737Y-101577504D01*
X97930348Y-101493912D01*
X97926807Y-101420278D01*
X97906006Y-101370124D01*
X97865598Y-101330169D01*
X97811616Y-101292673D01*
X97739491Y-101240300D01*
X97699584Y-101202044D01*
X97696707Y-101191341D01*
X97731279Y-101196868D01*
X97794853Y-101232725D01*
X97869278Y-101285753D01*
X97936408Y-101342795D01*
X97978092Y-101390693D01*
X97981774Y-101398007D01*
X97999514Y-101435086D01*
X98005153Y-101411723D01*
X98005827Y-101397311D01*
X97982130Y-101349705D01*
X97918229Y-101285469D01*
X97858892Y-101240083D01*
X97773276Y-101183267D01*
X97723221Y-101160180D01*
X97692224Y-101167088D01*
X97666468Y-101196566D01*
X97631611Y-101251728D01*
X97635803Y-101288508D01*
X97686423Y-101326875D01*
X97722308Y-101347699D01*
X97792810Y-101400934D01*
X97804021Y-101443998D01*
X97760205Y-101475360D01*
X97665628Y-101493487D01*
X97524556Y-101496849D01*
X97342614Y-101484057D01*
X97215881Y-101461982D01*
X97150461Y-101430238D01*
X97147120Y-101390608D01*
X97153607Y-101385622D01*
X97270455Y-101385622D01*
X97297534Y-101416728D01*
X97359327Y-101443180D01*
X97426668Y-101454534D01*
X97453589Y-101451198D01*
X97453180Y-101444546D01*
X97543043Y-101444546D01*
X97562169Y-101462992D01*
X97629368Y-101467827D01*
X97654175Y-101467929D01*
X97734937Y-101462004D01*
X97780120Y-101447189D01*
X97783586Y-101441006D01*
X97758418Y-101413025D01*
X97701124Y-101376604D01*
X97639018Y-101347405D01*
X97606817Y-101339646D01*
X97583188Y-101364150D01*
X97559091Y-101403788D01*
X97543043Y-101444546D01*
X97453180Y-101444546D01*
X97451858Y-101423055D01*
X97441357Y-101376520D01*
X97409686Y-101323485D01*
X97375865Y-101321797D01*
X97315953Y-101338089D01*
X97299903Y-101339646D01*
X97273441Y-101365509D01*
X97270455Y-101385622D01*
X97153607Y-101385622D01*
X97206624Y-101344873D01*
X97270455Y-101316166D01*
X97364491Y-101265086D01*
X97398673Y-101210464D01*
X97398738Y-101207974D01*
X97393717Y-101177869D01*
X97369636Y-101171668D01*
X97312970Y-101190985D01*
X97230366Y-101228079D01*
X97061995Y-101305986D01*
X97052771Y-101557726D01*
X97049880Y-101687052D01*
X96998542Y-101687052D01*
X96998419Y-101623482D01*
X97004912Y-101521362D01*
X97017752Y-101385952D01*
X97034824Y-101303358D01*
X97059066Y-101262266D01*
X97074403Y-101253870D01*
X97189337Y-101209185D01*
X97241685Y-101166544D01*
X97240968Y-101162025D01*
X97441429Y-101162025D01*
X97443413Y-101197951D01*
X97461088Y-101271598D01*
X97462879Y-101296056D01*
X97473672Y-101330360D01*
X97498015Y-101317284D01*
X97523858Y-101268256D01*
X97526234Y-101259470D01*
X97559091Y-101259470D01*
X97575127Y-101275505D01*
X97591162Y-101259470D01*
X97575127Y-101243434D01*
X97559091Y-101259470D01*
X97526234Y-101259470D01*
X97534779Y-101227873D01*
X97535902Y-101179293D01*
X97591162Y-101179293D01*
X97602896Y-101205691D01*
X97612542Y-101200673D01*
X97616381Y-101162613D01*
X97612542Y-101157912D01*
X97593476Y-101162315D01*
X97591162Y-101179293D01*
X97535902Y-101179293D01*
X97536180Y-101167257D01*
X97500433Y-101147710D01*
X97487071Y-101147222D01*
X97441429Y-101162025D01*
X97240968Y-101162025D01*
X97235527Y-101127744D01*
X97212509Y-101065008D01*
X97212324Y-101040266D01*
X97270455Y-101040266D01*
X97290502Y-101068703D01*
X97355290Y-101088564D01*
X97471786Y-101101263D01*
X97599180Y-101106994D01*
X97692284Y-101106119D01*
X97737624Y-101092231D01*
X97751201Y-101059239D01*
X97751515Y-101049011D01*
X97748574Y-101032302D01*
X97786118Y-101032302D01*
X97792014Y-101073898D01*
X97802962Y-101074395D01*
X97810618Y-101031472D01*
X97805494Y-101012926D01*
X97791254Y-101000778D01*
X97786118Y-101032302D01*
X97748574Y-101032302D01*
X97745929Y-101017273D01*
X97720319Y-100999348D01*
X97661408Y-100992205D01*
X97555921Y-100992816D01*
X97510985Y-100994128D01*
X97369068Y-101003481D01*
X97289692Y-101020742D01*
X97270455Y-101040266D01*
X97212324Y-101040266D01*
X97212117Y-101012687D01*
X97205095Y-100930528D01*
X97158748Y-100894991D01*
X97080654Y-100908946D01*
X97023310Y-100941180D01*
X96944603Y-100980028D01*
X96819447Y-101025081D01*
X96664450Y-101070792D01*
X96547556Y-101100102D01*
X96380485Y-101139716D01*
X96268789Y-101173585D01*
X96205665Y-101211703D01*
X96184306Y-101264065D01*
X96197910Y-101340664D01*
X96239671Y-101451495D01*
X96265497Y-101514371D01*
X96309575Y-101625631D01*
X96330590Y-101699438D01*
X96330699Y-101757313D01*
X96312056Y-101820779D01*
X96299466Y-101853483D01*
X96269616Y-101935512D01*
X96265497Y-101976801D01*
X96287448Y-101995511D01*
X96302214Y-102000339D01*
X96359867Y-102022697D01*
X96451439Y-102063704D01*
X96525051Y-102098873D01*
X96723089Y-102230386D01*
X96878832Y-102405670D01*
X96985777Y-102615269D01*
X97036800Y-102843044D01*
X97061396Y-102978402D01*
X97102393Y-103074300D01*
X97114321Y-103089655D01*
X97143544Y-103125672D01*
X97155763Y-103162048D01*
X97149890Y-103214942D01*
X97124841Y-103300511D01*
X97093954Y-103392502D01*
X97057542Y-103512332D01*
X97034627Y-103613492D01*
X97029355Y-103676977D01*
X97030579Y-103682871D01*
X97027637Y-103737460D01*
X97005076Y-103831501D01*
X96969464Y-103946023D01*
X96927374Y-104062053D01*
X96885374Y-104160620D01*
X96850035Y-104222750D01*
X96840235Y-104232526D01*
X96814938Y-104271785D01*
X96777545Y-104356168D01*
X96735001Y-104469551D01*
X96722834Y-104505127D01*
X96639164Y-104755177D01*
X96497802Y-104746048D01*
X96414091Y-104742657D01*
X96384740Y-104749841D01*
X96400312Y-104771540D01*
X96412563Y-104781654D01*
X96463239Y-104839195D01*
X96453107Y-104879272D01*
X96383962Y-104898377D01*
X96352209Y-104899495D01*
X96263736Y-104911711D01*
X96186812Y-104957179D01*
X96127397Y-105014362D01*
X96019063Y-105129230D01*
X96088624Y-105185557D01*
X96135715Y-105243491D01*
X96122896Y-105287385D01*
X96053732Y-105312423D01*
X95991734Y-105316414D01*
X95888255Y-105332418D01*
X95801758Y-105390141D01*
X95779696Y-105412073D01*
X95723441Y-105474752D01*
X95707908Y-105514021D01*
X95728291Y-105551658D01*
X95744767Y-105570406D01*
X95782796Y-105636221D01*
X95761436Y-105680550D01*
X95682699Y-105700449D01*
X95655283Y-105701262D01*
X95560734Y-105720909D01*
X95468751Y-105787145D01*
X95447931Y-105807829D01*
X95386416Y-105873862D01*
X95365170Y-105913090D01*
X95379656Y-105944605D01*
X95408813Y-105972469D01*
X95454256Y-106030271D01*
X95439513Y-106067592D01*
X95364152Y-106084989D01*
X95320267Y-106086490D01*
X95257423Y-106091615D01*
X95204135Y-106113284D01*
X95146251Y-106161637D01*
X95069622Y-106246811D01*
X95029317Y-106294950D01*
X94950024Y-106389519D01*
X94887933Y-106461619D01*
X94852975Y-106499796D01*
X94848919Y-106503030D01*
X94838024Y-106475431D01*
X94822192Y-106408433D01*
X94821055Y-106402809D01*
X94806285Y-106294068D01*
X94805025Y-106270517D01*
X94866109Y-106270517D01*
X94867066Y-106422853D01*
X94993435Y-106278535D01*
X95061070Y-106197139D01*
X95107306Y-106133564D01*
X95120760Y-106106423D01*
X95095685Y-106092080D01*
X95049558Y-106097968D01*
X94966245Y-106114019D01*
X94921276Y-106117744D01*
X94886488Y-106130001D01*
X94869904Y-106176050D01*
X94866109Y-106270517D01*
X94805025Y-106270517D01*
X94801010Y-106195478D01*
X94783000Y-106100406D01*
X94736869Y-106054040D01*
X94685788Y-106008053D01*
X94678219Y-105987584D01*
X94725930Y-105987584D01*
X94736869Y-106005934D01*
X94772842Y-106029511D01*
X94840942Y-106044405D01*
X94952172Y-106052085D01*
X95097501Y-106054040D01*
X95242642Y-106053002D01*
X95333250Y-106048792D01*
X95378914Y-106039767D01*
X95389222Y-106024284D01*
X95378283Y-106005934D01*
X95342310Y-105982357D01*
X95274210Y-105967463D01*
X95162981Y-105959784D01*
X95017652Y-105957828D01*
X94872510Y-105958866D01*
X94781902Y-105963076D01*
X94736238Y-105972101D01*
X94725930Y-105987584D01*
X94678219Y-105987584D01*
X94672728Y-105972735D01*
X94699420Y-105934655D01*
X94736869Y-105925757D01*
X94788078Y-105902095D01*
X94806666Y-105845132D01*
X94805252Y-105837342D01*
X94865152Y-105837342D01*
X94865152Y-105934968D01*
X95091528Y-105913929D01*
X95218022Y-105898742D01*
X95299896Y-105877362D01*
X95356667Y-105842753D01*
X95393471Y-105805093D01*
X95441460Y-105747432D01*
X95463652Y-105716938D01*
X95463749Y-105715605D01*
X95431643Y-105716164D01*
X95349893Y-105719066D01*
X95232933Y-105723776D01*
X95161806Y-105726814D01*
X94865152Y-105739715D01*
X94865152Y-105837342D01*
X94805252Y-105837342D01*
X94794098Y-105775901D01*
X94768806Y-105739715D01*
X94751836Y-105715436D01*
X94720834Y-105695427D01*
X94661660Y-105654417D01*
X94645864Y-105625477D01*
X94710483Y-105625477D01*
X94714691Y-105640641D01*
X94741444Y-105658103D01*
X94789836Y-105675802D01*
X94865813Y-105686057D01*
X94979436Y-105689306D01*
X95140770Y-105685988D01*
X95266036Y-105680966D01*
X95428521Y-105673069D01*
X95566449Y-105665184D01*
X95667974Y-105658078D01*
X95721250Y-105652519D01*
X95726255Y-105651128D01*
X95723127Y-105619995D01*
X95716344Y-105607184D01*
X95671234Y-105588056D01*
X95568501Y-105576991D01*
X95414168Y-105574093D01*
X95214260Y-105579468D01*
X94974798Y-105593220D01*
X94962848Y-105594062D01*
X94826039Y-105604653D01*
X94744759Y-105614303D01*
X94710483Y-105625477D01*
X94645864Y-105625477D01*
X94640657Y-105615938D01*
X94668310Y-105582990D01*
X94720834Y-105572980D01*
X94775198Y-105564509D01*
X94797345Y-105526490D01*
X94801010Y-105461556D01*
X94800981Y-105461343D01*
X94833081Y-105461343D01*
X94835715Y-105500127D01*
X94852152Y-105523676D01*
X94895194Y-105535790D01*
X94977644Y-105540268D01*
X95101206Y-105540909D01*
X95248707Y-105538417D01*
X95391837Y-105531834D01*
X95502807Y-105522502D01*
X95515000Y-105520943D01*
X95628104Y-105492876D01*
X95705039Y-105437726D01*
X95729327Y-105408113D01*
X95797984Y-105315249D01*
X95387692Y-105333891D01*
X95187167Y-105343517D01*
X95041864Y-105352751D01*
X94942909Y-105363634D01*
X94881427Y-105378205D01*
X94848546Y-105398503D01*
X94835390Y-105426568D01*
X94833081Y-105461343D01*
X94800981Y-105461343D01*
X94789505Y-105376191D01*
X94742934Y-105322611D01*
X94703750Y-105299836D01*
X94637877Y-105251531D01*
X94634000Y-105222475D01*
X94656692Y-105222475D01*
X94736869Y-105269896D01*
X94777872Y-105287613D01*
X94836779Y-105299197D01*
X94923585Y-105305082D01*
X95048287Y-105305704D01*
X95220879Y-105301495D01*
X95354527Y-105296719D01*
X95541875Y-105288489D01*
X95713931Y-105278992D01*
X95857336Y-105269112D01*
X95958730Y-105259733D01*
X95995941Y-105254290D01*
X96063233Y-105237852D01*
X96073997Y-105222354D01*
X96034750Y-105196934D01*
X96031444Y-105195127D01*
X95985441Y-105181483D01*
X95904226Y-105174121D01*
X95780541Y-105172962D01*
X95607133Y-105177928D01*
X95390030Y-105188233D01*
X95199342Y-105198234D01*
X95026208Y-105207074D01*
X94882744Y-105214154D01*
X94781064Y-105218873D01*
X94736869Y-105220573D01*
X94656692Y-105222475D01*
X94634000Y-105222475D01*
X94632626Y-105212182D01*
X94686569Y-105190190D01*
X94722726Y-105188131D01*
X94776419Y-105178976D01*
X94783536Y-105165675D01*
X94833081Y-105165675D01*
X95401382Y-105142897D01*
X95606107Y-105132803D01*
X95778560Y-105120549D01*
X95909897Y-105106979D01*
X95991271Y-105092938D01*
X96012476Y-105084604D01*
X96063140Y-105026934D01*
X96088881Y-104986285D01*
X96099523Y-104962201D01*
X96095344Y-104945781D01*
X96067457Y-104936193D01*
X96006972Y-104932603D01*
X95905002Y-104934178D01*
X95752658Y-104940085D01*
X95646158Y-104944790D01*
X95461653Y-104953796D01*
X95285047Y-104963760D01*
X95133368Y-104973632D01*
X95023644Y-104982360D01*
X95001452Y-104984598D01*
X94903097Y-104998278D01*
X94852890Y-105017524D01*
X94834956Y-105051745D01*
X94833081Y-105084386D01*
X94833081Y-105165675D01*
X94783536Y-105165675D01*
X94797864Y-105138899D01*
X94800765Y-105084386D01*
X94801010Y-105079774D01*
X94790182Y-104998190D01*
X94745942Y-104951161D01*
X94706955Y-104932459D01*
X94642101Y-104887472D01*
X94641328Y-104883452D01*
X94716213Y-104883452D01*
X94725633Y-104892493D01*
X94757680Y-104908318D01*
X94810637Y-104918881D01*
X94893205Y-104924469D01*
X95014084Y-104925372D01*
X95181976Y-104921879D01*
X95394318Y-104914701D01*
X95603998Y-104906201D01*
X95808576Y-104896697D01*
X95992742Y-104886987D01*
X96141187Y-104877872D01*
X96228157Y-104871160D01*
X96342384Y-104859234D01*
X96401338Y-104848014D01*
X96413756Y-104834100D01*
X96388375Y-104814091D01*
X96382893Y-104810944D01*
X96347322Y-104798888D01*
X96286237Y-104791101D01*
X96192729Y-104787571D01*
X96059887Y-104788287D01*
X95880801Y-104793239D01*
X95648562Y-104802415D01*
X95489713Y-104809534D01*
X95237996Y-104821534D01*
X95043994Y-104831899D01*
X94901321Y-104841321D01*
X94803591Y-104850494D01*
X94744420Y-104860112D01*
X94717422Y-104870867D01*
X94716213Y-104883452D01*
X94641328Y-104883452D01*
X94633128Y-104840828D01*
X94673229Y-104812103D01*
X94833081Y-104812103D01*
X95097664Y-104792310D01*
X95230678Y-104783379D01*
X95406530Y-104773014D01*
X95603969Y-104762399D01*
X95801745Y-104752718D01*
X95835214Y-104751190D01*
X96053091Y-104738789D01*
X96209659Y-104723399D01*
X96307720Y-104703999D01*
X96350075Y-104679566D01*
X96348495Y-104675000D01*
X96404546Y-104675000D01*
X96430650Y-104703145D01*
X96454545Y-104707071D01*
X96487740Y-104691523D01*
X96484723Y-104675000D01*
X96443721Y-104644152D01*
X96434724Y-104642929D01*
X96405410Y-104667391D01*
X96404546Y-104675000D01*
X96348495Y-104675000D01*
X96339525Y-104649078D01*
X96278874Y-104611513D01*
X96252126Y-104599066D01*
X96201219Y-104579531D01*
X96144334Y-104566678D01*
X96070340Y-104560151D01*
X95968109Y-104559592D01*
X95826508Y-104564645D01*
X95634409Y-104574954D01*
X95586743Y-104577745D01*
X95398261Y-104588549D01*
X95225057Y-104597867D01*
X95080332Y-104605035D01*
X94977287Y-104609389D01*
X94937311Y-104610406D01*
X94865535Y-104617117D01*
X94837513Y-104649375D01*
X94833081Y-104711481D01*
X94833081Y-104812103D01*
X94673229Y-104812103D01*
X94677857Y-104808788D01*
X94724265Y-104803283D01*
X94779462Y-104792062D01*
X94799434Y-104745710D01*
X94800861Y-104711481D01*
X94801010Y-104707894D01*
X94784756Y-104628727D01*
X94724892Y-104573783D01*
X94704798Y-104562752D01*
X94639173Y-104516032D01*
X94617073Y-104481940D01*
X94672728Y-104481940D01*
X94702875Y-104523402D01*
X94787672Y-104551732D01*
X94918652Y-104565217D01*
X95073611Y-104562987D01*
X95221111Y-104554384D01*
X95403339Y-104543655D01*
X95590997Y-104532526D01*
X95680495Y-104527186D01*
X95799143Y-104519664D01*
X96311995Y-104519664D01*
X96313055Y-104527718D01*
X96344880Y-104547675D01*
X96414137Y-104589066D01*
X96468666Y-104621153D01*
X96612962Y-104705615D01*
X96685143Y-104491636D01*
X96721255Y-104378985D01*
X96747142Y-104287548D01*
X96757318Y-104236740D01*
X96757324Y-104236201D01*
X96733010Y-104195840D01*
X96673127Y-104144820D01*
X96648607Y-104128865D01*
X96752770Y-104128865D01*
X96754277Y-104129798D01*
X96774355Y-104102047D01*
X96808979Y-104028693D01*
X96851251Y-103924584D01*
X96858549Y-103905303D01*
X96895715Y-103798210D01*
X96917610Y-103718887D01*
X96920359Y-103681862D01*
X96918403Y-103680808D01*
X96896765Y-103708741D01*
X96861862Y-103782539D01*
X96820661Y-103887200D01*
X96814130Y-103905303D01*
X96778307Y-104012755D01*
X96756547Y-104092173D01*
X96752770Y-104128865D01*
X96648607Y-104128865D01*
X96597267Y-104095458D01*
X96525018Y-104060069D01*
X96475970Y-104050970D01*
X96468971Y-104054910D01*
X96447777Y-104095946D01*
X96416609Y-104175771D01*
X96381456Y-104276221D01*
X96348309Y-104379130D01*
X96323159Y-104466332D01*
X96311995Y-104519664D01*
X95799143Y-104519664D01*
X95832220Y-104517567D01*
X95928002Y-104509131D01*
X95975955Y-104499776D01*
X95984192Y-104487397D01*
X95960828Y-104469891D01*
X95941599Y-104459484D01*
X95898600Y-104442729D01*
X95838376Y-104431623D01*
X95751352Y-104425833D01*
X95627948Y-104425026D01*
X95458588Y-104428869D01*
X95262557Y-104435888D01*
X95076079Y-104444386D01*
X94913853Y-104454034D01*
X94785884Y-104464049D01*
X94702177Y-104473652D01*
X94672728Y-104481940D01*
X94617073Y-104481940D01*
X94608831Y-104469225D01*
X94608586Y-104465717D01*
X94637384Y-104428380D01*
X94642861Y-104427572D01*
X94833081Y-104427572D01*
X95030210Y-104406967D01*
X95164289Y-104396506D01*
X95327521Y-104388765D01*
X95484926Y-104385398D01*
X95487217Y-104385388D01*
X95621326Y-104381934D01*
X95692269Y-104372744D01*
X95700776Y-104357712D01*
X95696358Y-104354738D01*
X95635848Y-104329325D01*
X95530188Y-104294021D01*
X95396630Y-104253762D01*
X95252429Y-104213484D01*
X95129510Y-104181891D01*
X95420048Y-104181891D01*
X95808067Y-104330643D01*
X95956357Y-104386636D01*
X96084061Y-104433256D01*
X96178727Y-104466070D01*
X96227903Y-104480648D01*
X96230528Y-104480985D01*
X96255607Y-104453369D01*
X96291302Y-104378694D01*
X96330861Y-104271642D01*
X96340332Y-104242275D01*
X96373664Y-104127094D01*
X96394521Y-104036989D01*
X96399356Y-103987917D01*
X96397744Y-103984023D01*
X96357934Y-103961815D01*
X96272672Y-103923415D01*
X96156742Y-103874682D01*
X96116363Y-103858384D01*
X96308334Y-103858384D01*
X96317316Y-103904117D01*
X96326545Y-103899395D01*
X96470883Y-103899395D01*
X96471560Y-103915600D01*
X96521218Y-103948634D01*
X96591131Y-103990799D01*
X96659916Y-104029777D01*
X96706188Y-104053252D01*
X96714179Y-104055350D01*
X96727509Y-104024257D01*
X96756596Y-103948260D01*
X96795539Y-103842832D01*
X96801718Y-103825844D01*
X96839842Y-103718181D01*
X96866374Y-103638130D01*
X96876355Y-103600763D01*
X96876092Y-103599757D01*
X96848958Y-103580321D01*
X96790462Y-103536566D01*
X96777052Y-103526422D01*
X96709438Y-103479957D01*
X96663507Y-103456873D01*
X96659620Y-103456313D01*
X96637979Y-103483410D01*
X96602722Y-103552868D01*
X96561118Y-103646943D01*
X96520432Y-103747886D01*
X96487932Y-103837952D01*
X96470883Y-103899395D01*
X96326545Y-103899395D01*
X96343003Y-103890975D01*
X96362688Y-103857197D01*
X96404546Y-103857197D01*
X96420581Y-103873232D01*
X96436616Y-103857197D01*
X96420581Y-103841161D01*
X96404546Y-103857197D01*
X96362688Y-103857197D01*
X96383507Y-103821474D01*
X96395817Y-103793055D01*
X96436616Y-103793055D01*
X96452652Y-103809091D01*
X96468687Y-103793055D01*
X96452652Y-103777020D01*
X96436616Y-103793055D01*
X96395817Y-103793055D01*
X96436937Y-103698126D01*
X96437440Y-103696843D01*
X96468687Y-103696843D01*
X96484723Y-103712879D01*
X96500758Y-103696843D01*
X96484723Y-103680808D01*
X96468687Y-103696843D01*
X96437440Y-103696843D01*
X96445827Y-103675454D01*
X96460573Y-103632702D01*
X96500758Y-103632702D01*
X96516793Y-103648737D01*
X96532829Y-103632702D01*
X96516793Y-103616666D01*
X96500758Y-103632702D01*
X96460573Y-103632702D01*
X96493759Y-103536490D01*
X96532829Y-103536490D01*
X96548864Y-103552525D01*
X96564899Y-103536490D01*
X96548864Y-103520454D01*
X96532829Y-103536490D01*
X96493759Y-103536490D01*
X96495336Y-103531918D01*
X96506074Y-103472348D01*
X96564899Y-103472348D01*
X96580935Y-103488384D01*
X96596970Y-103472348D01*
X96580935Y-103456313D01*
X96564899Y-103472348D01*
X96506074Y-103472348D01*
X96511358Y-103443035D01*
X96502870Y-103413526D01*
X96468801Y-103407947D01*
X96448630Y-103442932D01*
X96424292Y-103508474D01*
X96387551Y-103605366D01*
X96367402Y-103657942D01*
X96333185Y-103755608D01*
X96311863Y-103833275D01*
X96308334Y-103858384D01*
X96116363Y-103858384D01*
X96024924Y-103821477D01*
X95891999Y-103769658D01*
X95772748Y-103725087D01*
X95681953Y-103693623D01*
X95634395Y-103681125D01*
X95633637Y-103681102D01*
X95595315Y-103710837D01*
X95549278Y-103801402D01*
X95502184Y-103931349D01*
X95420048Y-104181891D01*
X95129510Y-104181891D01*
X95114838Y-104178120D01*
X95001110Y-104152608D01*
X94969382Y-104146793D01*
X94833081Y-104124160D01*
X94833081Y-104275866D01*
X94833081Y-104427572D01*
X94642861Y-104427572D01*
X94704798Y-104418434D01*
X94769336Y-104412222D01*
X94795885Y-104380642D01*
X94801010Y-104305668D01*
X94797732Y-104275866D01*
X94792224Y-104225799D01*
X94754027Y-104176003D01*
X94688763Y-104139374D01*
X94617010Y-104099623D01*
X94582960Y-104071211D01*
X94681990Y-104071211D01*
X94693511Y-104090075D01*
X94704798Y-104097727D01*
X94771165Y-104127569D01*
X94800018Y-104108467D01*
X94801010Y-104097727D01*
X94773848Y-104072886D01*
X94728851Y-104066147D01*
X94681990Y-104071211D01*
X94582960Y-104071211D01*
X94578564Y-104067543D01*
X94576515Y-104062041D01*
X94586580Y-104022915D01*
X94593030Y-104002718D01*
X94640657Y-104002718D01*
X94666159Y-104031130D01*
X94682450Y-104033586D01*
X94712341Y-104004988D01*
X94721045Y-103988114D01*
X94801010Y-103988114D01*
X94829400Y-104009934D01*
X94903410Y-104041428D01*
X95006303Y-104077250D01*
X95121340Y-104112055D01*
X95231785Y-104140496D01*
X95320900Y-104157229D01*
X95335297Y-104158751D01*
X95362014Y-104131988D01*
X95400220Y-104058092D01*
X95442870Y-103951334D01*
X95455258Y-103915689D01*
X95492181Y-103800219D01*
X95517318Y-103710436D01*
X95526541Y-103661511D01*
X95525615Y-103657096D01*
X95480738Y-103636690D01*
X95392995Y-103611645D01*
X95340981Y-103599754D01*
X95695370Y-103599754D01*
X95696285Y-103638461D01*
X95715114Y-103655787D01*
X95725855Y-103659242D01*
X95774320Y-103673241D01*
X95784351Y-103677088D01*
X95788500Y-103669039D01*
X95901026Y-103669039D01*
X95933580Y-103685004D01*
X96004742Y-103715002D01*
X96093080Y-103750501D01*
X96177161Y-103782971D01*
X96235551Y-103803881D01*
X96248494Y-103807342D01*
X96268465Y-103780408D01*
X96302889Y-103707526D01*
X96345012Y-103603280D01*
X96353673Y-103580200D01*
X96392948Y-103470349D01*
X96415291Y-103401571D01*
X96677530Y-103401571D01*
X96770864Y-103469030D01*
X96850256Y-103532266D01*
X96913411Y-103592056D01*
X96914990Y-103593821D01*
X96941501Y-103617826D01*
X96963470Y-103613834D01*
X96987346Y-103572573D01*
X97019574Y-103484772D01*
X97045552Y-103406050D01*
X97125321Y-103160946D01*
X97029517Y-103082549D01*
X96932099Y-103005337D01*
X96869090Y-102971660D01*
X96826864Y-102985911D01*
X96791793Y-103052487D01*
X96751385Y-103172258D01*
X96677530Y-103401571D01*
X96415291Y-103401571D01*
X96420020Y-103387012D01*
X96430021Y-103345374D01*
X96429548Y-103343390D01*
X96389525Y-103321456D01*
X96314574Y-103288792D01*
X96224987Y-103253252D01*
X96141054Y-103222689D01*
X96083067Y-103204956D01*
X96069042Y-103203854D01*
X96052311Y-103238139D01*
X96022504Y-103312948D01*
X95986119Y-103410285D01*
X95949656Y-103512156D01*
X95919614Y-103600567D01*
X95902491Y-103657523D01*
X95901026Y-103669039D01*
X95788500Y-103669039D01*
X95797563Y-103651454D01*
X95827858Y-103580208D01*
X95869231Y-103477582D01*
X95878557Y-103453904D01*
X95922881Y-103335233D01*
X95943034Y-103261699D01*
X95941246Y-103219981D01*
X95921479Y-103197829D01*
X95881005Y-103176669D01*
X95850607Y-103180376D01*
X95822590Y-103218466D01*
X95789259Y-103300455D01*
X95752806Y-103406397D01*
X95713751Y-103526716D01*
X95695370Y-103599754D01*
X95340981Y-103599754D01*
X95283000Y-103586499D01*
X95171366Y-103565792D01*
X95078710Y-103554065D01*
X95052503Y-103552906D01*
X94988577Y-103555546D01*
X94947492Y-103573151D01*
X94916456Y-103619477D01*
X94882678Y-103708275D01*
X94868096Y-103751177D01*
X94833422Y-103859399D01*
X94809188Y-103945636D01*
X94801010Y-103988114D01*
X94721045Y-103988114D01*
X94751702Y-103928680D01*
X94793334Y-103818888D01*
X94797399Y-103806447D01*
X94835990Y-103671820D01*
X94850540Y-103584587D01*
X94840932Y-103548650D01*
X94807051Y-103567912D01*
X94804436Y-103570698D01*
X94779354Y-103615695D01*
X94742734Y-103700367D01*
X94702683Y-103803331D01*
X94667306Y-103903205D01*
X94644711Y-103978603D01*
X94640657Y-104002718D01*
X94593030Y-104002718D01*
X94613462Y-103938744D01*
X94652200Y-103824815D01*
X94670493Y-103772666D01*
X94711204Y-103651565D01*
X94739902Y-103554281D01*
X94752339Y-103495802D01*
X94751855Y-103488971D01*
X95111845Y-103488971D01*
X95115320Y-103503367D01*
X95148817Y-103518810D01*
X95182362Y-103489393D01*
X95187342Y-103479168D01*
X95262165Y-103479168D01*
X95296212Y-103492627D01*
X95368669Y-103514470D01*
X95456641Y-103538529D01*
X95537233Y-103558634D01*
X95587547Y-103568615D01*
X95593839Y-103568542D01*
X95607696Y-103539171D01*
X95637720Y-103464862D01*
X95677795Y-103360822D01*
X95683680Y-103345225D01*
X95725865Y-103224893D01*
X95742818Y-103150727D01*
X95736563Y-103110830D01*
X95725346Y-103100003D01*
X95657348Y-103073485D01*
X95602374Y-103062429D01*
X95823452Y-103062429D01*
X95855382Y-103114911D01*
X95928590Y-103141872D01*
X95991071Y-103149960D01*
X96091053Y-103169539D01*
X96214664Y-103208064D01*
X96339621Y-103256938D01*
X96443638Y-103307562D01*
X96499613Y-103346191D01*
X96550882Y-103383541D01*
X96593879Y-103378995D01*
X96634878Y-103326554D01*
X96680155Y-103220215D01*
X96704602Y-103150195D01*
X96785960Y-102908218D01*
X96699483Y-102874724D01*
X96552867Y-102819137D01*
X96399375Y-102762944D01*
X96252026Y-102710674D01*
X96123838Y-102666855D01*
X96027832Y-102636016D01*
X95977026Y-102622686D01*
X95974304Y-102622475D01*
X95946521Y-102650707D01*
X95908886Y-102725002D01*
X95869199Y-102829759D01*
X95866389Y-102838313D01*
X95828541Y-102973778D01*
X95823452Y-103062429D01*
X95602374Y-103062429D01*
X95566111Y-103055136D01*
X95477335Y-103048117D01*
X95416718Y-103055587D01*
X95408009Y-103060981D01*
X95383593Y-103103522D01*
X95350226Y-103182835D01*
X95314678Y-103279506D01*
X95283720Y-103374123D01*
X95264122Y-103447271D01*
X95262165Y-103479168D01*
X95187342Y-103479168D01*
X95222016Y-103407972D01*
X95243607Y-103352083D01*
X95294683Y-103211828D01*
X95324618Y-103120903D01*
X95335573Y-103068876D01*
X95329707Y-103045318D01*
X95309182Y-103039798D01*
X95308285Y-103039803D01*
X95279865Y-103067520D01*
X95239674Y-103138219D01*
X95195245Y-103233808D01*
X95154109Y-103336192D01*
X95123798Y-103427278D01*
X95111845Y-103488971D01*
X94751855Y-103488971D01*
X94751672Y-103486389D01*
X94756944Y-103449725D01*
X94759435Y-103441481D01*
X94801010Y-103441481D01*
X94829154Y-103451473D01*
X94897939Y-103456245D01*
X94908191Y-103456313D01*
X94964954Y-103452757D01*
X95004552Y-103433497D01*
X95038398Y-103385648D01*
X95077903Y-103296324D01*
X95100615Y-103239042D01*
X95142300Y-103129803D01*
X95172673Y-103044508D01*
X95185736Y-103000080D01*
X95185859Y-102998511D01*
X95159511Y-102979021D01*
X95098114Y-102975627D01*
X95028135Y-102986270D01*
X94976044Y-103008890D01*
X94969556Y-103015341D01*
X94945581Y-103060267D01*
X94909176Y-103143299D01*
X94868489Y-103243835D01*
X94831668Y-103341274D01*
X94806862Y-103415015D01*
X94801010Y-103441481D01*
X94759435Y-103441481D01*
X94780833Y-103370654D01*
X94817125Y-103265909D01*
X94859603Y-103152222D01*
X94902053Y-103046327D01*
X94938258Y-102964955D01*
X94959052Y-102928105D01*
X94967175Y-102911997D01*
X95028002Y-102911997D01*
X95035709Y-102938505D01*
X95054999Y-102943182D01*
X95080360Y-102915318D01*
X95083127Y-102909529D01*
X95153788Y-102909529D01*
X95180411Y-102935675D01*
X95242253Y-102966420D01*
X95312274Y-102990938D01*
X95363434Y-102998404D01*
X95370308Y-102996217D01*
X95415997Y-102992392D01*
X95494497Y-103003730D01*
X95507358Y-103006613D01*
X95626345Y-103031627D01*
X95701813Y-103031386D01*
X95750421Y-102996192D01*
X95788824Y-102916350D01*
X95819853Y-102824708D01*
X95852311Y-102716681D01*
X95871964Y-102634672D01*
X95874850Y-102595407D01*
X95874339Y-102594708D01*
X95837975Y-102582261D01*
X95753715Y-102561958D01*
X95636783Y-102537337D01*
X95578565Y-102525983D01*
X95298106Y-102472571D01*
X95225947Y-102682053D01*
X95189895Y-102789136D01*
X95164025Y-102870600D01*
X95153796Y-102909233D01*
X95153788Y-102909529D01*
X95083127Y-102909529D01*
X95114687Y-102843488D01*
X95139847Y-102774810D01*
X95174012Y-102671715D01*
X95201859Y-102589125D01*
X95212570Y-102558333D01*
X95218473Y-102527383D01*
X95190058Y-102542814D01*
X95178166Y-102552302D01*
X95137203Y-102606915D01*
X95093277Y-102696545D01*
X95075949Y-102742422D01*
X95040979Y-102850817D01*
X95028002Y-102911997D01*
X94967175Y-102911997D01*
X94982940Y-102880735D01*
X95016608Y-102794361D01*
X95040130Y-102725936D01*
X95097188Y-102594646D01*
X95174157Y-102505298D01*
X95205235Y-102482101D01*
X95278046Y-102432625D01*
X95378283Y-102432625D01*
X95407506Y-102447000D01*
X95485044Y-102466651D01*
X95595699Y-102487886D01*
X95626831Y-102493021D01*
X95749372Y-102519045D01*
X95908282Y-102562127D01*
X96090312Y-102617672D01*
X96282213Y-102681085D01*
X96470738Y-102747772D01*
X96642636Y-102813138D01*
X96784659Y-102872587D01*
X96883559Y-102921525D01*
X96908720Y-102937596D01*
X96997854Y-103002871D01*
X97007491Y-102914416D01*
X97001545Y-102836690D01*
X96976179Y-102727420D01*
X96947493Y-102639845D01*
X96887990Y-102512360D01*
X96811118Y-102387740D01*
X96763502Y-102327151D01*
X96672316Y-102243278D01*
X96558517Y-102162018D01*
X96441232Y-102094832D01*
X96339587Y-102053178D01*
X96292911Y-102045202D01*
X96244339Y-102064436D01*
X96164593Y-102114875D01*
X96070888Y-102185622D01*
X96070386Y-102186031D01*
X95913558Y-102298828D01*
X95767075Y-102366851D01*
X95607251Y-102399694D01*
X95528860Y-102405376D01*
X95440608Y-102413171D01*
X95386421Y-102425574D01*
X95378283Y-102432625D01*
X95278046Y-102432625D01*
X95315158Y-102407407D01*
X95237166Y-102353359D01*
X95353840Y-102353359D01*
X95399392Y-102359521D01*
X95460765Y-102362189D01*
X95595193Y-102352962D01*
X95737127Y-102325374D01*
X95780343Y-102312441D01*
X95881627Y-102264503D01*
X95988835Y-102192520D01*
X96089601Y-102107948D01*
X96171556Y-102022244D01*
X96222334Y-101946863D01*
X96230507Y-101895443D01*
X96232157Y-101829306D01*
X96248177Y-101799870D01*
X96266721Y-101752917D01*
X96251717Y-101682367D01*
X96232616Y-101635563D01*
X96214112Y-101573710D01*
X96189138Y-101463376D01*
X96160346Y-101319567D01*
X96130391Y-101157291D01*
X96101927Y-100991556D01*
X96077607Y-100837370D01*
X96060085Y-100709739D01*
X96052014Y-100623671D01*
X96051947Y-100620698D01*
X96091271Y-100620698D01*
X96095024Y-100646108D01*
X96107472Y-100714616D01*
X96122757Y-100820288D01*
X96133572Y-100906692D01*
X96147314Y-101012206D01*
X96160166Y-101090246D01*
X96167792Y-101119737D01*
X96201765Y-101121790D01*
X96282957Y-101111195D01*
X96396387Y-101090969D01*
X96527077Y-101064130D01*
X96660045Y-101033694D01*
X96780311Y-101002679D01*
X96846333Y-100983075D01*
X96943285Y-100939541D01*
X97032087Y-100879321D01*
X97097478Y-100815407D01*
X97124201Y-100760789D01*
X97122362Y-100748067D01*
X97125953Y-100707698D01*
X97145516Y-100707698D01*
X97167829Y-100736717D01*
X97202312Y-100800351D01*
X97206313Y-100827510D01*
X97236056Y-100882448D01*
X97316489Y-100933823D01*
X97398738Y-100963472D01*
X97459298Y-100955359D01*
X97528876Y-100916980D01*
X97539243Y-100906692D01*
X97655303Y-100906692D01*
X97680975Y-100949210D01*
X97703409Y-100954798D01*
X97745928Y-100929126D01*
X97751515Y-100906692D01*
X97725844Y-100864173D01*
X97703409Y-100858586D01*
X97660891Y-100884257D01*
X97655303Y-100906692D01*
X97539243Y-100906692D01*
X97579911Y-100866335D01*
X97590154Y-100838460D01*
X97613354Y-100789407D01*
X97639268Y-100762374D01*
X97683670Y-100701491D01*
X97665121Y-100647740D01*
X97591162Y-100606826D01*
X97524566Y-100576113D01*
X97495035Y-100547662D01*
X97494950Y-100546506D01*
X97468011Y-100528087D01*
X97422791Y-100526186D01*
X97293643Y-100550699D01*
X97221462Y-100595221D01*
X97206313Y-100637831D01*
X97189355Y-100687830D01*
X97167829Y-100698232D01*
X97145516Y-100707698D01*
X97125953Y-100707698D01*
X97126920Y-100696828D01*
X97139986Y-100683548D01*
X97168801Y-100637050D01*
X97174243Y-100600127D01*
X97194786Y-100549186D01*
X97222349Y-100537879D01*
X97255798Y-100516696D01*
X97269582Y-100446476D01*
X97270455Y-100409596D01*
X97262689Y-100330178D01*
X97245548Y-100306694D01*
X97326929Y-100306694D01*
X97327707Y-100377198D01*
X97348965Y-100442654D01*
X97375980Y-100450026D01*
X97395696Y-100402546D01*
X97395765Y-100401578D01*
X97430816Y-100401578D01*
X97449076Y-100460014D01*
X97478914Y-100473737D01*
X97521611Y-100489806D01*
X97527021Y-100503456D01*
X97553971Y-100534315D01*
X97614347Y-100554877D01*
X97671339Y-100555533D01*
X97695062Y-100522575D01*
X97711619Y-100450180D01*
X97713071Y-100436073D01*
X97722732Y-100323191D01*
X97576778Y-100326305D01*
X97486560Y-100331999D01*
X97443608Y-100349753D01*
X97431138Y-100388225D01*
X97430816Y-100401578D01*
X97395765Y-100401578D01*
X97398738Y-100359597D01*
X97383829Y-100299787D01*
X97356186Y-100281313D01*
X97326929Y-100306694D01*
X97245548Y-100306694D01*
X97232091Y-100288257D01*
X97167712Y-100279837D01*
X97058604Y-100300922D01*
X97009039Y-100314195D01*
X96931940Y-100342802D01*
X96905226Y-100377829D01*
X96908448Y-100409839D01*
X96900365Y-100471593D01*
X96865192Y-100495413D01*
X96795902Y-100538365D01*
X96769979Y-100565155D01*
X96717124Y-100596378D01*
X96685692Y-100593702D01*
X96623423Y-100596097D01*
X96601526Y-100610292D01*
X96574093Y-100626755D01*
X96532632Y-100623880D01*
X96463767Y-100597902D01*
X96354126Y-100545059D01*
X96334380Y-100535110D01*
X96261671Y-100525580D01*
X96179572Y-100542851D01*
X96110288Y-100576801D01*
X96091271Y-100620698D01*
X96051947Y-100620698D01*
X96051768Y-100612820D01*
X96026276Y-100606162D01*
X95967201Y-100616385D01*
X95900650Y-100636884D01*
X95852726Y-100661050D01*
X95849279Y-100664064D01*
X95843667Y-100705303D01*
X95850071Y-100796639D01*
X95866274Y-100925625D01*
X95890061Y-101079815D01*
X95919216Y-101246764D01*
X95951522Y-101414024D01*
X95984765Y-101569151D01*
X96016728Y-101699696D01*
X96045197Y-101793215D01*
X96054306Y-101815734D01*
X96096287Y-101898083D01*
X96127885Y-101929636D01*
X96159874Y-101920151D01*
X96165078Y-101916037D01*
X96202699Y-101896034D01*
X96211102Y-101904974D01*
X96188654Y-101959748D01*
X96141012Y-102015786D01*
X96092835Y-102044862D01*
X96088598Y-102045202D01*
X96044745Y-102063439D01*
X95970001Y-102110436D01*
X95908515Y-102154973D01*
X95839018Y-102204182D01*
X95769393Y-102241712D01*
X95684785Y-102272752D01*
X95570339Y-102302493D01*
X95411200Y-102336126D01*
X95362248Y-102345838D01*
X95353840Y-102353359D01*
X95237166Y-102353359D01*
X95187036Y-102318619D01*
X95186031Y-102317803D01*
X95250000Y-102317803D01*
X95266036Y-102333838D01*
X95282071Y-102317803D01*
X95266036Y-102301767D01*
X95250000Y-102317803D01*
X95186031Y-102317803D01*
X95088247Y-102238373D01*
X94985888Y-102137625D01*
X94946519Y-102092666D01*
X94874015Y-102015197D01*
X94766557Y-101913809D01*
X94733033Y-101884466D01*
X94964603Y-101884466D01*
X94972219Y-101998416D01*
X94994241Y-102078779D01*
X95046137Y-102138790D01*
X95114506Y-102187634D01*
X95210196Y-102217847D01*
X95342291Y-102233346D01*
X95484589Y-102233351D01*
X95610886Y-102217082D01*
X95656814Y-102203763D01*
X95741570Y-102163875D01*
X95834219Y-102108500D01*
X95917356Y-102049669D01*
X95973579Y-101999414D01*
X95987627Y-101975067D01*
X95965548Y-101974032D01*
X95909987Y-102006015D01*
X95881671Y-102026542D01*
X95709013Y-102132536D01*
X95538359Y-102191427D01*
X95377894Y-102205708D01*
X95235801Y-102177873D01*
X95120266Y-102110413D01*
X95039473Y-102005822D01*
X95001605Y-101866591D01*
X95002707Y-101813383D01*
X95037751Y-101813383D01*
X95046728Y-101900001D01*
X95071711Y-101977351D01*
X95072849Y-101979585D01*
X95162507Y-102089162D01*
X95288282Y-102151388D01*
X95441196Y-102164528D01*
X95612272Y-102126845D01*
X95682955Y-102097540D01*
X95785446Y-102042389D01*
X95870807Y-101984384D01*
X95902334Y-101955821D01*
X95938382Y-101905171D01*
X95943516Y-101852361D01*
X95920258Y-101769445D01*
X95919377Y-101766869D01*
X95879446Y-101676389D01*
X95923485Y-101676389D01*
X95939521Y-101692424D01*
X95955556Y-101676389D01*
X95939521Y-101660353D01*
X95923485Y-101676389D01*
X95879446Y-101676389D01*
X95865075Y-101643827D01*
X95796311Y-101537282D01*
X95723797Y-101460149D01*
X95658241Y-101425347D01*
X95636805Y-101426054D01*
X95593619Y-101456387D01*
X95600042Y-101497893D01*
X95649127Y-101531490D01*
X95677649Y-101538233D01*
X95725978Y-101557527D01*
X95740758Y-101609106D01*
X95739203Y-101650539D01*
X95742741Y-101727252D01*
X95762157Y-101771935D01*
X95763256Y-101772678D01*
X95794160Y-101814683D01*
X95765354Y-101858628D01*
X95713565Y-101885404D01*
X95651298Y-101929103D01*
X95641406Y-101971547D01*
X95636657Y-102004479D01*
X95598760Y-102022214D01*
X95514039Y-102029865D01*
X95482860Y-102030828D01*
X95378603Y-102029010D01*
X95316484Y-102012235D01*
X95274981Y-101973397D01*
X95264974Y-101958904D01*
X95220420Y-101909698D01*
X95186421Y-101900536D01*
X95150706Y-101893971D01*
X95120943Y-101847030D01*
X95109086Y-101783201D01*
X95112670Y-101755630D01*
X95109282Y-101698205D01*
X95094061Y-101679117D01*
X95062696Y-101684821D01*
X95043500Y-101735616D01*
X95037751Y-101813383D01*
X95002707Y-101813383D01*
X95003830Y-101759179D01*
X95010576Y-101677815D01*
X95003948Y-101658344D01*
X94993667Y-101676389D01*
X94971738Y-101767216D01*
X94964603Y-101884466D01*
X94733033Y-101884466D01*
X94640318Y-101803315D01*
X94544785Y-101724766D01*
X94255447Y-101494031D01*
X94087256Y-101516862D01*
X93964238Y-101541891D01*
X93847376Y-101578817D01*
X93806717Y-101596636D01*
X93749134Y-101631507D01*
X93706088Y-101677266D01*
X93668298Y-101748941D01*
X93626484Y-101861564D01*
X93606994Y-101920101D01*
X93564532Y-102058418D01*
X93545119Y-102147193D01*
X93547150Y-102196096D01*
X93558721Y-102210789D01*
X93608257Y-102218034D01*
X93640513Y-102165832D01*
X93651767Y-102109343D01*
X93663881Y-102061731D01*
X93669496Y-102057573D01*
X94046131Y-102057573D01*
X94063473Y-102124411D01*
X94104662Y-102208218D01*
X94131710Y-102249902D01*
X94210591Y-102349383D01*
X94270552Y-102393979D01*
X94317856Y-102387798D01*
X94328374Y-102378865D01*
X94320450Y-102346500D01*
X94284312Y-102280744D01*
X94231397Y-102198627D01*
X94173137Y-102117178D01*
X94120966Y-102053428D01*
X94092263Y-102027194D01*
X94054954Y-102020802D01*
X94046131Y-102057573D01*
X93669496Y-102057573D01*
X93695208Y-102038534D01*
X93763308Y-102031850D01*
X93822854Y-102032350D01*
X93901693Y-102032935D01*
X93917669Y-102030095D01*
X93871985Y-102023528D01*
X93862211Y-102022452D01*
X93782002Y-102006550D01*
X93759368Y-101986256D01*
X93788454Y-101966712D01*
X93863406Y-101953056D01*
X93945012Y-101949764D01*
X94111490Y-101950539D01*
X94239773Y-102140152D01*
X94311171Y-102236605D01*
X94376842Y-102309821D01*
X94422980Y-102344479D01*
X94424180Y-102344834D01*
X94461728Y-102377026D01*
X94479970Y-102430772D01*
X94474299Y-102478616D01*
X94449239Y-102494192D01*
X94431593Y-102470684D01*
X94436635Y-102446086D01*
X94431263Y-102405032D01*
X94403558Y-102397980D01*
X94359585Y-102417267D01*
X94357109Y-102459260D01*
X94393458Y-102500156D01*
X94416162Y-102510227D01*
X94469695Y-102552537D01*
X94473217Y-102618759D01*
X94426699Y-102692605D01*
X94416528Y-102702320D01*
X94362980Y-102762127D01*
X94295411Y-102852326D01*
X94255022Y-102912337D01*
X94155463Y-103036661D01*
X94043330Y-103106796D01*
X93901444Y-103131317D01*
X93819813Y-103129537D01*
X93722105Y-103118480D01*
X93672165Y-103096628D01*
X93653722Y-103056728D01*
X93653522Y-103055429D01*
X93634184Y-102941241D01*
X93614073Y-102878538D01*
X93585680Y-102855016D01*
X93541497Y-102858374D01*
X93534308Y-102860116D01*
X93453947Y-102858898D01*
X93417137Y-102836827D01*
X93355189Y-102807064D01*
X93311336Y-102806741D01*
X93236273Y-102806725D01*
X93159995Y-102786507D01*
X93102973Y-102754617D01*
X93094042Y-102736523D01*
X93172057Y-102736523D01*
X93210604Y-102741838D01*
X93245581Y-102742670D01*
X93311585Y-102740088D01*
X93328621Y-102732821D01*
X93318114Y-102728722D01*
X93241098Y-102722749D01*
X93189831Y-102728075D01*
X93172057Y-102736523D01*
X93094042Y-102736523D01*
X93085682Y-102719586D01*
X93088253Y-102713792D01*
X93092092Y-102691773D01*
X93074284Y-102699505D01*
X93035174Y-102691334D01*
X92999067Y-102638184D01*
X92984263Y-102591667D01*
X92983329Y-102535174D01*
X92986946Y-102516120D01*
X93023382Y-102516120D01*
X93031383Y-102576090D01*
X93047342Y-102599633D01*
X93106975Y-102650313D01*
X93176122Y-102678666D01*
X93234497Y-102680260D01*
X93261814Y-102650665D01*
X93262054Y-102646528D01*
X93268381Y-102599226D01*
X93314259Y-102599226D01*
X93335569Y-102657271D01*
X93362221Y-102682510D01*
X93409711Y-102734937D01*
X93421970Y-102770704D01*
X93450846Y-102804669D01*
X93518182Y-102814899D01*
X93588606Y-102804819D01*
X93596195Y-102793340D01*
X93656354Y-102793340D01*
X93663326Y-102867394D01*
X93664575Y-102874900D01*
X93686307Y-102993003D01*
X93708758Y-103061302D01*
X93742209Y-103093416D01*
X93796937Y-103102965D01*
X93837123Y-103103535D01*
X93926985Y-103092080D01*
X93991035Y-103063851D01*
X93997661Y-103057335D01*
X94049800Y-103025978D01*
X94078678Y-103027511D01*
X94121283Y-103012147D01*
X94182697Y-102950148D01*
X94222192Y-102897322D01*
X94272038Y-102818050D01*
X94296512Y-102764829D01*
X94293682Y-102750757D01*
X94260377Y-102775324D01*
X94208393Y-102837879D01*
X94177491Y-102881983D01*
X94124580Y-102954131D01*
X94085228Y-102993662D01*
X94073572Y-102996130D01*
X94078875Y-102961420D01*
X94114650Y-102898448D01*
X94167252Y-102825518D01*
X94223041Y-102760932D01*
X94268374Y-102722993D01*
X94279861Y-102719371D01*
X94317141Y-102698427D01*
X94319950Y-102686616D01*
X94291697Y-102665672D01*
X94221968Y-102654923D01*
X94204271Y-102654545D01*
X94128429Y-102660075D01*
X94103448Y-102681148D01*
X94108170Y-102705563D01*
X94104022Y-102764071D01*
X94068059Y-102839987D01*
X94061311Y-102849881D01*
X93995057Y-102917601D01*
X93931749Y-102942786D01*
X93885599Y-102923863D01*
X93870469Y-102871023D01*
X93854378Y-102779369D01*
X93803833Y-102739583D01*
X93733852Y-102741530D01*
X93676129Y-102758575D01*
X93656354Y-102793340D01*
X93596195Y-102793340D01*
X93613402Y-102767315D01*
X93614394Y-102750757D01*
X93599331Y-102711019D01*
X93692445Y-102711019D01*
X93723969Y-102716155D01*
X93765565Y-102710258D01*
X93766062Y-102699311D01*
X93723139Y-102691655D01*
X93704593Y-102696779D01*
X93692445Y-102711019D01*
X93599331Y-102711019D01*
X93594687Y-102698769D01*
X93567028Y-102686616D01*
X93516446Y-102661999D01*
X93468536Y-102608590D01*
X93440443Y-102524443D01*
X93441982Y-102518067D01*
X93490257Y-102518067D01*
X93497709Y-102574368D01*
X93530573Y-102619759D01*
X93562632Y-102609296D01*
X93568709Y-102589990D01*
X93653117Y-102589990D01*
X93658652Y-102607975D01*
X93693296Y-102643038D01*
X93742467Y-102654985D01*
X93775454Y-102637996D01*
X93777420Y-102630492D01*
X93780907Y-102599486D01*
X93878505Y-102599486D01*
X93887311Y-102721407D01*
X93906561Y-102836640D01*
X93930333Y-102895255D01*
X93946449Y-102901204D01*
X93973147Y-102863301D01*
X93974547Y-102827482D01*
X93968562Y-102748568D01*
X93965619Y-102634398D01*
X93965626Y-102628493D01*
X93999879Y-102628493D01*
X94005589Y-102711639D01*
X94019345Y-102759999D01*
X94020623Y-102761448D01*
X94045129Y-102780191D01*
X94048329Y-102755873D01*
X94039881Y-102706411D01*
X94035931Y-102647602D01*
X94059954Y-102616544D01*
X94123201Y-102608646D01*
X94236924Y-102619317D01*
X94249329Y-102620940D01*
X94347032Y-102628955D01*
X94415931Y-102625430D01*
X94435629Y-102616922D01*
X94417564Y-102600900D01*
X94352919Y-102591219D01*
X94313825Y-102589966D01*
X94170274Y-102583361D01*
X94082230Y-102562493D01*
X94042015Y-102524129D01*
X94039836Y-102474633D01*
X94041214Y-102424386D01*
X94026681Y-102416878D01*
X94010858Y-102456458D01*
X94001779Y-102535215D01*
X93999879Y-102628493D01*
X93965626Y-102628493D01*
X93965766Y-102511354D01*
X93969049Y-102405816D01*
X93973705Y-102353325D01*
X93965155Y-102297107D01*
X93946215Y-102279526D01*
X93916249Y-102297482D01*
X93893773Y-102365807D01*
X93880591Y-102470982D01*
X93878505Y-102599486D01*
X93780907Y-102599486D01*
X93782909Y-102581685D01*
X93787765Y-102538771D01*
X93781229Y-102488999D01*
X93736928Y-102486403D01*
X93736487Y-102486518D01*
X93665633Y-102525818D01*
X93653117Y-102589990D01*
X93568709Y-102589990D01*
X93581243Y-102550167D01*
X93582324Y-102526262D01*
X93572744Y-102458713D01*
X93558268Y-102440741D01*
X93689226Y-102440741D01*
X93693628Y-102459807D01*
X93710606Y-102462121D01*
X93737004Y-102450387D01*
X93731987Y-102440741D01*
X93693926Y-102436902D01*
X93689226Y-102440741D01*
X93558268Y-102440741D01*
X93549663Y-102430058D01*
X93549246Y-102430050D01*
X93509319Y-102456869D01*
X93490257Y-102518067D01*
X93441982Y-102518067D01*
X93458531Y-102449514D01*
X93514955Y-102403747D01*
X93551381Y-102397980D01*
X93600978Y-102375571D01*
X93601717Y-102372729D01*
X93652861Y-102372729D01*
X93654378Y-102382673D01*
X93687924Y-102393891D01*
X93748153Y-102409476D01*
X93810159Y-102415937D01*
X93840896Y-102384332D01*
X93854930Y-102333811D01*
X93888926Y-102257959D01*
X93931618Y-102237626D01*
X93979914Y-102257797D01*
X94034741Y-102306785D01*
X94082628Y-102367304D01*
X94110103Y-102422069D01*
X94103694Y-102453795D01*
X94100981Y-102454934D01*
X94061446Y-102480454D01*
X94076288Y-102505522D01*
X94136118Y-102522753D01*
X94191667Y-102526262D01*
X94271998Y-102519150D01*
X94316679Y-102501381D01*
X94319950Y-102494192D01*
X94294053Y-102465558D01*
X94272949Y-102462121D01*
X94232636Y-102437485D01*
X94170100Y-102372541D01*
X94098111Y-102280739D01*
X94090247Y-102269697D01*
X94017698Y-102170178D01*
X93964716Y-102112615D01*
X93915307Y-102085583D01*
X93853477Y-102077654D01*
X93820900Y-102077273D01*
X93687254Y-102077273D01*
X93666755Y-102226831D01*
X93656274Y-102315880D01*
X93652861Y-102372729D01*
X93601717Y-102372729D01*
X93613944Y-102325723D01*
X93589022Y-102274497D01*
X93558271Y-102255008D01*
X93495413Y-102260565D01*
X93458147Y-102299683D01*
X93409259Y-102350788D01*
X93373321Y-102365909D01*
X93343251Y-102395471D01*
X93321269Y-102474186D01*
X93317484Y-102502209D01*
X93314259Y-102599226D01*
X93268381Y-102599226D01*
X93270330Y-102584657D01*
X93281830Y-102534280D01*
X93288015Y-102488154D01*
X93263189Y-102467450D01*
X93192253Y-102462196D01*
X93172576Y-102462121D01*
X93071970Y-102476457D01*
X93023382Y-102516120D01*
X92986946Y-102516120D01*
X92998527Y-102455121D01*
X93016657Y-102391872D01*
X93069192Y-102391872D01*
X93095151Y-102420606D01*
X93155472Y-102429829D01*
X93223820Y-102420767D01*
X93273863Y-102394649D01*
X93282090Y-102381944D01*
X93320871Y-102339350D01*
X93342359Y-102333838D01*
X93365679Y-102305954D01*
X93402471Y-102232918D01*
X93446615Y-102130653D01*
X93491991Y-102015083D01*
X93532481Y-101902132D01*
X93561962Y-101807724D01*
X93574317Y-101747782D01*
X93572212Y-101735764D01*
X93539172Y-101739399D01*
X93464396Y-101758813D01*
X93401337Y-101778013D01*
X93239853Y-101829654D01*
X93154523Y-102091673D01*
X93115629Y-102215325D01*
X93086025Y-102317486D01*
X93070451Y-102381474D01*
X93069192Y-102391872D01*
X93016657Y-102391872D01*
X93032121Y-102337922D01*
X93067477Y-102227474D01*
X93112397Y-102090413D01*
X93150373Y-101975244D01*
X93176723Y-101896128D01*
X93186097Y-101868813D01*
X93163784Y-101850599D01*
X93088738Y-101839370D01*
X93007610Y-101836742D01*
X92829439Y-101814336D01*
X92691390Y-101745565D01*
X92591427Y-101628100D01*
X92527512Y-101459612D01*
X92498609Y-101254615D01*
X92506080Y-101105053D01*
X92542479Y-101105053D01*
X92543318Y-101320566D01*
X92580435Y-101506706D01*
X92612582Y-101583603D01*
X92709520Y-101705702D01*
X92847084Y-101779925D01*
X93022539Y-101805664D01*
X93233150Y-101782307D01*
X93357829Y-101749894D01*
X93532584Y-101681923D01*
X93737091Y-101578279D01*
X93885127Y-101489764D01*
X93999243Y-101489764D01*
X94025575Y-101493907D01*
X94092231Y-101478188D01*
X94180702Y-101448293D01*
X94181285Y-101448049D01*
X94324442Y-101448049D01*
X94601409Y-101665520D01*
X94878377Y-101882990D01*
X94935388Y-101732798D01*
X94992200Y-101583135D01*
X95126927Y-101583135D01*
X95131788Y-101623618D01*
X95157019Y-101646315D01*
X95177303Y-101691274D01*
X95173856Y-101760455D01*
X95169291Y-101829447D01*
X95196337Y-101852532D01*
X95201957Y-101852778D01*
X95251812Y-101877379D01*
X95300111Y-101931513D01*
X95343954Y-101984103D01*
X95385776Y-101986592D01*
X95412297Y-101972404D01*
X95471052Y-101950876D01*
X95512180Y-101973846D01*
X95563400Y-102009729D01*
X95596878Y-101988150D01*
X95615948Y-101932954D01*
X95647269Y-101872753D01*
X95683566Y-101852778D01*
X95723604Y-101844401D01*
X95723931Y-101809505D01*
X95696765Y-101752407D01*
X95679819Y-101683253D01*
X95700250Y-101642799D01*
X95716323Y-101605514D01*
X95681523Y-101576750D01*
X95653548Y-101565154D01*
X95584169Y-101524254D01*
X95549503Y-101482060D01*
X95510916Y-101446421D01*
X95451046Y-101450889D01*
X95373687Y-101452622D01*
X95327641Y-101433754D01*
X95290630Y-101418841D01*
X95261531Y-101455672D01*
X95251326Y-101480479D01*
X95212308Y-101541782D01*
X95170617Y-101564141D01*
X95126927Y-101583135D01*
X94992200Y-101583135D01*
X94992400Y-101582607D01*
X94912741Y-101499460D01*
X94908452Y-101493567D01*
X94984209Y-101493567D01*
X95007973Y-101530292D01*
X95017315Y-101540740D01*
X95061891Y-101574821D01*
X95083481Y-101566602D01*
X95121045Y-101535187D01*
X95141219Y-101532071D01*
X95185808Y-101505294D01*
X95217930Y-101451894D01*
X95255568Y-101385015D01*
X95299651Y-101379100D01*
X95339264Y-101409667D01*
X95382141Y-101438757D01*
X95398195Y-101424079D01*
X95390119Y-101394236D01*
X95754174Y-101394236D01*
X95780156Y-101448843D01*
X95782772Y-101452895D01*
X95829248Y-101509536D01*
X95852764Y-101514209D01*
X95849892Y-101500000D01*
X95891414Y-101500000D01*
X95903149Y-101526398D01*
X95912795Y-101521380D01*
X95916633Y-101483320D01*
X95912795Y-101478619D01*
X95893729Y-101483022D01*
X95891414Y-101500000D01*
X95849892Y-101500000D01*
X95843803Y-101469871D01*
X95828743Y-101438605D01*
X95788954Y-101386474D01*
X95761264Y-101371717D01*
X95754174Y-101394236D01*
X95390119Y-101394236D01*
X95386422Y-101380577D01*
X95345821Y-101323197D01*
X95345111Y-101322438D01*
X95268924Y-101241342D01*
X95227470Y-101320461D01*
X95169396Y-101385027D01*
X95083333Y-101436508D01*
X95074338Y-101439963D01*
X95003319Y-101468780D01*
X94984209Y-101493567D01*
X94908452Y-101493567D01*
X94858617Y-101425094D01*
X94833330Y-101355140D01*
X94833081Y-101349598D01*
X94821181Y-101318266D01*
X94865152Y-101318266D01*
X94883326Y-101403327D01*
X94937994Y-101435930D01*
X95029374Y-101416121D01*
X95115755Y-101370819D01*
X95187901Y-101315825D01*
X95213023Y-101258408D01*
X95211967Y-101218603D01*
X95186970Y-101148435D01*
X95123509Y-101120700D01*
X95121717Y-101120453D01*
X95068683Y-101118268D01*
X95069920Y-101137882D01*
X95081629Y-101150921D01*
X95119339Y-101219917D01*
X95093744Y-101281147D01*
X95052873Y-101310092D01*
X94995116Y-101329988D01*
X94960242Y-101303908D01*
X94955068Y-101295185D01*
X94911191Y-101247655D01*
X94876829Y-101260534D01*
X94865152Y-101318266D01*
X94821181Y-101318266D01*
X94807975Y-101283498D01*
X94757871Y-101233602D01*
X94714894Y-101210142D01*
X94674629Y-101208438D01*
X94620885Y-101233747D01*
X94537468Y-101291329D01*
X94503551Y-101316186D01*
X94324442Y-101448049D01*
X94181285Y-101448049D01*
X94272478Y-101409907D01*
X94295616Y-101398728D01*
X94371488Y-101352047D01*
X94484868Y-101271344D01*
X94624859Y-101165349D01*
X94752935Y-101165349D01*
X94770106Y-101196733D01*
X94819006Y-101236706D01*
X94856569Y-101238662D01*
X94865152Y-101217493D01*
X94848041Y-101173454D01*
X94821941Y-101132458D01*
X94781623Y-101095335D01*
X94755039Y-101111698D01*
X94752935Y-101165349D01*
X94624859Y-101165349D01*
X94625213Y-101165081D01*
X94737629Y-101076619D01*
X94847354Y-101076619D01*
X94867972Y-101129897D01*
X94902058Y-101176621D01*
X94977968Y-101253057D01*
X95038063Y-101272476D01*
X95071250Y-101247255D01*
X95063480Y-101207621D01*
X95023776Y-101139673D01*
X94996677Y-101103196D01*
X94937510Y-101034819D01*
X94899963Y-101012574D01*
X94870160Y-101029167D01*
X94865681Y-101034337D01*
X94847354Y-101076619D01*
X94737629Y-101076619D01*
X94781975Y-101041722D01*
X94867344Y-100972437D01*
X94963019Y-100972437D01*
X94988277Y-101032019D01*
X95055494Y-101073509D01*
X95113628Y-101083081D01*
X95187099Y-101105818D01*
X95260890Y-101160775D01*
X95263227Y-101163257D01*
X95319687Y-101216616D01*
X95360781Y-101243027D01*
X95374158Y-101236299D01*
X95363617Y-101213579D01*
X95367639Y-101172390D01*
X95377760Y-101163581D01*
X95408937Y-101111034D01*
X95387991Y-101028006D01*
X95316256Y-100919465D01*
X95310447Y-100912349D01*
X95255827Y-100839530D01*
X95227277Y-100788174D01*
X95226633Y-100775051D01*
X95251914Y-100791410D01*
X95306486Y-100848610D01*
X95380921Y-100936355D01*
X95426342Y-100993178D01*
X95502181Y-101085700D01*
X95558108Y-101145685D01*
X95587028Y-101166026D01*
X95588171Y-101155240D01*
X95581951Y-101096631D01*
X95614869Y-101088121D01*
X95666920Y-101114729D01*
X95693539Y-101159671D01*
X95673644Y-101213401D01*
X95618492Y-101256847D01*
X95575450Y-101269718D01*
X95521076Y-101262625D01*
X95506566Y-101210921D01*
X95490764Y-101161782D01*
X95457595Y-101160267D01*
X95428415Y-101202867D01*
X95423505Y-101224571D01*
X95432138Y-101317662D01*
X95482089Y-101372950D01*
X95560607Y-101387140D01*
X95654941Y-101356938D01*
X95722423Y-101307576D01*
X95795202Y-101307576D01*
X95806936Y-101333973D01*
X95816583Y-101328956D01*
X95817392Y-101320938D01*
X95861876Y-101320938D01*
X95867772Y-101362535D01*
X95878720Y-101363031D01*
X95886376Y-101320108D01*
X95881252Y-101301562D01*
X95867011Y-101289415D01*
X95861876Y-101320938D01*
X95817392Y-101320938D01*
X95820421Y-101290896D01*
X95816583Y-101286195D01*
X95797517Y-101290597D01*
X95795202Y-101307576D01*
X95722423Y-101307576D01*
X95728235Y-101303325D01*
X95783664Y-101216235D01*
X95787664Y-101147222D01*
X95832337Y-101147222D01*
X95837377Y-101192751D01*
X95848513Y-101187310D01*
X95852749Y-101121651D01*
X95848513Y-101107134D01*
X95836807Y-101103105D01*
X95832337Y-101147222D01*
X95787664Y-101147222D01*
X95789282Y-101119310D01*
X95746168Y-101038628D01*
X95677231Y-101008557D01*
X95602333Y-101026023D01*
X95567792Y-101058343D01*
X95540973Y-101048960D01*
X95488141Y-100997956D01*
X95420301Y-100916089D01*
X95414417Y-100908346D01*
X95343798Y-100819692D01*
X95285970Y-100755919D01*
X95253048Y-100730343D01*
X95252429Y-100730303D01*
X95208928Y-100750008D01*
X95139997Y-100798847D01*
X95064059Y-100861404D01*
X94999540Y-100922265D01*
X94964864Y-100966015D01*
X94963019Y-100972437D01*
X94867344Y-100972437D01*
X94944611Y-100909728D01*
X95102574Y-100777563D01*
X95245321Y-100653689D01*
X95362306Y-100546570D01*
X95386055Y-100523630D01*
X95511140Y-100393404D01*
X95594545Y-100282928D01*
X95646221Y-100173893D01*
X95676117Y-100047988D01*
X95686183Y-99971386D01*
X95706656Y-99784217D01*
X95607822Y-99930163D01*
X95539647Y-100017975D01*
X95432735Y-100140062D01*
X95295876Y-100287624D01*
X95137861Y-100451863D01*
X94967480Y-100623979D01*
X94793523Y-100795176D01*
X94624781Y-100956654D01*
X94470045Y-101099614D01*
X94338104Y-101215259D01*
X94263826Y-101275391D01*
X94154483Y-101360279D01*
X94067143Y-101430046D01*
X94012446Y-101476071D01*
X93999243Y-101489764D01*
X93885127Y-101489764D01*
X93955059Y-101447950D01*
X94160652Y-101306951D01*
X94271383Y-101218836D01*
X94410430Y-101097646D01*
X94569698Y-100951468D01*
X94741090Y-100788389D01*
X94916510Y-100616497D01*
X95087861Y-100443880D01*
X95247048Y-100278623D01*
X95385973Y-100128815D01*
X95496541Y-100002542D01*
X95570654Y-99907893D01*
X95587948Y-99881266D01*
X95660336Y-99698571D01*
X95671242Y-99508997D01*
X95620315Y-99322978D01*
X95607585Y-99296543D01*
X95498516Y-99142337D01*
X95342671Y-99001078D01*
X95157411Y-98884989D01*
X94960097Y-98806290D01*
X94886523Y-98788910D01*
X94810316Y-98778568D01*
X94782687Y-98789197D01*
X94786770Y-98815209D01*
X94790249Y-98868117D01*
X94760430Y-98882910D01*
X94718276Y-98855678D01*
X94702063Y-98831012D01*
X94670945Y-98772910D01*
X94656912Y-98749155D01*
X94621641Y-98749442D01*
X94543902Y-98766932D01*
X94441279Y-98796298D01*
X94331357Y-98832209D01*
X94231719Y-98869338D01*
X94171205Y-98896350D01*
X93941141Y-99038150D01*
X93701059Y-99229771D01*
X93460708Y-99460010D01*
X93229836Y-99717669D01*
X93018191Y-99991548D01*
X92835522Y-100270445D01*
X92691576Y-100543162D01*
X92647358Y-100647159D01*
X92577348Y-100875479D01*
X92542479Y-101105053D01*
X92506080Y-101105053D01*
X92511793Y-100990695D01*
X92582888Y-100706113D01*
X92710646Y-100405001D01*
X92808098Y-100227971D01*
X92879570Y-100104663D01*
X92921788Y-100019473D01*
X92939980Y-99956436D01*
X92939374Y-99899588D01*
X92930444Y-99854409D01*
X92913132Y-99728276D01*
X92918588Y-99689829D01*
X92960590Y-99689829D01*
X92961048Y-99781689D01*
X92973560Y-99857427D01*
X92996111Y-99895331D01*
X93001384Y-99896464D01*
X93030208Y-99873285D01*
X93086103Y-99812539D01*
X93156388Y-99728093D01*
X93368598Y-99488455D01*
X93615824Y-99251597D01*
X93872657Y-99041819D01*
X93878671Y-99037361D01*
X93982142Y-98959146D01*
X94039390Y-98909536D01*
X94056862Y-98880532D01*
X94041006Y-98864132D01*
X94022989Y-98858265D01*
X93838349Y-98840694D01*
X93658803Y-98885926D01*
X93596085Y-98917945D01*
X93501386Y-98986408D01*
X93388866Y-99087189D01*
X93270305Y-99207300D01*
X93157486Y-99333751D01*
X93062192Y-99453553D01*
X92996204Y-99553717D01*
X92974201Y-99603556D01*
X92960590Y-99689829D01*
X92918588Y-99689829D01*
X92929417Y-99613521D01*
X92984679Y-99495657D01*
X93084296Y-99360199D01*
X93136670Y-99299090D01*
X93315104Y-99106207D01*
X93468262Y-98963984D01*
X93603895Y-98868095D01*
X93729754Y-98814213D01*
X93853587Y-98798014D01*
X93983145Y-98815171D01*
X93997289Y-98818704D01*
X94099060Y-98840551D01*
X94171336Y-98838839D01*
X94245093Y-98811393D01*
X94268538Y-98799669D01*
X94384273Y-98740294D01*
X94334771Y-98620841D01*
X94244844Y-98434775D01*
X94115273Y-98211319D01*
X93951644Y-97958562D01*
X93759543Y-97684591D01*
X93544557Y-97397496D01*
X93312273Y-97105365D01*
X93170987Y-96935824D01*
X93064985Y-96807106D01*
X92976120Y-96692059D01*
X92911960Y-96601033D01*
X92880072Y-96544381D01*
X92877921Y-96534940D01*
X92887248Y-96508558D01*
X92918833Y-96529917D01*
G37*
D11*
%TO.C,C1*%
X114737651Y-66685000D02*
X115537651Y-66685000D01*
X115137651Y-66285000D02*
X115137651Y-67085000D01*
X119147349Y-64920000D02*
X119147349Y-73080000D01*
X119187349Y-64920000D02*
X119187349Y-73080000D01*
X119227349Y-64920000D02*
X119227349Y-73080000D01*
X119267349Y-64921000D02*
X119267349Y-73079000D01*
X119307349Y-64923000D02*
X119307349Y-73077000D01*
X119347349Y-64924000D02*
X119347349Y-73076000D01*
X119387349Y-64926000D02*
X119387349Y-73074000D01*
X119427349Y-64929000D02*
X119427349Y-73071000D01*
X119467349Y-64932000D02*
X119467349Y-73068000D01*
X119507349Y-64935000D02*
X119507349Y-73065000D01*
X119547349Y-64939000D02*
X119547349Y-73061000D01*
X119587349Y-64943000D02*
X119587349Y-73057000D01*
X119627349Y-64948000D02*
X119627349Y-73052000D01*
X119667349Y-64952000D02*
X119667349Y-73048000D01*
X119707349Y-64958000D02*
X119707349Y-73042000D01*
X119747349Y-64963000D02*
X119747349Y-73037000D01*
X119787349Y-64970000D02*
X119787349Y-73030000D01*
X119827349Y-64976000D02*
X119827349Y-73024000D01*
X119868349Y-64983000D02*
X119868349Y-67960000D01*
X119868349Y-70040000D02*
X119868349Y-73017000D01*
X119908349Y-64990000D02*
X119908349Y-67960000D01*
X119908349Y-70040000D02*
X119908349Y-73010000D01*
X119948349Y-64998000D02*
X119948349Y-67960000D01*
X119948349Y-70040000D02*
X119948349Y-73002000D01*
X119988349Y-65006000D02*
X119988349Y-67960000D01*
X119988349Y-70040000D02*
X119988349Y-72994000D01*
X120028349Y-65015000D02*
X120028349Y-67960000D01*
X120028349Y-70040000D02*
X120028349Y-72985000D01*
X120068349Y-65024000D02*
X120068349Y-67960000D01*
X120068349Y-70040000D02*
X120068349Y-72976000D01*
X120108349Y-65033000D02*
X120108349Y-67960000D01*
X120108349Y-70040000D02*
X120108349Y-72967000D01*
X120148349Y-65043000D02*
X120148349Y-67960000D01*
X120148349Y-70040000D02*
X120148349Y-72957000D01*
X120188349Y-65053000D02*
X120188349Y-67960000D01*
X120188349Y-70040000D02*
X120188349Y-72947000D01*
X120228349Y-65064000D02*
X120228349Y-67960000D01*
X120228349Y-70040000D02*
X120228349Y-72936000D01*
X120268349Y-65075000D02*
X120268349Y-67960000D01*
X120268349Y-70040000D02*
X120268349Y-72925000D01*
X120308349Y-65086000D02*
X120308349Y-67960000D01*
X120308349Y-70040000D02*
X120308349Y-72914000D01*
X120348349Y-65098000D02*
X120348349Y-67960000D01*
X120348349Y-70040000D02*
X120348349Y-72902000D01*
X120388349Y-65111000D02*
X120388349Y-67960000D01*
X120388349Y-70040000D02*
X120388349Y-72889000D01*
X120428349Y-65123000D02*
X120428349Y-67960000D01*
X120428349Y-70040000D02*
X120428349Y-72877000D01*
X120468349Y-65137000D02*
X120468349Y-67960000D01*
X120468349Y-70040000D02*
X120468349Y-72863000D01*
X120508349Y-65150000D02*
X120508349Y-67960000D01*
X120508349Y-70040000D02*
X120508349Y-72850000D01*
X120548349Y-65165000D02*
X120548349Y-67960000D01*
X120548349Y-70040000D02*
X120548349Y-72835000D01*
X120588349Y-65179000D02*
X120588349Y-67960000D01*
X120588349Y-70040000D02*
X120588349Y-72821000D01*
X120628349Y-65195000D02*
X120628349Y-67960000D01*
X120628349Y-70040000D02*
X120628349Y-72805000D01*
X120668349Y-65210000D02*
X120668349Y-67960000D01*
X120668349Y-70040000D02*
X120668349Y-72790000D01*
X120708349Y-65226000D02*
X120708349Y-67960000D01*
X120708349Y-70040000D02*
X120708349Y-72774000D01*
X120748349Y-65243000D02*
X120748349Y-67960000D01*
X120748349Y-70040000D02*
X120748349Y-72757000D01*
X120788349Y-65260000D02*
X120788349Y-67960000D01*
X120788349Y-70040000D02*
X120788349Y-72740000D01*
X120828349Y-65278000D02*
X120828349Y-67960000D01*
X120828349Y-70040000D02*
X120828349Y-72722000D01*
X120868349Y-65296000D02*
X120868349Y-67960000D01*
X120868349Y-70040000D02*
X120868349Y-72704000D01*
X120908349Y-65314000D02*
X120908349Y-67960000D01*
X120908349Y-70040000D02*
X120908349Y-72686000D01*
X120948349Y-65334000D02*
X120948349Y-67960000D01*
X120948349Y-70040000D02*
X120948349Y-72666000D01*
X120988349Y-65353000D02*
X120988349Y-67960000D01*
X120988349Y-70040000D02*
X120988349Y-72647000D01*
X121028349Y-65373000D02*
X121028349Y-67960000D01*
X121028349Y-70040000D02*
X121028349Y-72627000D01*
X121068349Y-65394000D02*
X121068349Y-67960000D01*
X121068349Y-70040000D02*
X121068349Y-72606000D01*
X121108349Y-65416000D02*
X121108349Y-67960000D01*
X121108349Y-70040000D02*
X121108349Y-72584000D01*
X121148349Y-65438000D02*
X121148349Y-67960000D01*
X121148349Y-70040000D02*
X121148349Y-72562000D01*
X121188349Y-65460000D02*
X121188349Y-67960000D01*
X121188349Y-70040000D02*
X121188349Y-72540000D01*
X121228349Y-65483000D02*
X121228349Y-67960000D01*
X121228349Y-70040000D02*
X121228349Y-72517000D01*
X121268349Y-65507000D02*
X121268349Y-67960000D01*
X121268349Y-70040000D02*
X121268349Y-72493000D01*
X121308349Y-65531000D02*
X121308349Y-67960000D01*
X121308349Y-70040000D02*
X121308349Y-72469000D01*
X121348349Y-65556000D02*
X121348349Y-67960000D01*
X121348349Y-70040000D02*
X121348349Y-72444000D01*
X121388349Y-65582000D02*
X121388349Y-67960000D01*
X121388349Y-70040000D02*
X121388349Y-72418000D01*
X121428349Y-65608000D02*
X121428349Y-67960000D01*
X121428349Y-70040000D02*
X121428349Y-72392000D01*
X121468349Y-65635000D02*
X121468349Y-67960000D01*
X121468349Y-70040000D02*
X121468349Y-72365000D01*
X121508349Y-65662000D02*
X121508349Y-67960000D01*
X121508349Y-70040000D02*
X121508349Y-72338000D01*
X121548349Y-65691000D02*
X121548349Y-67960000D01*
X121548349Y-70040000D02*
X121548349Y-72309000D01*
X121588349Y-65720000D02*
X121588349Y-67960000D01*
X121588349Y-70040000D02*
X121588349Y-72280000D01*
X121628349Y-65750000D02*
X121628349Y-67960000D01*
X121628349Y-70040000D02*
X121628349Y-72250000D01*
X121668349Y-65780000D02*
X121668349Y-67960000D01*
X121668349Y-70040000D02*
X121668349Y-72220000D01*
X121708349Y-65811000D02*
X121708349Y-67960000D01*
X121708349Y-70040000D02*
X121708349Y-72189000D01*
X121748349Y-65844000D02*
X121748349Y-67960000D01*
X121748349Y-70040000D02*
X121748349Y-72156000D01*
X121788349Y-65876000D02*
X121788349Y-67960000D01*
X121788349Y-70040000D02*
X121788349Y-72124000D01*
X121828349Y-65910000D02*
X121828349Y-67960000D01*
X121828349Y-70040000D02*
X121828349Y-72090000D01*
X121868349Y-65945000D02*
X121868349Y-67960000D01*
X121868349Y-70040000D02*
X121868349Y-72055000D01*
X121908349Y-65981000D02*
X121908349Y-67960000D01*
X121908349Y-70040000D02*
X121908349Y-72019000D01*
X121948349Y-66017000D02*
X121948349Y-71983000D01*
X121988349Y-66055000D02*
X121988349Y-71945000D01*
X122028349Y-66093000D02*
X122028349Y-71907000D01*
X122068349Y-66133000D02*
X122068349Y-71867000D01*
X122108349Y-66174000D02*
X122108349Y-71826000D01*
X122148349Y-66216000D02*
X122148349Y-71784000D01*
X122188349Y-66259000D02*
X122188349Y-71741000D01*
X122228349Y-66303000D02*
X122228349Y-71697000D01*
X122268349Y-66349000D02*
X122268349Y-71651000D01*
X122308349Y-66396000D02*
X122308349Y-71604000D01*
X122348349Y-66444000D02*
X122348349Y-71556000D01*
X122388349Y-66495000D02*
X122388349Y-71505000D01*
X122428349Y-66546000D02*
X122428349Y-71454000D01*
X122468349Y-66600000D02*
X122468349Y-71400000D01*
X122508349Y-66655000D02*
X122508349Y-71345000D01*
X122548349Y-66713000D02*
X122548349Y-71287000D01*
X122588349Y-66772000D02*
X122588349Y-71228000D01*
X122628349Y-66834000D02*
X122628349Y-71166000D01*
X122668349Y-66898000D02*
X122668349Y-71102000D01*
X122708349Y-66966000D02*
X122708349Y-71034000D01*
X122748349Y-67036000D02*
X122748349Y-70964000D01*
X122788349Y-67110000D02*
X122788349Y-70890000D01*
X122828349Y-67187000D02*
X122828349Y-70813000D01*
X122868349Y-67269000D02*
X122868349Y-70731000D01*
X122908349Y-67355000D02*
X122908349Y-70645000D01*
X122948349Y-67448000D02*
X122948349Y-70552000D01*
X122988349Y-67547000D02*
X122988349Y-70453000D01*
X123028349Y-67654000D02*
X123028349Y-70346000D01*
X123068349Y-67771000D02*
X123068349Y-70229000D01*
X123108349Y-67902000D02*
X123108349Y-70098000D01*
X123148349Y-68052000D02*
X123148349Y-69948000D01*
X123188349Y-68232000D02*
X123188349Y-69768000D01*
X123228349Y-68467000D02*
X123228349Y-69533000D01*
X123267349Y-69000000D02*
G75*
G02*
X115027349Y-69000000I-4120000J0D01*
G01*
X115027349Y-69000000D02*
G75*
G02*
X123267349Y-69000000I4120000J0D01*
G01*
%TO.C,M1*%
X126490000Y-62715000D02*
X126490000Y-68685000D01*
X126490000Y-68685000D02*
X139110000Y-68685000D01*
X126500000Y-66425000D02*
X127250000Y-66425000D01*
X126500000Y-67925000D02*
X126500000Y-68675000D01*
X126500000Y-68675000D02*
X128300000Y-68675000D01*
X127250000Y-63475000D02*
X132800000Y-63475000D01*
X127250000Y-66425000D02*
X127250000Y-63475000D01*
X128300000Y-67925000D02*
X126500000Y-67925000D01*
X128300000Y-68675000D02*
X128300000Y-67925000D01*
X129800000Y-67925000D02*
X129800000Y-68675000D01*
X129800000Y-68675000D02*
X135800000Y-68675000D01*
X135800000Y-67925000D02*
X129800000Y-67925000D01*
X135800000Y-68675000D02*
X135800000Y-67925000D01*
X137300000Y-67925000D02*
X137300000Y-68675000D01*
X137300000Y-68675000D02*
X139100000Y-68675000D01*
X138150000Y-68975000D02*
X139400000Y-68975000D01*
X138350000Y-63475000D02*
X132800000Y-63475000D01*
X138350000Y-66425000D02*
X138350000Y-63475000D01*
X139100000Y-66425000D02*
X138350000Y-66425000D01*
X139100000Y-67925000D02*
X137300000Y-67925000D01*
X139100000Y-68675000D02*
X139100000Y-67925000D01*
X139110000Y-62715000D02*
X126490000Y-62715000D01*
X139110000Y-68685000D02*
X139110000Y-62715000D01*
X139400000Y-68975000D02*
X139400000Y-67725000D01*
%TO.C,RE1*%
X174790000Y-95440000D02*
X174790000Y-110560000D01*
X174790000Y-110560000D02*
X180760000Y-110560000D01*
X175550000Y-96200000D02*
X175550000Y-103000000D01*
X175550000Y-109800000D02*
X175550000Y-103000000D01*
X178500000Y-95450000D02*
X178500000Y-96200000D01*
X178500000Y-96200000D02*
X175550000Y-96200000D01*
X178500000Y-109800000D02*
X175550000Y-109800000D01*
X178500000Y-110550000D02*
X178500000Y-109800000D01*
X180000000Y-95450000D02*
X180000000Y-97250000D01*
X180000000Y-97250000D02*
X180750000Y-97250000D01*
X180000000Y-98750000D02*
X180000000Y-107250000D01*
X180000000Y-107250000D02*
X180750000Y-107250000D01*
X180000000Y-108750000D02*
X180000000Y-110550000D01*
X180000000Y-110550000D02*
X180750000Y-110550000D01*
X180750000Y-95450000D02*
X180000000Y-95450000D01*
X180750000Y-97250000D02*
X180750000Y-95450000D01*
X180750000Y-98750000D02*
X180000000Y-98750000D01*
X180750000Y-107250000D02*
X180750000Y-98750000D01*
X180750000Y-108750000D02*
X180000000Y-108750000D01*
X180750000Y-110550000D02*
X180750000Y-108750000D01*
X180760000Y-95440000D02*
X174790000Y-95440000D01*
X180760000Y-110560000D02*
X180760000Y-95440000D01*
X181050000Y-95150000D02*
X179800000Y-95150000D01*
X181050000Y-96400000D02*
X181050000Y-95150000D01*
%TO.C,R2*%
X168165000Y-91777064D02*
X168165000Y-90322936D01*
X169985000Y-91777064D02*
X169985000Y-90322936D01*
%TO.C,C4*%
X103811252Y-83890000D02*
X102388748Y-83890000D01*
X103811252Y-85710000D02*
X102388748Y-85710000D01*
%TO.C,F1*%
X93997936Y-80090000D02*
X95202064Y-80090000D01*
X93997936Y-81910000D02*
X95202064Y-81910000D01*
%TO.C,C3*%
X95211252Y-82790000D02*
X93788748Y-82790000D01*
X95211252Y-84610000D02*
X93788748Y-84610000D01*
%TO.C,R4*%
X101732776Y-91777500D02*
X102242224Y-91777500D01*
X101732776Y-92822500D02*
X102242224Y-92822500D01*
%TO.C,D2*%
X96187500Y-93035000D02*
X98647500Y-93035000D01*
X98647500Y-91565000D02*
X96187500Y-91565000D01*
X98647500Y-93035000D02*
X98647500Y-91565000D01*
%TO.C,A1*%
X120710000Y-76600000D02*
X120710000Y-92100000D01*
X120710000Y-92100000D02*
X141290000Y-92100000D01*
X138620000Y-76600000D02*
X120710000Y-76600000D01*
X138620000Y-79270000D02*
X120710000Y-79270000D01*
X138620000Y-79270000D02*
X138620000Y-76600000D01*
X141290000Y-76600000D02*
X139890000Y-76600000D01*
X141290000Y-78000000D02*
X141290000Y-76600000D01*
X141290000Y-79270000D02*
X138620000Y-79270000D01*
X141290000Y-89430000D02*
X120710000Y-89430000D01*
X141290000Y-92100000D02*
X141290000Y-79270000D01*
%TD*%
M02*
