%TF.GenerationSoftware,KiCad,Pcbnew,9.0.0*%
%TF.CreationDate,2025-03-09T21:01:43-04:00*%
%TF.ProjectId,RobocupSwinderPCB,526f626f-6375-4705-9377-696e64657250,1*%
%TF.SameCoordinates,Original*%
%TF.FileFunction,Soldermask,Bot*%
%TF.FilePolarity,Negative*%
%FSLAX46Y46*%
G04 Gerber Fmt 4.6, Leading zero omitted, Abs format (unit mm)*
G04 Created by KiCad (PCBNEW 9.0.0) date 2025-03-09 21:01:43*
%MOMM*%
%LPD*%
G01*
G04 APERTURE LIST*
G04 Aperture macros list*
%AMRoundRect*
0 Rectangle with rounded corners*
0 $1 Rounding radius*
0 $2 $3 $4 $5 $6 $7 $8 $9 X,Y pos of 4 corners*
0 Add a 4 corners polygon primitive as box body*
4,1,4,$2,$3,$4,$5,$6,$7,$8,$9,$2,$3,0*
0 Add four circle primitives for the rounded corners*
1,1,$1+$1,$2,$3*
1,1,$1+$1,$4,$5*
1,1,$1+$1,$6,$7*
1,1,$1+$1,$8,$9*
0 Add four rect primitives between the rounded corners*
20,1,$1+$1,$2,$3,$4,$5,0*
20,1,$1+$1,$4,$5,$6,$7,0*
20,1,$1+$1,$6,$7,$8,$9,0*
20,1,$1+$1,$8,$9,$2,$3,0*%
G04 Aperture macros list end*
%ADD10RoundRect,0.250000X0.725000X-0.600000X0.725000X0.600000X-0.725000X0.600000X-0.725000X-0.600000X0*%
%ADD11O,1.950000X1.700000*%
%ADD12R,1.600000X1.600000*%
%ADD13C,1.600000*%
%ADD14C,3.800000*%
%ADD15RoundRect,0.250000X-0.725000X0.600000X-0.725000X-0.600000X0.725000X-0.600000X0.725000X0.600000X0*%
%ADD16RoundRect,0.250000X-0.750000X0.600000X-0.750000X-0.600000X0.750000X-0.600000X0.750000X0.600000X0*%
%ADD17O,2.000000X1.700000*%
%ADD18O,1.600000X1.600000*%
%ADD19O,4.500000X2.250000*%
%ADD20RoundRect,0.250000X0.600000X0.725000X-0.600000X0.725000X-0.600000X-0.725000X0.600000X-0.725000X0*%
%ADD21O,1.700000X1.950000*%
G04 APERTURE END LIST*
D10*
%TO.C,SW2*%
X177300000Y-91000000D03*
D11*
X177300000Y-88500000D03*
X177300000Y-86000000D03*
%TD*%
D12*
%TO.C,C2*%
X144500000Y-69000000D03*
D13*
X148000000Y-69000000D03*
%TD*%
D10*
%TO.C,SW1*%
X177300000Y-79000000D03*
D11*
X177300000Y-76500000D03*
X177300000Y-74000000D03*
%TD*%
D14*
%TO.C,H4*%
X93500000Y-115000000D03*
%TD*%
D15*
%TO.C,LCD1*%
X169500000Y-100500000D03*
D11*
X169500000Y-103000000D03*
X169500000Y-105500000D03*
X169500000Y-108000000D03*
%TD*%
D14*
%TO.C,H2*%
X177500000Y-66000000D03*
%TD*%
D16*
%TO.C,SW3*%
X93700000Y-73000000D03*
D17*
X93700000Y-75500000D03*
%TD*%
D12*
%TO.C,U1*%
X103800000Y-111990000D03*
D13*
X106340000Y-111990000D03*
X108880000Y-111990000D03*
X111420000Y-111990000D03*
X113960000Y-111990000D03*
X116500000Y-111990000D03*
X119040000Y-111990000D03*
X121580000Y-111990000D03*
X124120000Y-111990000D03*
X126660000Y-111990000D03*
X129200000Y-111990000D03*
X131740000Y-111990000D03*
X134280000Y-111990000D03*
X136820000Y-111990000D03*
X139360000Y-111990000D03*
X141900000Y-111990000D03*
X144440000Y-111990000D03*
X146980000Y-111990000D03*
X149520000Y-111990000D03*
X152060000Y-111990000D03*
X154600000Y-111990000D03*
X157140000Y-111990000D03*
X159680000Y-111990000D03*
X162220000Y-111990000D03*
X162220000Y-96750000D03*
X159680000Y-96750000D03*
X157140000Y-96750000D03*
X154600000Y-96750000D03*
X152060000Y-96750000D03*
X149520000Y-96750000D03*
X146980000Y-96750000D03*
X144440000Y-96750000D03*
X141900000Y-96750000D03*
X139360000Y-96750000D03*
X136820000Y-96750000D03*
X134280000Y-96750000D03*
X131740000Y-96750000D03*
X129200000Y-96750000D03*
X126660000Y-96750000D03*
X124120000Y-96750000D03*
X121580000Y-96750000D03*
X119040000Y-96750000D03*
X116500000Y-96750000D03*
X113960000Y-96750000D03*
X111420000Y-96750000D03*
X108880000Y-96750000D03*
X106340000Y-96750000D03*
X103800000Y-96750000D03*
%TD*%
D12*
%TO.C,A2*%
X163000000Y-78000000D03*
D18*
X160460000Y-78000000D03*
X157920000Y-78000000D03*
X155380000Y-78000000D03*
X152840000Y-78000000D03*
X150300000Y-78000000D03*
X147760000Y-78000000D03*
X145220000Y-78000000D03*
X145220000Y-90700000D03*
X147760000Y-90700000D03*
X150300000Y-90700000D03*
X152840000Y-90700000D03*
X155380000Y-90700000D03*
X157920000Y-90700000D03*
X160460000Y-90700000D03*
X163000000Y-90700000D03*
%TD*%
D19*
%TO.C,J1*%
X106200000Y-76000000D03*
X106200000Y-69700000D03*
%TD*%
D20*
%TO.C,M2*%
X163800000Y-66225000D03*
D21*
X161300000Y-66225000D03*
X158800000Y-66225000D03*
X156300000Y-66225000D03*
%TD*%
D14*
%TO.C,H3*%
X177500000Y-115000000D03*
%TD*%
D12*
%TO.C,C1*%
X117397349Y-69000000D03*
D13*
X120897349Y-69000000D03*
%TD*%
D20*
%TO.C,M1*%
X136550000Y-66225000D03*
D21*
X134050000Y-66225000D03*
X131550000Y-66225000D03*
X129050000Y-66225000D03*
%TD*%
D15*
%TO.C,RE1*%
X178300000Y-98000000D03*
D11*
X178300000Y-100500000D03*
X178300000Y-103000000D03*
X178300000Y-105500000D03*
X178300000Y-108000000D03*
%TD*%
D12*
%TO.C,A1*%
X139890000Y-78000000D03*
D18*
X137350000Y-78000000D03*
X134810000Y-78000000D03*
X132270000Y-78000000D03*
X129730000Y-78000000D03*
X127190000Y-78000000D03*
X124650000Y-78000000D03*
X122110000Y-78000000D03*
X122110000Y-90700000D03*
X124650000Y-90700000D03*
X127190000Y-90700000D03*
X129730000Y-90700000D03*
X132270000Y-90700000D03*
X134810000Y-90700000D03*
X137350000Y-90700000D03*
X139890000Y-90700000D03*
%TD*%
D14*
%TO.C,H1*%
X93500000Y-66000000D03*
%TD*%
M02*
