M48
; DRILL file {KiCad 9.0.0} date 2025-03-09T21:02:00-0400
; FORMAT={-:-/ absolute / metric / decimal}
; #@! TF.CreationDate,2025-03-09T21:02:00-04:00
; #@! TF.GenerationSoftware,Kicad,Pcbnew,9.0.0
; #@! TF.FileFunction,Plated,1,2,PTH
FMAT,2
METRIC
; #@! TA.AperFunction,Plated,PTH,ViaDrill
T1C0.400
; #@! TA.AperFunction,Plated,PTH,ComponentDrill
T2C0.800
; #@! TA.AperFunction,Plated,PTH,ComponentDrill
T3C0.950
; #@! TA.AperFunction,Plated,PTH,ComponentDrill
T4C1.000
; #@! TA.AperFunction,Plated,PTH,ComponentDrill
T5C1.100
; #@! TA.AperFunction,Plated,PTH,ComponentDrill
T6C2.200
%
G90
G05
T1
X91.0Y-84.8
X99.6Y-85.8
X104.1Y-89.3
X112.7Y-88.2
X116.4Y-83.0
X117.4Y-74.8
X133.65Y-103.6
X137.5Y-100.8
X138.8Y-100.9
X158.5Y-103.6
X160.45Y-104.55
X160.5Y-102.45
X161.95Y-102.45
X161.95Y-104.6
X165.987Y-95.019
X166.0Y-93.1
X167.3Y-93.1
X167.3Y-95.0
X169.1Y-83.7
X169.1Y-94.15
T2
X117.397Y-69.0
X120.897Y-69.0
X122.11Y-78.0
X122.11Y-90.7
X124.65Y-78.0
X124.65Y-90.7
X127.19Y-78.0
X127.19Y-90.7
X129.73Y-78.0
X129.73Y-90.7
X132.27Y-78.0
X132.27Y-90.7
X134.81Y-78.0
X134.81Y-90.7
X137.35Y-78.0
X137.35Y-90.7
X139.89Y-78.0
X139.89Y-90.7
X144.5Y-69.0
X145.22Y-78.0
X145.22Y-90.7
X147.76Y-78.0
X147.76Y-90.7
X148.0Y-69.0
X150.3Y-78.0
X150.3Y-90.7
X152.84Y-78.0
X152.84Y-90.7
X155.38Y-78.0
X155.38Y-90.7
X157.92Y-78.0
X157.92Y-90.7
X160.46Y-78.0
X160.46Y-90.7
X163.0Y-78.0
X163.0Y-90.7
T3
X129.05Y-66.225
X131.55Y-66.225
X134.05Y-66.225
X136.55Y-66.225
X156.3Y-66.225
X158.8Y-66.225
X161.3Y-66.225
X163.8Y-66.225
X169.5Y-100.5
X169.5Y-103.0
X169.5Y-105.5
X169.5Y-108.0
X177.3Y-74.0
X177.3Y-76.5
X177.3Y-79.0
X177.3Y-86.0
X177.3Y-88.5
X177.3Y-91.0
X178.3Y-98.0
X178.3Y-100.5
X178.3Y-103.0
X178.3Y-105.5
X178.3Y-108.0
T4
X93.7Y-73.0
X93.7Y-75.5
T5
X103.8Y-96.75
X103.8Y-111.99
X106.34Y-96.75
X106.34Y-111.99
X108.88Y-96.75
X108.88Y-111.99
X111.42Y-96.75
X111.42Y-111.99
X113.96Y-96.75
X113.96Y-111.99
X116.5Y-96.75
X116.5Y-111.99
X119.04Y-96.75
X119.04Y-111.99
X121.58Y-96.75
X121.58Y-111.99
X124.12Y-96.75
X124.12Y-111.99
X126.66Y-96.75
X126.66Y-111.99
X129.2Y-96.75
X129.2Y-111.99
X131.74Y-96.75
X131.74Y-111.99
X134.28Y-96.75
X134.28Y-111.99
X136.82Y-96.75
X136.82Y-111.99
X139.36Y-96.75
X139.36Y-111.99
X141.9Y-96.75
X141.9Y-111.99
X144.44Y-96.75
X144.44Y-111.99
X146.98Y-96.75
X146.98Y-111.99
X149.52Y-96.75
X149.52Y-111.99
X152.06Y-96.75
X152.06Y-111.99
X154.6Y-96.75
X154.6Y-111.99
X157.14Y-96.75
X157.14Y-111.99
X159.68Y-96.75
X159.68Y-111.99
X162.22Y-96.75
X162.22Y-111.99
T6
X93.5Y-66.0
X93.5Y-115.0
X177.5Y-66.0
X177.5Y-115.0
T5
G00X105.15Y-69.7
M15
G01X107.25Y-69.7
M16
G05
G00X105.15Y-76.0
M15
G01X107.25Y-76.0
M16
G05
M30
